<svg width="268" height="196" viewBox="0 0 268 196" fill="none" xmlns="http://www.w3.org/2000/svg">
<circle cx="40" cy="40" r="16" fill="#FA2C5A"/>
<path d="M47.1583 41.175L41.1833 47.15C41.0285 47.305 40.8447 47.4279 40.6424 47.5118C40.44 47.5956 40.2232 47.6388 40.0041 47.6388C39.7851 47.6388 39.5682 47.5956 39.3659 47.5118C39.1636 47.4279 38.9797 47.305 38.825 47.15L31.6666 40V31.6667H40L47.1583 38.825C47.4687 39.1373 47.6429 39.5597 47.6429 40C47.6429 40.4403 47.4687 40.8627 47.1583 41.175V41.175Z" stroke="white" stroke-width="2" stroke-linecap="round" stroke-linejoin="round"/>
<path d="M35.8334 35.8333H35.8417" stroke="white" stroke-width="2" stroke-linecap="round" stroke-linejoin="round"/>
<path d="M25.2031 90V78.4844H27.5859V82.875H32.0859V78.4844H34.4766V90H32.0859V84.8594H27.5859V90H25.2031ZM41.2969 85.8594C41.1562 85.9479 41.013 86.0208 40.8672 86.0781C40.7266 86.1302 40.5312 86.1797 40.2812 86.2266L39.7812 86.3203C39.3125 86.4036 38.9766 86.5052 38.7734 86.625C38.4297 86.8281 38.2578 87.1432 38.2578 87.5703C38.2578 87.9505 38.362 88.2266 38.5703 88.3984C38.7839 88.5651 39.0417 88.6484 39.3438 88.6484C39.8229 88.6484 40.263 88.5078 40.6641 88.2266C41.0703 87.9453 41.2812 87.4323 41.2969 86.6875V85.8594ZM39.9453 84.8203C40.3568 84.7682 40.651 84.7031 40.8281 84.625C41.1458 84.4896 41.3047 84.2786 41.3047 83.9922C41.3047 83.6432 41.1823 83.4036 40.9375 83.2734C40.6979 83.138 40.3438 83.0703 39.875 83.0703C39.349 83.0703 38.9766 83.2005 38.7578 83.4609C38.6016 83.6536 38.4974 83.9141 38.4453 84.2422H36.2969C36.3438 83.4974 36.5521 82.8854 36.9219 82.4062C37.5104 81.6562 38.5208 81.2812 39.9531 81.2812C40.8854 81.2812 41.7135 81.4661 42.4375 81.8359C43.1615 82.2057 43.5234 82.9036 43.5234 83.9297V87.8359C43.5234 88.1068 43.5286 88.4349 43.5391 88.8203C43.5547 89.112 43.599 89.3099 43.6719 89.4141C43.7448 89.5182 43.8542 89.6042 44 89.6719V90H41.5781C41.5104 89.8281 41.4635 89.6667 41.4375 89.5156C41.4115 89.3646 41.3906 89.1927 41.375 89C41.0677 89.3333 40.7135 89.6172 40.3125 89.8516C39.8333 90.1276 39.2917 90.2656 38.6875 90.2656C37.9167 90.2656 37.2786 90.0469 36.7734 89.6094C36.2734 89.1667 36.0234 88.5417 36.0234 87.7344C36.0234 86.6875 36.4271 85.9297 37.2344 85.4609C37.6771 85.2057 38.3281 85.0234 39.1875 84.9141L39.9453 84.8203ZM50.1328 81.2812C50.1745 81.2812 50.2083 81.2839 50.2344 81.2891C50.2656 81.2891 50.3307 81.2917 50.4297 81.2969V83.5781C50.2891 83.5625 50.1641 83.5521 50.0547 83.5469C49.9453 83.5417 49.8568 83.5391 49.7891 83.5391C48.8932 83.5391 48.2917 83.8307 47.9844 84.4141C47.8125 84.7422 47.7266 85.2474 47.7266 85.9297V90H45.4844V81.4844H47.6094V82.9688C47.9531 82.401 48.2526 82.013 48.5078 81.8047C48.9245 81.4557 49.4661 81.2812 50.1328 81.2812ZM55.3984 88.1719C55.9193 88.1719 56.3594 87.9766 56.7188 87.5859C57.0781 87.1901 57.2578 86.5625 57.2578 85.7031C57.2578 84.8958 57.0859 84.2812 56.7422 83.8594C56.4036 83.4375 55.9479 83.2266 55.375 83.2266C54.5938 83.2266 54.0547 83.5938 53.7578 84.3281C53.6016 84.7188 53.5234 85.2005 53.5234 85.7734C53.5234 86.2682 53.6068 86.7083 53.7734 87.0938C54.0755 87.8125 54.6172 88.1719 55.3984 88.1719ZM54.8438 81.2812C55.2708 81.2812 55.6432 81.3464 55.9609 81.4766C56.5026 81.7005 56.9401 82.112 57.2734 82.7109V81.4844H59.4375V89.5625C59.4375 90.6615 59.2526 91.4896 58.8828 92.0469C58.2474 93.0052 57.0286 93.4844 55.2266 93.4844C54.138 93.4844 53.25 93.2708 52.5625 92.8438C51.875 92.4167 51.4948 91.7786 51.4219 90.9297H53.8438C53.9062 91.1901 54.0078 91.3776 54.1484 91.4922C54.388 91.6953 54.7917 91.7969 55.3594 91.7969C56.1615 91.7969 56.6979 91.5286 56.9688 90.9922C57.1458 90.6484 57.2344 90.0703 57.2344 89.2578V88.7109C57.0208 89.0755 56.7917 89.349 56.5469 89.5312C56.1042 89.8698 55.5286 90.0391 54.8203 90.0391C53.7266 90.0391 52.8516 89.6562 52.1953 88.8906C51.5443 88.1198 51.2188 87.0781 51.2188 85.7656C51.2188 84.5 51.5339 83.4375 52.1641 82.5781C52.7943 81.7135 53.6875 81.2812 54.8438 81.2812ZM66.2188 85.8594C66.0781 85.9479 65.9349 86.0208 65.7891 86.0781C65.6484 86.1302 65.4531 86.1797 65.2031 86.2266L64.7031 86.3203C64.2344 86.4036 63.8984 86.5052 63.6953 86.625C63.3516 86.8281 63.1797 87.1432 63.1797 87.5703C63.1797 87.9505 63.2839 88.2266 63.4922 88.3984C63.7057 88.5651 63.9635 88.6484 64.2656 88.6484C64.7448 88.6484 65.1849 88.5078 65.5859 88.2266C65.9922 87.9453 66.2031 87.4323 66.2188 86.6875V85.8594ZM64.8672 84.8203C65.2786 84.7682 65.5729 84.7031 65.75 84.625C66.0677 84.4896 66.2266 84.2786 66.2266 83.9922C66.2266 83.6432 66.1042 83.4036 65.8594 83.2734C65.6198 83.138 65.2656 83.0703 64.7969 83.0703C64.2708 83.0703 63.8984 83.2005 63.6797 83.4609C63.5234 83.6536 63.4193 83.9141 63.3672 84.2422H61.2188C61.2656 83.4974 61.474 82.8854 61.8438 82.4062C62.4323 81.6562 63.4427 81.2812 64.875 81.2812C65.8073 81.2812 66.6354 81.4661 67.3594 81.8359C68.0833 82.2057 68.4453 82.9036 68.4453 83.9297V87.8359C68.4453 88.1068 68.4505 88.4349 68.4609 88.8203C68.4766 89.112 68.5208 89.3099 68.5938 89.4141C68.6667 89.5182 68.776 89.6042 68.9219 89.6719V90H66.5C66.4323 89.8281 66.3854 89.6667 66.3594 89.5156C66.3333 89.3646 66.3125 89.1927 66.2969 89C65.9896 89.3333 65.6354 89.6172 65.2344 89.8516C64.7552 90.1276 64.2135 90.2656 63.6094 90.2656C62.8385 90.2656 62.2005 90.0469 61.6953 89.6094C61.1953 89.1667 60.9453 88.5417 60.9453 87.7344C60.9453 86.6875 61.349 85.9297 62.1562 85.4609C62.599 85.2057 63.25 85.0234 64.1094 84.9141L64.8672 84.8203ZM82.6953 78.4844H86.1562V90H83.9141V82.2109C83.9141 81.987 83.9167 81.6745 83.9219 81.2734C83.9271 80.8672 83.9297 80.5547 83.9297 80.3359L81.75 90H79.4141L77.25 80.3359C77.25 80.5547 77.2526 80.8672 77.2578 81.2734C77.263 81.6745 77.2656 81.987 77.2656 82.2109V90H75.0234V78.4844H78.5234L80.6172 87.5391L82.6953 78.4844ZM90.4297 81.4844V86.6172C90.4297 87.1016 90.487 87.4661 90.6016 87.7109C90.8047 88.1432 91.2031 88.3594 91.7969 88.3594C92.5573 88.3594 93.0781 88.0521 93.3594 87.4375C93.5052 87.1042 93.5781 86.6641 93.5781 86.1172V81.4844H95.8359V90H93.6719V88.7969C93.651 88.8229 93.599 88.901 93.5156 89.0312C93.4323 89.1615 93.3333 89.276 93.2188 89.375C92.8698 89.6875 92.5312 89.901 92.2031 90.0156C91.8802 90.1302 91.5 90.1875 91.0625 90.1875C89.8021 90.1875 88.9531 89.7344 88.5156 88.8281C88.2708 88.3281 88.1484 87.5911 88.1484 86.6172V81.4844H90.4297ZM102.617 81.2812C102.659 81.2812 102.693 81.2839 102.719 81.2891C102.75 81.2891 102.815 81.2917 102.914 81.2969V83.5781C102.773 83.5625 102.648 83.5521 102.539 83.5469C102.43 83.5417 102.341 83.5391 102.273 83.5391C101.378 83.5391 100.776 83.8307 100.469 84.4141C100.297 84.7422 100.211 85.2474 100.211 85.9297V90H97.9688V81.4844H100.094V82.9688C100.438 82.401 100.737 82.013 100.992 81.8047C101.409 81.4557 101.951 81.2812 102.617 81.2812ZM108.922 85.8594C108.781 85.9479 108.638 86.0208 108.492 86.0781C108.352 86.1302 108.156 86.1797 107.906 86.2266L107.406 86.3203C106.938 86.4036 106.602 86.5052 106.398 86.625C106.055 86.8281 105.883 87.1432 105.883 87.5703C105.883 87.9505 105.987 88.2266 106.195 88.3984C106.409 88.5651 106.667 88.6484 106.969 88.6484C107.448 88.6484 107.888 88.5078 108.289 88.2266C108.695 87.9453 108.906 87.4323 108.922 86.6875V85.8594ZM107.57 84.8203C107.982 84.7682 108.276 84.7031 108.453 84.625C108.771 84.4896 108.93 84.2786 108.93 83.9922C108.93 83.6432 108.807 83.4036 108.562 83.2734C108.323 83.138 107.969 83.0703 107.5 83.0703C106.974 83.0703 106.602 83.2005 106.383 83.4609C106.227 83.6536 106.122 83.9141 106.07 84.2422H103.922C103.969 83.4974 104.177 82.8854 104.547 82.4062C105.135 81.6562 106.146 81.2812 107.578 81.2812C108.51 81.2812 109.339 81.4661 110.062 81.8359C110.786 82.2057 111.148 82.9036 111.148 83.9297V87.8359C111.148 88.1068 111.154 88.4349 111.164 88.8203C111.18 89.112 111.224 89.3099 111.297 89.4141C111.37 89.5182 111.479 89.6042 111.625 89.6719V90H109.203C109.135 89.8281 109.089 89.6667 109.062 89.5156C109.036 89.3646 109.016 89.1927 109 89C108.693 89.3333 108.339 89.6172 107.938 89.8516C107.458 90.1276 106.917 90.2656 106.312 90.2656C105.542 90.2656 104.904 90.0469 104.398 89.6094C103.898 89.1667 103.648 88.5417 103.648 87.7344C103.648 86.6875 104.052 85.9297 104.859 85.4609C105.302 85.2057 105.953 85.0234 106.812 84.9141L107.57 84.8203ZM117.828 81.2656C118.354 81.2656 118.831 81.3568 119.258 81.5391C119.69 81.7214 120.044 82 120.32 82.375C120.555 82.6927 120.698 83.0208 120.75 83.3594C120.802 83.6927 120.828 84.2396 120.828 85V90H118.555V84.8203C118.555 84.362 118.477 83.9922 118.32 83.7109C118.117 83.3151 117.732 83.1172 117.164 83.1172C116.576 83.1172 116.128 83.3151 115.82 83.7109C115.518 84.1016 115.367 84.6615 115.367 85.3906V90H113.148V78.5234H115.367V82.5938C115.69 82.099 116.062 81.7552 116.484 81.5625C116.911 81.3646 117.359 81.2656 117.828 81.2656Z" fill="black"/>
<path d="M25.12 127V116.92H26.072V121.246H32.036V116.92H32.988V127H32.036V122.058H26.072V127H25.12ZM39.8575 123.192C39.5028 123.341 39.1435 123.439 38.7795 123.486C38.4155 123.533 38.0515 123.57 37.6875 123.598C37.0435 123.645 36.5395 123.789 36.1755 124.032C35.8208 124.275 35.6435 124.643 35.6435 125.138C35.6435 125.362 35.6855 125.558 35.7695 125.726C35.8628 125.885 35.9795 126.02 36.1195 126.132C36.2688 126.235 36.4368 126.314 36.6235 126.37C36.8195 126.417 37.0155 126.44 37.2115 126.44C37.5475 126.44 37.8742 126.398 38.1915 126.314C38.5088 126.23 38.7888 126.104 39.0315 125.936C39.2835 125.759 39.4842 125.539 39.6335 125.278C39.7828 125.007 39.8575 124.69 39.8575 124.326V123.192ZM38.4435 122.772C38.6022 122.753 38.7888 122.725 39.0035 122.688C39.2275 122.651 39.4095 122.599 39.5495 122.534C39.6895 122.469 39.7735 122.361 39.8015 122.212C39.8388 122.053 39.8575 121.909 39.8575 121.778C39.8575 121.349 39.7175 120.999 39.4375 120.728C39.1668 120.448 38.7048 120.308 38.0515 120.308C37.7622 120.308 37.4962 120.336 37.2535 120.392C37.0108 120.439 36.7962 120.527 36.6095 120.658C36.4322 120.779 36.2828 120.947 36.1615 121.162C36.0495 121.367 35.9748 121.629 35.9375 121.946H35.0835C35.1115 121.517 35.2095 121.153 35.3775 120.854C35.5455 120.546 35.7602 120.299 36.0215 120.112C36.2922 119.916 36.6002 119.776 36.9455 119.692C37.3002 119.599 37.6735 119.552 38.0655 119.552C38.4295 119.552 38.7702 119.594 39.0875 119.678C39.4142 119.753 39.6942 119.879 39.9275 120.056C40.1702 120.224 40.3568 120.453 40.4875 120.742C40.6275 121.031 40.6975 121.386 40.6975 121.806V125.754C40.6975 126.081 40.7535 126.291 40.8655 126.384C40.9868 126.468 41.2248 126.445 41.5795 126.314V126.972C41.5142 126.991 41.4162 127.019 41.2855 127.056C41.1642 127.093 41.0428 127.112 40.9215 127.112C40.7908 127.112 40.6648 127.098 40.5435 127.07C40.4035 127.051 40.2915 127.009 40.2075 126.944C40.1235 126.869 40.0535 126.785 39.9975 126.692C39.9508 126.589 39.9182 126.482 39.8995 126.37C39.8808 126.249 39.8715 126.123 39.8715 125.992C39.5168 126.384 39.1108 126.683 38.6535 126.888C38.1962 127.093 37.7015 127.196 37.1695 127.196C36.8522 127.196 36.5442 127.154 36.2455 127.07C35.9562 126.986 35.6995 126.855 35.4755 126.678C35.2515 126.501 35.0742 126.286 34.9435 126.034C34.8128 125.773 34.7475 125.465 34.7475 125.11C34.7475 123.878 35.5922 123.15 37.2815 122.926L38.4435 122.772ZM43.7728 127H42.9328V119.748H43.7728V121.106H43.8008C44.0341 120.527 44.3328 120.126 44.6968 119.902C45.0701 119.669 45.5601 119.552 46.1668 119.552V120.462C45.6908 120.453 45.2988 120.527 44.9908 120.686C44.6828 120.845 44.4355 121.059 44.2488 121.33C44.0715 121.601 43.9455 121.923 43.8708 122.296C43.8055 122.66 43.7728 123.043 43.7728 123.444V127ZM53.1529 123.402C53.1529 122.963 53.0969 122.557 52.9849 122.184C52.8823 121.801 52.7283 121.475 52.5229 121.204C52.3176 120.924 52.0609 120.705 51.7529 120.546C51.4449 120.387 51.0949 120.308 50.7029 120.308C50.3483 120.308 50.0216 120.373 49.7229 120.504C49.4243 120.625 49.1629 120.807 48.9389 121.05C48.7149 121.293 48.5376 121.591 48.4069 121.946C48.2856 122.291 48.2249 122.693 48.2249 123.15C48.2063 123.607 48.2436 124.037 48.3369 124.438C48.4303 124.83 48.5796 125.175 48.7849 125.474C48.9903 125.773 49.2516 126.011 49.5689 126.188C49.8863 126.356 50.2643 126.44 50.7029 126.44C51.0856 126.44 51.4263 126.361 51.7249 126.202C52.0329 126.034 52.2896 125.815 52.4949 125.544C52.7096 125.264 52.8729 124.942 52.9849 124.578C53.0969 124.205 53.1529 123.813 53.1529 123.402ZM53.1529 119.748H53.9929V126.3C53.9929 126.785 53.9416 127.247 53.8389 127.686C53.7456 128.134 53.5729 128.526 53.3209 128.862C53.0689 129.198 52.7236 129.464 52.2849 129.66C51.8463 129.865 51.2816 129.968 50.5909 129.968C50.0589 129.968 49.6016 129.898 49.2189 129.758C48.8363 129.627 48.5236 129.459 48.2809 129.254C48.0383 129.049 47.8516 128.82 47.7209 128.568C47.5996 128.325 47.5343 128.097 47.5249 127.882H48.4209C48.4863 128.153 48.5889 128.372 48.7289 128.54C48.8689 128.717 49.0323 128.853 49.2189 128.946C49.4149 129.049 49.6296 129.119 49.8629 129.156C50.0963 129.193 50.3389 129.212 50.5909 129.212C51.1603 129.212 51.6176 129.114 51.9629 128.918C52.3083 128.722 52.5696 128.465 52.7469 128.148C52.9243 127.831 53.0363 127.471 53.0829 127.07C53.1389 126.669 53.1623 126.258 53.1529 125.838C52.8823 126.286 52.5089 126.627 52.0329 126.86C51.5663 127.084 51.0763 127.196 50.5629 127.196C50.0123 127.196 49.5316 127.093 49.1209 126.888C48.7196 126.673 48.3836 126.393 48.1129 126.048C47.8516 125.693 47.6556 125.283 47.5249 124.816C47.3943 124.349 47.3289 123.864 47.3289 123.36C47.3289 122.828 47.3896 122.329 47.5109 121.862C47.6323 121.395 47.8236 120.994 48.0849 120.658C48.3556 120.313 48.6963 120.042 49.1069 119.846C49.5176 119.65 50.0169 119.552 50.6049 119.552C50.8383 119.552 51.0763 119.585 51.3189 119.65C51.5616 119.715 51.7949 119.809 52.0189 119.93C52.2523 120.051 52.4623 120.205 52.6489 120.392C52.8449 120.579 53.0036 120.789 53.1249 121.022H53.1529V119.748ZM60.8575 123.192C60.5028 123.341 60.1435 123.439 59.7795 123.486C59.4155 123.533 59.0515 123.57 58.6875 123.598C58.0435 123.645 57.5395 123.789 57.1755 124.032C56.8208 124.275 56.6435 124.643 56.6435 125.138C56.6435 125.362 56.6855 125.558 56.7695 125.726C56.8628 125.885 56.9795 126.02 57.1195 126.132C57.2688 126.235 57.4368 126.314 57.6235 126.37C57.8195 126.417 58.0155 126.44 58.2115 126.44C58.5475 126.44 58.8742 126.398 59.1915 126.314C59.5088 126.23 59.7888 126.104 60.0315 125.936C60.2835 125.759 60.4842 125.539 60.6335 125.278C60.7828 125.007 60.8575 124.69 60.8575 124.326V123.192ZM59.4435 122.772C59.6022 122.753 59.7888 122.725 60.0035 122.688C60.2275 122.651 60.4095 122.599 60.5495 122.534C60.6895 122.469 60.7735 122.361 60.8015 122.212C60.8388 122.053 60.8575 121.909 60.8575 121.778C60.8575 121.349 60.7175 120.999 60.4375 120.728C60.1668 120.448 59.7048 120.308 59.0515 120.308C58.7622 120.308 58.4962 120.336 58.2535 120.392C58.0108 120.439 57.7962 120.527 57.6095 120.658C57.4322 120.779 57.2828 120.947 57.1615 121.162C57.0495 121.367 56.9748 121.629 56.9375 121.946H56.0835C56.1115 121.517 56.2095 121.153 56.3775 120.854C56.5455 120.546 56.7602 120.299 57.0215 120.112C57.2922 119.916 57.6002 119.776 57.9455 119.692C58.3002 119.599 58.6735 119.552 59.0655 119.552C59.4295 119.552 59.7702 119.594 60.0875 119.678C60.4142 119.753 60.6942 119.879 60.9275 120.056C61.1702 120.224 61.3568 120.453 61.4875 120.742C61.6275 121.031 61.6975 121.386 61.6975 121.806V125.754C61.6975 126.081 61.7535 126.291 61.8655 126.384C61.9868 126.468 62.2248 126.445 62.5795 126.314V126.972C62.5142 126.991 62.4162 127.019 62.2855 127.056C62.1642 127.093 62.0428 127.112 61.9215 127.112C61.7908 127.112 61.6648 127.098 61.5435 127.07C61.4035 127.051 61.2915 127.009 61.2075 126.944C61.1235 126.869 61.0535 126.785 60.9975 126.692C60.9508 126.589 60.9182 126.482 60.8995 126.37C60.8808 126.249 60.8715 126.123 60.8715 125.992C60.5168 126.384 60.1108 126.683 59.6535 126.888C59.1962 127.093 58.7015 127.196 58.1695 127.196C57.8522 127.196 57.5442 127.154 57.2455 127.07C56.9562 126.986 56.6995 126.855 56.4755 126.678C56.2515 126.501 56.0742 126.286 55.9435 126.034C55.8128 125.773 55.7475 125.465 55.7475 125.11C55.7475 123.878 56.5922 123.15 58.2815 122.926L59.4435 122.772ZM68.5153 127H67.6753V119.748H68.5153V120.84H68.5433C68.758 120.42 69.066 120.103 69.4673 119.888C69.8686 119.664 70.3073 119.552 70.7833 119.552C71.1193 119.552 71.404 119.589 71.6373 119.664C71.8706 119.739 72.0666 119.841 72.2253 119.972C72.3933 120.093 72.5286 120.238 72.6313 120.406C72.7433 120.574 72.8366 120.756 72.9113 120.952C73.154 120.476 73.476 120.126 73.8773 119.902C74.288 119.669 74.7546 119.552 75.2773 119.552C75.772 119.552 76.164 119.636 76.4533 119.804C76.752 119.963 76.9806 120.177 77.1393 120.448C77.298 120.709 77.4006 121.013 77.4473 121.358C77.5033 121.703 77.5313 122.058 77.5313 122.422V127H76.6913V121.988C76.6913 121.465 76.5793 121.055 76.3553 120.756C76.1406 120.457 75.7346 120.308 75.1373 120.308C74.8293 120.308 74.5306 120.378 74.2413 120.518C73.9613 120.649 73.714 120.854 73.4993 121.134C73.406 121.255 73.3266 121.4 73.2613 121.568C73.2053 121.727 73.1586 121.895 73.1213 122.072C73.084 122.249 73.056 122.427 73.0373 122.604C73.028 122.781 73.0233 122.945 73.0233 123.094V127H72.1833V121.988C72.1833 121.465 72.0713 121.055 71.8473 120.756C71.6326 120.457 71.2266 120.308 70.6293 120.308C70.3213 120.308 70.0226 120.378 69.7333 120.518C69.4533 120.649 69.206 120.854 68.9913 121.134C68.898 121.255 68.8186 121.4 68.7533 121.568C68.6973 121.727 68.6506 121.895 68.6133 122.072C68.576 122.249 68.548 122.427 68.5293 122.604C68.52 122.781 68.5153 122.945 68.5153 123.094V127ZM84.3634 119.748H85.2034V127H84.3634V125.992C84.2514 126.123 84.1254 126.258 83.9854 126.398C83.8454 126.538 83.6821 126.669 83.4954 126.79C83.3181 126.902 83.1081 126.995 82.8654 127.07C82.6227 127.154 82.3427 127.196 82.0254 127.196C81.5401 127.196 81.1341 127.131 80.8074 127C80.4807 126.86 80.2147 126.669 80.0094 126.426C79.8134 126.183 79.6687 125.903 79.5754 125.586C79.4914 125.259 79.4494 124.905 79.4494 124.522V119.748H80.2894V124.508C80.2894 125.133 80.4341 125.614 80.7234 125.95C81.0127 126.277 81.4887 126.44 82.1514 126.44C82.4967 126.44 82.8047 126.375 83.0754 126.244C83.3554 126.104 83.5887 125.913 83.7754 125.67C83.9621 125.427 84.1067 125.138 84.2094 124.802C84.3121 124.466 84.3634 124.097 84.3634 123.696V119.748ZM88.1107 127H87.2707V119.748H88.1107V121.106H88.1387C88.372 120.527 88.6707 120.126 89.0347 119.902C89.408 119.669 89.898 119.552 90.5047 119.552V120.462C90.0287 120.453 89.6367 120.527 89.3287 120.686C89.0207 120.845 88.7734 121.059 88.5867 121.33C88.4094 121.601 88.2834 121.923 88.2087 122.296C88.1434 122.66 88.1107 123.043 88.1107 123.444V127ZM96.6368 123.192C96.2821 123.341 95.9228 123.439 95.5588 123.486C95.1948 123.533 94.8308 123.57 94.4668 123.598C93.8228 123.645 93.3188 123.789 92.9548 124.032C92.6001 124.275 92.4228 124.643 92.4228 125.138C92.4228 125.362 92.4648 125.558 92.5488 125.726C92.6421 125.885 92.7588 126.02 92.8988 126.132C93.0481 126.235 93.2161 126.314 93.4028 126.37C93.5988 126.417 93.7948 126.44 93.9908 126.44C94.3268 126.44 94.6535 126.398 94.9708 126.314C95.2881 126.23 95.5681 126.104 95.8108 125.936C96.0628 125.759 96.2635 125.539 96.4128 125.278C96.5621 125.007 96.6368 124.69 96.6368 124.326V123.192ZM95.2228 122.772C95.3815 122.753 95.5681 122.725 95.7828 122.688C96.0068 122.651 96.1888 122.599 96.3288 122.534C96.4688 122.469 96.5528 122.361 96.5808 122.212C96.6181 122.053 96.6368 121.909 96.6368 121.778C96.6368 121.349 96.4968 120.999 96.2168 120.728C95.9461 120.448 95.4841 120.308 94.8308 120.308C94.5415 120.308 94.2755 120.336 94.0328 120.392C93.7901 120.439 93.5755 120.527 93.3888 120.658C93.2115 120.779 93.0621 120.947 92.9408 121.162C92.8288 121.367 92.7541 121.629 92.7168 121.946H91.8628C91.8908 121.517 91.9888 121.153 92.1568 120.854C92.3248 120.546 92.5395 120.299 92.8008 120.112C93.0715 119.916 93.3795 119.776 93.7248 119.692C94.0795 119.599 94.4528 119.552 94.8448 119.552C95.2088 119.552 95.5495 119.594 95.8668 119.678C96.1935 119.753 96.4735 119.879 96.7068 120.056C96.9495 120.224 97.1361 120.453 97.2668 120.742C97.4068 121.031 97.4768 121.386 97.4768 121.806V125.754C97.4768 126.081 97.5328 126.291 97.6448 126.384C97.7661 126.468 98.0041 126.445 98.3588 126.314V126.972C98.2935 126.991 98.1955 127.019 98.0648 127.056C97.9435 127.093 97.8221 127.112 97.7008 127.112C97.5701 127.112 97.4441 127.098 97.3228 127.07C97.1828 127.051 97.0708 127.009 96.9868 126.944C96.9028 126.869 96.8328 126.785 96.7768 126.692C96.7301 126.589 96.6975 126.482 96.6788 126.37C96.6601 126.249 96.6508 126.123 96.6508 125.992C96.2961 126.384 95.8901 126.683 95.4328 126.888C94.9755 127.093 94.4808 127.196 93.9488 127.196C93.6315 127.196 93.3235 127.154 93.0248 127.07C92.7355 126.986 92.4788 126.855 92.2548 126.678C92.0308 126.501 91.8535 126.286 91.7228 126.034C91.5921 125.773 91.5268 125.465 91.5268 125.11C91.5268 123.878 92.3715 123.15 94.0608 122.926L95.2228 122.772ZM99.6701 127V116.92H100.51V120.756C100.846 120.401 101.191 120.112 101.546 119.888C101.91 119.664 102.344 119.552 102.848 119.552C103.296 119.552 103.711 119.631 104.094 119.79C104.477 119.939 104.799 120.205 105.06 120.588C105.237 120.849 105.34 121.12 105.368 121.4C105.405 121.671 105.424 121.955 105.424 122.254V127H104.584V122.268C104.584 121.615 104.439 121.125 104.15 120.798C103.861 120.471 103.38 120.308 102.708 120.308C102.447 120.308 102.209 120.35 101.994 120.434C101.779 120.509 101.583 120.611 101.406 120.742C101.238 120.873 101.093 121.022 100.972 121.19C100.851 121.358 100.757 121.535 100.692 121.722C100.608 121.955 100.557 122.179 100.538 122.394C100.519 122.609 100.51 122.842 100.51 123.094V127H99.6701ZM116.946 123.346C116.946 122.935 116.89 122.548 116.778 122.184C116.666 121.811 116.503 121.489 116.288 121.218C116.083 120.938 115.826 120.719 115.518 120.56C115.219 120.392 114.879 120.308 114.496 120.308C114.057 120.308 113.679 120.397 113.362 120.574C113.045 120.742 112.783 120.975 112.578 121.274C112.373 121.573 112.223 121.923 112.13 122.324C112.037 122.716 111.999 123.141 112.018 123.598C112.018 124.055 112.079 124.461 112.2 124.816C112.331 125.161 112.508 125.455 112.732 125.698C112.956 125.941 113.217 126.127 113.516 126.258C113.815 126.379 114.141 126.44 114.496 126.44C114.888 126.44 115.238 126.361 115.546 126.202C115.854 126.043 116.111 125.829 116.316 125.558C116.521 125.278 116.675 124.951 116.778 124.578C116.89 124.195 116.946 123.785 116.946 123.346ZM116.946 116.92H117.786V127H116.946V125.726H116.918C116.797 125.969 116.638 126.183 116.442 126.37C116.255 126.547 116.045 126.697 115.812 126.818C115.588 126.939 115.355 127.033 115.112 127.098C114.869 127.163 114.631 127.196 114.398 127.196C113.81 127.196 113.311 127.098 112.9 126.902C112.489 126.706 112.149 126.44 111.878 126.104C111.617 125.759 111.425 125.353 111.304 124.886C111.183 124.419 111.122 123.92 111.122 123.388C111.122 122.884 111.187 122.399 111.318 121.932C111.449 121.465 111.645 121.059 111.906 120.714C112.177 120.359 112.513 120.079 112.914 119.874C113.325 119.659 113.805 119.552 114.356 119.552C114.869 119.552 115.359 119.669 115.826 119.902C116.302 120.126 116.675 120.462 116.946 120.91V116.92ZM124.65 123.192C124.296 123.341 123.936 123.439 123.572 123.486C123.208 123.533 122.844 123.57 122.48 123.598C121.836 123.645 121.332 123.789 120.968 124.032C120.614 124.275 120.436 124.643 120.436 125.138C120.436 125.362 120.478 125.558 120.562 125.726C120.656 125.885 120.772 126.02 120.912 126.132C121.062 126.235 121.23 126.314 121.416 126.37C121.612 126.417 121.808 126.44 122.004 126.44C122.34 126.44 122.667 126.398 122.984 126.314C123.302 126.23 123.582 126.104 123.824 125.936C124.076 125.759 124.277 125.539 124.426 125.278C124.576 125.007 124.65 124.69 124.65 124.326V123.192ZM123.236 122.772C123.395 122.753 123.582 122.725 123.796 122.688C124.02 122.651 124.202 122.599 124.342 122.534C124.482 122.469 124.566 122.361 124.594 122.212C124.632 122.053 124.65 121.909 124.65 121.778C124.65 121.349 124.51 120.999 124.23 120.728C123.96 120.448 123.498 120.308 122.844 120.308C122.555 120.308 122.289 120.336 122.046 120.392C121.804 120.439 121.589 120.527 121.402 120.658C121.225 120.779 121.076 120.947 120.954 121.162C120.842 121.367 120.768 121.629 120.73 121.946H119.876C119.904 121.517 120.002 121.153 120.17 120.854C120.338 120.546 120.553 120.299 120.814 120.112C121.085 119.916 121.393 119.776 121.738 119.692C122.093 119.599 122.466 119.552 122.858 119.552C123.222 119.552 123.563 119.594 123.88 119.678C124.207 119.753 124.487 119.879 124.72 120.056C124.963 120.224 125.15 120.453 125.28 120.742C125.42 121.031 125.49 121.386 125.49 121.806V125.754C125.49 126.081 125.546 126.291 125.658 126.384C125.78 126.468 126.018 126.445 126.372 126.314V126.972C126.307 126.991 126.209 127.019 126.078 127.056C125.957 127.093 125.836 127.112 125.714 127.112C125.584 127.112 125.458 127.098 125.336 127.07C125.196 127.051 125.084 127.009 125 126.944C124.916 126.869 124.846 126.785 124.79 126.692C124.744 126.589 124.711 126.482 124.692 126.37C124.674 126.249 124.664 126.123 124.664 125.992C124.31 126.384 123.904 126.683 123.446 126.888C122.989 127.093 122.494 127.196 121.962 127.196C121.645 127.196 121.337 127.154 121.038 127.07C120.749 126.986 120.492 126.855 120.268 126.678C120.044 126.501 119.867 126.286 119.736 126.034C119.606 125.773 119.54 125.465 119.54 125.11C119.54 123.878 120.385 123.15 122.074 122.926L123.236 122.772ZM128.524 127H127.684V119.748H128.524V120.756C128.86 120.401 129.205 120.112 129.56 119.888C129.924 119.664 130.358 119.552 130.862 119.552C131.31 119.552 131.725 119.631 132.108 119.79C132.49 119.939 132.812 120.205 133.074 120.588C133.251 120.849 133.354 121.12 133.382 121.4C133.419 121.671 133.438 121.955 133.438 122.254V127H132.598V122.268C132.598 121.615 132.453 121.125 132.164 120.798C131.874 120.471 131.394 120.308 130.722 120.308C130.46 120.308 130.222 120.35 130.008 120.434C129.793 120.509 129.597 120.611 129.42 120.742C129.252 120.873 129.107 121.022 128.986 121.19C128.864 121.358 128.771 121.535 128.706 121.722C128.622 121.955 128.57 122.179 128.552 122.394C128.533 122.609 128.524 122.842 128.524 123.094V127ZM140.298 123.346C140.298 123.785 140.349 124.195 140.452 124.578C140.564 124.951 140.722 125.278 140.928 125.558C141.133 125.829 141.39 126.043 141.698 126.202C142.006 126.361 142.356 126.44 142.748 126.44C143.102 126.44 143.429 126.379 143.728 126.258C144.026 126.127 144.288 125.941 144.512 125.698C144.736 125.455 144.908 125.161 145.03 124.816C145.16 124.461 145.226 124.055 145.226 123.598C145.244 123.141 145.207 122.716 145.114 122.324C145.02 121.923 144.871 121.573 144.666 121.274C144.46 120.975 144.194 120.742 143.868 120.574C143.55 120.397 143.177 120.308 142.748 120.308C142.365 120.308 142.02 120.392 141.712 120.56C141.413 120.719 141.156 120.938 140.942 121.218C140.736 121.489 140.578 121.811 140.466 122.184C140.354 122.548 140.298 122.935 140.298 123.346ZM140.298 127H139.458V116.92H140.298V120.91C140.568 120.462 140.937 120.126 141.404 119.902C141.88 119.669 142.374 119.552 142.888 119.552C143.438 119.552 143.914 119.659 144.316 119.874C144.726 120.079 145.062 120.359 145.324 120.714C145.594 121.059 145.795 121.465 145.926 121.932C146.056 122.399 146.122 122.884 146.122 123.388C146.122 123.92 146.061 124.419 145.94 124.886C145.818 125.353 145.622 125.759 145.352 126.104C145.09 126.44 144.754 126.706 144.344 126.902C143.933 127.098 143.434 127.196 142.846 127.196C142.612 127.196 142.374 127.163 142.132 127.098C141.889 127.033 141.651 126.939 141.418 126.818C141.194 126.697 140.984 126.547 140.788 126.37C140.601 126.183 140.447 125.969 140.326 125.726H140.298V127ZM153.168 122.87C153.168 122.515 153.117 122.184 153.014 121.876C152.921 121.559 152.776 121.288 152.58 121.064C152.393 120.831 152.155 120.649 151.866 120.518C151.577 120.378 151.245 120.308 150.872 120.308C150.499 120.308 150.167 120.378 149.878 120.518C149.598 120.658 149.355 120.845 149.15 121.078C148.954 121.311 148.795 121.582 148.674 121.89C148.553 122.198 148.473 122.525 148.436 122.87H153.168ZM148.436 123.57C148.436 123.962 148.487 124.335 148.59 124.69C148.693 125.035 148.842 125.339 149.038 125.6C149.243 125.852 149.5 126.057 149.808 126.216C150.116 126.365 150.471 126.44 150.872 126.44C151.423 126.44 151.894 126.295 152.286 126.006C152.678 125.717 152.939 125.306 153.07 124.774H154.008C153.905 125.119 153.77 125.441 153.602 125.74C153.434 126.029 153.224 126.286 152.972 126.51C152.72 126.725 152.421 126.893 152.076 127.014C151.731 127.135 151.329 127.196 150.872 127.196C150.293 127.196 149.794 127.098 149.374 126.902C148.954 126.706 148.609 126.44 148.338 126.104C148.067 125.759 147.867 125.357 147.736 124.9C147.605 124.433 147.54 123.934 147.54 123.402C147.54 122.87 147.615 122.371 147.764 121.904C147.923 121.437 148.142 121.031 148.422 120.686C148.711 120.331 149.061 120.056 149.472 119.86C149.883 119.655 150.349 119.552 150.872 119.552C151.871 119.552 152.655 119.897 153.224 120.588C153.793 121.269 154.073 122.263 154.064 123.57H148.436ZM156.579 127H155.739V119.748H156.579V121.106H156.607C156.841 120.527 157.139 120.126 157.503 119.902C157.877 119.669 158.367 119.552 158.973 119.552V120.462C158.497 120.453 158.105 120.527 157.797 120.686C157.489 120.845 157.242 121.059 157.055 121.33C156.878 121.601 156.752 121.923 156.677 122.296C156.612 122.66 156.579 123.043 156.579 123.444V127ZM160.85 124.732C160.98 125.357 161.214 125.801 161.55 126.062C161.895 126.314 162.385 126.44 163.02 126.44C163.328 126.44 163.594 126.403 163.818 126.328C164.042 126.253 164.224 126.155 164.364 126.034C164.513 125.903 164.625 125.759 164.7 125.6C164.774 125.441 164.812 125.273 164.812 125.096C164.812 124.741 164.695 124.48 164.462 124.312C164.238 124.135 163.953 123.999 163.608 123.906C163.262 123.803 162.889 123.719 162.488 123.654C162.086 123.579 161.713 123.472 161.368 123.332C161.022 123.192 160.733 122.991 160.5 122.73C160.276 122.469 160.164 122.1 160.164 121.624C160.164 121.017 160.383 120.523 160.822 120.14C161.27 119.748 161.9 119.552 162.712 119.552C163.496 119.552 164.13 119.729 164.616 120.084C165.11 120.429 165.409 121.013 165.512 121.834H164.658C164.583 121.274 164.368 120.882 164.014 120.658C163.668 120.425 163.23 120.308 162.698 120.308C162.166 120.308 161.76 120.425 161.48 120.658C161.2 120.882 161.06 121.181 161.06 121.554C161.06 121.881 161.172 122.133 161.396 122.31C161.629 122.478 161.918 122.618 162.264 122.73C162.609 122.833 162.982 122.926 163.384 123.01C163.785 123.094 164.158 123.215 164.504 123.374C164.849 123.523 165.134 123.729 165.358 123.99C165.591 124.251 165.708 124.615 165.708 125.082C165.708 125.427 165.633 125.735 165.484 126.006C165.334 126.267 165.129 126.487 164.868 126.664C164.606 126.841 164.294 126.972 163.93 127.056C163.575 127.149 163.183 127.196 162.754 127.196C162.324 127.196 161.942 127.131 161.606 127C161.279 126.879 160.999 126.706 160.766 126.482C160.532 126.258 160.35 125.997 160.22 125.698C160.089 125.399 160.014 125.077 159.996 124.732H160.85ZM172.106 123.192C171.751 123.341 171.392 123.439 171.028 123.486C170.664 123.533 170.3 123.57 169.936 123.598C169.292 123.645 168.788 123.789 168.424 124.032C168.069 124.275 167.892 124.643 167.892 125.138C167.892 125.362 167.934 125.558 168.018 125.726C168.111 125.885 168.228 126.02 168.368 126.132C168.517 126.235 168.685 126.314 168.872 126.37C169.068 126.417 169.264 126.44 169.46 126.44C169.796 126.44 170.122 126.398 170.44 126.314C170.757 126.23 171.037 126.104 171.28 125.936C171.532 125.759 171.732 125.539 171.882 125.278C172.031 125.007 172.106 124.69 172.106 124.326V123.192ZM170.692 122.772C170.85 122.753 171.037 122.725 171.252 122.688C171.476 122.651 171.658 122.599 171.798 122.534C171.938 122.469 172.022 122.361 172.05 122.212C172.087 122.053 172.106 121.909 172.106 121.778C172.106 121.349 171.966 120.999 171.686 120.728C171.415 120.448 170.953 120.308 170.3 120.308C170.01 120.308 169.744 120.336 169.502 120.392C169.259 120.439 169.044 120.527 168.858 120.658C168.68 120.779 168.531 120.947 168.41 121.162C168.298 121.367 168.223 121.629 168.186 121.946H167.332C167.36 121.517 167.458 121.153 167.626 120.854C167.794 120.546 168.008 120.299 168.27 120.112C168.54 119.916 168.848 119.776 169.194 119.692C169.548 119.599 169.922 119.552 170.314 119.552C170.678 119.552 171.018 119.594 171.336 119.678C171.662 119.753 171.942 119.879 172.176 120.056C172.418 120.224 172.605 120.453 172.736 120.742C172.876 121.031 172.946 121.386 172.946 121.806V125.754C172.946 126.081 173.002 126.291 173.114 126.384C173.235 126.468 173.473 126.445 173.828 126.314V126.972C173.762 126.991 173.664 127.019 173.534 127.056C173.412 127.093 173.291 127.112 173.17 127.112C173.039 127.112 172.913 127.098 172.792 127.07C172.652 127.051 172.54 127.009 172.456 126.944C172.372 126.869 172.302 126.785 172.246 126.692C172.199 126.589 172.166 126.482 172.148 126.37C172.129 126.249 172.12 126.123 172.12 125.992C171.765 126.384 171.359 126.683 170.902 126.888C170.444 127.093 169.95 127.196 169.418 127.196C169.1 127.196 168.792 127.154 168.494 127.07C168.204 126.986 167.948 126.855 167.724 126.678C167.5 126.501 167.322 126.286 167.192 126.034C167.061 125.773 166.996 125.465 166.996 125.11C166.996 123.878 167.84 123.15 169.53 122.926L170.692 122.772ZM175.019 127V119.748H175.859V127H175.019ZM174.977 118.166V116.92H175.901V118.166H174.977ZM178.836 127H177.996V119.748H178.836V120.756C179.172 120.401 179.518 120.112 179.872 119.888C180.236 119.664 180.67 119.552 181.174 119.552C181.622 119.552 182.038 119.631 182.42 119.79C182.803 119.939 183.125 120.205 183.386 120.588C183.564 120.849 183.666 121.12 183.694 121.4C183.732 121.671 183.75 121.955 183.75 122.254V127H182.91V122.268C182.91 121.615 182.766 121.125 182.476 120.798C182.187 120.471 181.706 120.308 181.034 120.308C180.773 120.308 180.535 120.35 180.32 120.434C180.106 120.509 179.91 120.611 179.732 120.742C179.564 120.873 179.42 121.022 179.298 121.19C179.177 121.358 179.084 121.535 179.018 121.722C178.934 121.955 178.883 122.179 178.864 122.394C178.846 122.609 178.836 122.842 178.836 123.094V127ZM191.376 123.402C191.376 122.963 191.32 122.557 191.208 122.184C191.105 121.801 190.951 121.475 190.746 121.204C190.54 120.924 190.284 120.705 189.976 120.546C189.668 120.387 189.318 120.308 188.926 120.308C188.571 120.308 188.244 120.373 187.946 120.504C187.647 120.625 187.386 120.807 187.162 121.05C186.938 121.293 186.76 121.591 186.63 121.946C186.508 122.291 186.448 122.693 186.448 123.15C186.429 123.607 186.466 124.037 186.56 124.438C186.653 124.83 186.802 125.175 187.008 125.474C187.213 125.773 187.474 126.011 187.792 126.188C188.109 126.356 188.487 126.44 188.926 126.44C189.308 126.44 189.649 126.361 189.948 126.202C190.256 126.034 190.512 125.815 190.718 125.544C190.932 125.264 191.096 124.942 191.208 124.578C191.32 124.205 191.376 123.813 191.376 123.402ZM191.376 119.748H192.216V126.3C192.216 126.785 192.164 127.247 192.062 127.686C191.968 128.134 191.796 128.526 191.544 128.862C191.292 129.198 190.946 129.464 190.508 129.66C190.069 129.865 189.504 129.968 188.814 129.968C188.282 129.968 187.824 129.898 187.442 129.758C187.059 129.627 186.746 129.459 186.504 129.254C186.261 129.049 186.074 128.82 185.944 128.568C185.822 128.325 185.757 128.097 185.748 127.882H186.644C186.709 128.153 186.812 128.372 186.952 128.54C187.092 128.717 187.255 128.853 187.442 128.946C187.638 129.049 187.852 129.119 188.086 129.156C188.319 129.193 188.562 129.212 188.814 129.212C189.383 129.212 189.84 129.114 190.186 128.918C190.531 128.722 190.792 128.465 190.97 128.148C191.147 127.831 191.259 127.471 191.306 127.07C191.362 126.669 191.385 126.258 191.376 125.838C191.105 126.286 190.732 126.627 190.256 126.86C189.789 127.084 189.299 127.196 188.786 127.196C188.235 127.196 187.754 127.093 187.344 126.888C186.942 126.673 186.606 126.393 186.336 126.048C186.074 125.693 185.878 125.283 185.748 124.816C185.617 124.349 185.552 123.864 185.552 123.36C185.552 122.828 185.612 122.329 185.734 121.862C185.855 121.395 186.046 120.994 186.308 120.658C186.578 120.313 186.919 120.042 187.33 119.846C187.74 119.65 188.24 119.552 188.828 119.552C189.061 119.552 189.299 119.585 189.542 119.65C189.784 119.715 190.018 119.809 190.242 119.93C190.475 120.051 190.685 120.205 190.872 120.392C191.068 120.579 191.226 120.789 191.348 121.022H191.376V119.748ZM195.776 127.42C195.776 127.831 195.678 128.157 195.482 128.4C195.296 128.652 195.053 128.825 194.754 128.918V128.4C194.866 128.325 194.974 128.223 195.076 128.092C195.179 127.961 195.23 127.756 195.23 127.476V127H194.754V125.768H195.776V127.42ZM203.065 123.346C203.065 123.785 203.116 124.195 203.219 124.578C203.331 124.951 203.49 125.278 203.695 125.558C203.9 125.829 204.157 126.043 204.465 126.202C204.773 126.361 205.123 126.44 205.515 126.44C205.87 126.44 206.196 126.379 206.495 126.258C206.794 126.127 207.055 125.941 207.279 125.698C207.503 125.455 207.676 125.161 207.797 124.816C207.928 124.461 207.993 124.055 207.993 123.598C208.012 123.141 207.974 122.716 207.881 122.324C207.788 121.923 207.638 121.573 207.433 121.274C207.228 120.975 206.962 120.742 206.635 120.574C206.318 120.397 205.944 120.308 205.515 120.308C205.132 120.308 204.787 120.392 204.479 120.56C204.18 120.719 203.924 120.938 203.709 121.218C203.504 121.489 203.345 121.811 203.233 122.184C203.121 122.548 203.065 122.935 203.065 123.346ZM203.065 127H202.225V116.92H203.065V120.91C203.336 120.462 203.704 120.126 204.171 119.902C204.647 119.669 205.142 119.552 205.655 119.552C206.206 119.552 206.682 119.659 207.083 119.874C207.494 120.079 207.83 120.359 208.091 120.714C208.362 121.059 208.562 121.465 208.693 121.932C208.824 122.399 208.889 122.884 208.889 123.388C208.889 123.92 208.828 124.419 208.707 124.886C208.586 125.353 208.39 125.759 208.119 126.104C207.858 126.44 207.522 126.706 207.111 126.902C206.7 127.098 206.201 127.196 205.613 127.196C205.38 127.196 205.142 127.163 204.899 127.098C204.656 127.033 204.418 126.939 204.185 126.818C203.961 126.697 203.751 126.547 203.555 126.37C203.368 126.183 203.214 125.969 203.093 125.726H203.065V127ZM210.566 127V119.748H211.406V127H210.566ZM210.524 118.166V116.92H211.448V118.166H210.524ZM214.033 124.732C214.164 125.357 214.397 125.801 214.733 126.062C215.078 126.314 215.568 126.44 216.203 126.44C216.511 126.44 216.777 126.403 217.001 126.328C217.225 126.253 217.407 126.155 217.547 126.034C217.696 125.903 217.808 125.759 217.883 125.6C217.958 125.441 217.995 125.273 217.995 125.096C217.995 124.741 217.878 124.48 217.645 124.312C217.421 124.135 217.136 123.999 216.791 123.906C216.446 123.803 216.072 123.719 215.671 123.654C215.27 123.579 214.896 123.472 214.551 123.332C214.206 123.192 213.916 122.991 213.683 122.73C213.459 122.469 213.347 122.1 213.347 121.624C213.347 121.017 213.566 120.523 214.005 120.14C214.453 119.748 215.083 119.552 215.895 119.552C216.679 119.552 217.314 119.729 217.799 120.084C218.294 120.429 218.592 121.013 218.695 121.834H217.841C217.766 121.274 217.552 120.882 217.197 120.658C216.852 120.425 216.413 120.308 215.881 120.308C215.349 120.308 214.943 120.425 214.663 120.658C214.383 120.882 214.243 121.181 214.243 121.554C214.243 121.881 214.355 122.133 214.579 122.31C214.812 122.478 215.102 122.618 215.447 122.73C215.792 122.833 216.166 122.926 216.567 123.01C216.968 123.094 217.342 123.215 217.687 123.374C218.032 123.523 218.317 123.729 218.541 123.99C218.774 124.251 218.891 124.615 218.891 125.082C218.891 125.427 218.816 125.735 218.667 126.006C218.518 126.267 218.312 126.487 218.051 126.664C217.79 126.841 217.477 126.972 217.113 127.056C216.758 127.149 216.366 127.196 215.937 127.196C215.508 127.196 215.125 127.131 214.789 127C214.462 126.879 214.182 126.706 213.949 126.482C213.716 126.258 213.534 125.997 213.403 125.698C213.272 125.399 213.198 125.077 213.179 124.732H214.033ZM225.289 123.192C224.934 123.341 224.575 123.439 224.211 123.486C223.847 123.533 223.483 123.57 223.119 123.598C222.475 123.645 221.971 123.789 221.607 124.032C221.252 124.275 221.075 124.643 221.075 125.138C221.075 125.362 221.117 125.558 221.201 125.726C221.294 125.885 221.411 126.02 221.551 126.132C221.7 126.235 221.868 126.314 222.055 126.37C222.251 126.417 222.447 126.44 222.643 126.44C222.979 126.44 223.306 126.398 223.623 126.314C223.94 126.23 224.22 126.104 224.463 125.936C224.715 125.759 224.916 125.539 225.065 125.278C225.214 125.007 225.289 124.69 225.289 124.326V123.192ZM223.875 122.772C224.034 122.753 224.22 122.725 224.435 122.688C224.659 122.651 224.841 122.599 224.981 122.534C225.121 122.469 225.205 122.361 225.233 122.212C225.27 122.053 225.289 121.909 225.289 121.778C225.289 121.349 225.149 120.999 224.869 120.728C224.598 120.448 224.136 120.308 223.483 120.308C223.194 120.308 222.928 120.336 222.685 120.392C222.442 120.439 222.228 120.527 222.041 120.658C221.864 120.779 221.714 120.947 221.593 121.162C221.481 121.367 221.406 121.629 221.369 121.946H220.515C220.543 121.517 220.641 121.153 220.809 120.854C220.977 120.546 221.192 120.299 221.453 120.112C221.724 119.916 222.032 119.776 222.377 119.692C222.732 119.599 223.105 119.552 223.497 119.552C223.861 119.552 224.202 119.594 224.519 119.678C224.846 119.753 225.126 119.879 225.359 120.056C225.602 120.224 225.788 120.453 225.919 120.742C226.059 121.031 226.129 121.386 226.129 121.806V125.754C226.129 126.081 226.185 126.291 226.297 126.384C226.418 126.468 226.656 126.445 227.011 126.314V126.972C226.946 126.991 226.848 127.019 226.717 127.056C226.596 127.093 226.474 127.112 226.353 127.112C226.222 127.112 226.096 127.098 225.975 127.07C225.835 127.051 225.723 127.009 225.639 126.944C225.555 126.869 225.485 126.785 225.429 126.692C225.382 126.589 225.35 126.482 225.331 126.37C225.312 126.249 225.303 126.123 225.303 125.992C224.948 126.384 224.542 126.683 224.085 126.888C223.628 127.093 223.133 127.196 222.601 127.196C222.284 127.196 221.976 127.154 221.677 127.07C221.388 126.986 221.131 126.855 220.907 126.678C220.683 126.501 220.506 126.286 220.375 126.034C220.244 125.773 220.179 125.465 220.179 125.11C220.179 123.878 221.024 123.15 222.713 122.926L223.875 122.772ZM25.946 143.346C25.946 143.785 25.9973 144.195 26.1 144.578C26.212 144.951 26.3707 145.278 26.576 145.558C26.7813 145.829 27.038 146.043 27.346 146.202C27.654 146.361 28.004 146.44 28.396 146.44C28.7507 146.44 29.0773 146.379 29.376 146.258C29.6747 146.127 29.936 145.941 30.16 145.698C30.384 145.455 30.5567 145.161 30.678 144.816C30.8087 144.461 30.874 144.055 30.874 143.598C30.8927 143.141 30.8553 142.716 30.762 142.324C30.6687 141.923 30.5193 141.573 30.314 141.274C30.1087 140.975 29.8427 140.742 29.516 140.574C29.1987 140.397 28.8253 140.308 28.396 140.308C28.0133 140.308 27.668 140.392 27.36 140.56C27.0613 140.719 26.8047 140.938 26.59 141.218C26.3847 141.489 26.226 141.811 26.114 142.184C26.002 142.548 25.946 142.935 25.946 143.346ZM25.946 147H25.106V136.92H25.946V140.91C26.2167 140.462 26.5853 140.126 27.052 139.902C27.528 139.669 28.0227 139.552 28.536 139.552C29.0867 139.552 29.5627 139.659 29.964 139.874C30.3747 140.079 30.7107 140.359 30.972 140.714C31.2427 141.059 31.4433 141.465 31.574 141.932C31.7047 142.399 31.77 142.884 31.77 143.388C31.77 143.92 31.7093 144.419 31.588 144.886C31.4667 145.353 31.2707 145.759 31 146.104C30.7387 146.44 30.4027 146.706 29.992 146.902C29.5813 147.098 29.082 147.196 28.494 147.196C28.2607 147.196 28.0227 147.163 27.78 147.098C27.5373 147.033 27.2993 146.939 27.066 146.818C26.842 146.697 26.632 146.547 26.436 146.37C26.2493 146.183 26.0953 145.969 25.974 145.726H25.946V147ZM38.3126 143.192C37.9579 143.341 37.5986 143.439 37.2346 143.486C36.8706 143.533 36.5066 143.57 36.1426 143.598C35.4986 143.645 34.9946 143.789 34.6306 144.032C34.2759 144.275 34.0986 144.643 34.0986 145.138C34.0986 145.362 34.1406 145.558 34.2246 145.726C34.3179 145.885 34.4346 146.02 34.5746 146.132C34.7239 146.235 34.8919 146.314 35.0786 146.37C35.2746 146.417 35.4706 146.44 35.6666 146.44C36.0026 146.44 36.3293 146.398 36.6466 146.314C36.9639 146.23 37.2439 146.104 37.4866 145.936C37.7386 145.759 37.9393 145.539 38.0886 145.278C38.2379 145.007 38.3126 144.69 38.3126 144.326V143.192ZM36.8986 142.772C37.0573 142.753 37.2439 142.725 37.4586 142.688C37.6826 142.651 37.8646 142.599 38.0046 142.534C38.1446 142.469 38.2286 142.361 38.2566 142.212C38.2939 142.053 38.3126 141.909 38.3126 141.778C38.3126 141.349 38.1726 140.999 37.8926 140.728C37.6219 140.448 37.1599 140.308 36.5066 140.308C36.2173 140.308 35.9513 140.336 35.7086 140.392C35.4659 140.439 35.2513 140.527 35.0646 140.658C34.8873 140.779 34.7379 140.947 34.6166 141.162C34.5046 141.367 34.4299 141.629 34.3926 141.946H33.5386C33.5666 141.517 33.6646 141.153 33.8326 140.854C34.0006 140.546 34.2153 140.299 34.4766 140.112C34.7473 139.916 35.0553 139.776 35.4006 139.692C35.7553 139.599 36.1286 139.552 36.5206 139.552C36.8846 139.552 37.2253 139.594 37.5426 139.678C37.8693 139.753 38.1493 139.879 38.3826 140.056C38.6253 140.224 38.8119 140.453 38.9426 140.742C39.0826 141.031 39.1526 141.386 39.1526 141.806V145.754C39.1526 146.081 39.2086 146.291 39.3206 146.384C39.4419 146.468 39.6799 146.445 40.0346 146.314V146.972C39.9693 146.991 39.8713 147.019 39.7406 147.056C39.6193 147.093 39.4979 147.112 39.3766 147.112C39.2459 147.112 39.1199 147.098 38.9986 147.07C38.8586 147.051 38.7466 147.009 38.6626 146.944C38.5786 146.869 38.5086 146.785 38.4526 146.692C38.4059 146.589 38.3733 146.482 38.3546 146.37C38.3359 146.249 38.3266 146.123 38.3266 145.992C37.9719 146.384 37.5659 146.683 37.1086 146.888C36.6513 147.093 36.1566 147.196 35.6246 147.196C35.3073 147.196 34.9993 147.154 34.7006 147.07C34.4113 146.986 34.1546 146.855 33.9306 146.678C33.7066 146.501 33.5293 146.286 33.3986 146.034C33.2679 145.773 33.2026 145.465 33.2026 145.11C33.2026 143.878 34.0473 143.15 35.7366 142.926L36.8986 142.772ZM42.1859 147H41.3459V139.748H42.1859V140.756C42.5219 140.401 42.8672 140.112 43.2219 139.888C43.5859 139.664 44.0199 139.552 44.5239 139.552C44.9719 139.552 45.3872 139.631 45.7699 139.79C46.1526 139.939 46.4746 140.205 46.7359 140.588C46.9132 140.849 47.0159 141.12 47.0439 141.4C47.0812 141.671 47.0999 141.955 47.0999 142.254V147H46.2599V142.268C46.2599 141.615 46.1152 141.125 45.8259 140.798C45.5366 140.471 45.0559 140.308 44.3839 140.308C44.1226 140.308 43.8846 140.35 43.6699 140.434C43.4552 140.509 43.2592 140.611 43.0819 140.742C42.9139 140.873 42.7692 141.022 42.6479 141.19C42.5266 141.358 42.4332 141.535 42.3679 141.722C42.2839 141.955 42.2326 142.179 42.2139 142.394C42.1952 142.609 42.1859 142.842 42.1859 143.094V147ZM54.7252 143.346C54.7252 142.935 54.6692 142.548 54.5572 142.184C54.4452 141.811 54.2819 141.489 54.0672 141.218C53.8619 140.938 53.6052 140.719 53.2972 140.56C52.9985 140.392 52.6579 140.308 52.2752 140.308C51.8365 140.308 51.4585 140.397 51.1412 140.574C50.8239 140.742 50.5625 140.975 50.3572 141.274C50.1519 141.573 50.0025 141.923 49.9092 142.324C49.8159 142.716 49.7785 143.141 49.7972 143.598C49.7972 144.055 49.8579 144.461 49.9792 144.816C50.1099 145.161 50.2872 145.455 50.5112 145.698C50.7352 145.941 50.9965 146.127 51.2952 146.258C51.5939 146.379 51.9205 146.44 52.2752 146.44C52.6672 146.44 53.0172 146.361 53.3252 146.202C53.6332 146.043 53.8899 145.829 54.0952 145.558C54.3005 145.278 54.4545 144.951 54.5572 144.578C54.6692 144.195 54.7252 143.785 54.7252 143.346ZM54.7252 136.92H55.5652V147H54.7252V145.726H54.6972C54.5759 145.969 54.4172 146.183 54.2212 146.37C54.0345 146.547 53.8245 146.697 53.5912 146.818C53.3672 146.939 53.1339 147.033 52.8912 147.098C52.6485 147.163 52.4105 147.196 52.1772 147.196C51.5892 147.196 51.0899 147.098 50.6792 146.902C50.2685 146.706 49.9279 146.44 49.6572 146.104C49.3959 145.759 49.2045 145.353 49.0832 144.886C48.9619 144.419 48.9012 143.92 48.9012 143.388C48.9012 142.884 48.9665 142.399 49.0972 141.932C49.2279 141.465 49.4239 141.059 49.6852 140.714C49.9559 140.359 50.2919 140.079 50.6932 139.874C51.1039 139.659 51.5845 139.552 52.1352 139.552C52.6485 139.552 53.1385 139.669 53.6052 139.902C54.0812 140.126 54.4545 140.462 54.7252 140.91V136.92ZM57.5637 147V139.748H58.4037V147H57.5637ZM57.5217 138.166V136.92H58.4457V138.166H57.5217ZM61.3812 147H60.5412V139.748H61.3812V140.756C61.7172 140.401 62.0625 140.112 62.4172 139.888C62.7812 139.664 63.2152 139.552 63.7192 139.552C64.1672 139.552 64.5825 139.631 64.9652 139.79C65.3479 139.939 65.6699 140.205 65.9312 140.588C66.1085 140.849 66.2112 141.12 66.2392 141.4C66.2765 141.671 66.2952 141.955 66.2952 142.254V147H65.4552V142.268C65.4552 141.615 65.3105 141.125 65.0212 140.798C64.7319 140.471 64.2512 140.308 63.5792 140.308C63.3179 140.308 63.0799 140.35 62.8652 140.434C62.6505 140.509 62.4545 140.611 62.2772 140.742C62.1092 140.873 61.9645 141.022 61.8432 141.19C61.7219 141.358 61.6285 141.535 61.5632 141.722C61.4792 141.955 61.4279 142.179 61.4092 142.394C61.3905 142.609 61.3812 142.842 61.3812 143.094V147ZM73.9205 143.402C73.9205 142.963 73.8645 142.557 73.7525 142.184C73.6498 141.801 73.4958 141.475 73.2905 141.204C73.0852 140.924 72.8285 140.705 72.5205 140.546C72.2125 140.387 71.8625 140.308 71.4705 140.308C71.1158 140.308 70.7892 140.373 70.4905 140.504C70.1918 140.625 69.9305 140.807 69.7065 141.05C69.4825 141.293 69.3052 141.591 69.1745 141.946C69.0532 142.291 68.9925 142.693 68.9925 143.15C68.9738 143.607 69.0112 144.037 69.1045 144.438C69.1978 144.83 69.3472 145.175 69.5525 145.474C69.7578 145.773 70.0192 146.011 70.3365 146.188C70.6538 146.356 71.0318 146.44 71.4705 146.44C71.8532 146.44 72.1938 146.361 72.4925 146.202C72.8005 146.034 73.0572 145.815 73.2625 145.544C73.4772 145.264 73.6405 144.942 73.7525 144.578C73.8645 144.205 73.9205 143.813 73.9205 143.402ZM73.9205 139.748H74.7605V146.3C74.7605 146.785 74.7092 147.247 74.6065 147.686C74.5132 148.134 74.3405 148.526 74.0885 148.862C73.8365 149.198 73.4912 149.464 73.0525 149.66C72.6138 149.865 72.0492 149.968 71.3585 149.968C70.8265 149.968 70.3692 149.898 69.9865 149.758C69.6038 149.627 69.2912 149.459 69.0485 149.254C68.8058 149.049 68.6192 148.82 68.4885 148.568C68.3672 148.325 68.3018 148.097 68.2925 147.882H69.1885C69.2538 148.153 69.3565 148.372 69.4965 148.54C69.6365 148.717 69.7998 148.853 69.9865 148.946C70.1825 149.049 70.3972 149.119 70.6305 149.156C70.8638 149.193 71.1065 149.212 71.3585 149.212C71.9278 149.212 72.3852 149.114 72.7305 148.918C73.0758 148.722 73.3372 148.465 73.5145 148.148C73.6918 147.831 73.8038 147.471 73.8505 147.07C73.9065 146.669 73.9298 146.258 73.9205 145.838C73.6498 146.286 73.2765 146.627 72.8005 146.86C72.3338 147.084 71.8438 147.196 71.3305 147.196C70.7798 147.196 70.2992 147.093 69.8885 146.888C69.4872 146.673 69.1512 146.393 68.8805 146.048C68.6192 145.693 68.4232 145.283 68.2925 144.816C68.1618 144.349 68.0965 143.864 68.0965 143.36C68.0965 142.828 68.1572 142.329 68.2785 141.862C68.3998 141.395 68.5912 140.994 68.8525 140.658C69.1232 140.313 69.4638 140.042 69.8745 139.846C70.2852 139.65 70.7845 139.552 71.3725 139.552C71.6058 139.552 71.8438 139.585 72.0865 139.65C72.3292 139.715 72.5625 139.809 72.7865 139.93C73.0198 140.051 73.2298 140.205 73.4165 140.392C73.6125 140.579 73.7712 140.789 73.8925 141.022H73.9205V139.748ZM76.8231 147V136.92H77.6631V143.192L81.2191 139.748H82.3671L79.6511 142.366L82.6891 147H81.7511L79.0351 142.954L77.6631 144.256V147H76.8231ZM88.6251 143.192C88.2704 143.341 87.9111 143.439 87.5471 143.486C87.1831 143.533 86.8191 143.57 86.4551 143.598C85.8111 143.645 85.3071 143.789 84.9431 144.032C84.5884 144.275 84.4111 144.643 84.4111 145.138C84.4111 145.362 84.4531 145.558 84.5371 145.726C84.6304 145.885 84.7471 146.02 84.8871 146.132C85.0364 146.235 85.2044 146.314 85.3911 146.37C85.5871 146.417 85.7831 146.44 85.9791 146.44C86.3151 146.44 86.6418 146.398 86.9591 146.314C87.2764 146.23 87.5564 146.104 87.7991 145.936C88.0511 145.759 88.2518 145.539 88.4011 145.278C88.5504 145.007 88.6251 144.69 88.6251 144.326V143.192ZM87.2111 142.772C87.3698 142.753 87.5564 142.725 87.7711 142.688C87.9951 142.651 88.1771 142.599 88.3171 142.534C88.4571 142.469 88.5411 142.361 88.5691 142.212C88.6064 142.053 88.6251 141.909 88.6251 141.778C88.6251 141.349 88.4851 140.999 88.2051 140.728C87.9344 140.448 87.4724 140.308 86.8191 140.308C86.5298 140.308 86.2638 140.336 86.0211 140.392C85.7784 140.439 85.5638 140.527 85.3771 140.658C85.1998 140.779 85.0504 140.947 84.9291 141.162C84.8171 141.367 84.7424 141.629 84.7051 141.946H83.8511C83.8791 141.517 83.9771 141.153 84.1451 140.854C84.3131 140.546 84.5278 140.299 84.7891 140.112C85.0598 139.916 85.3678 139.776 85.7131 139.692C86.0678 139.599 86.4411 139.552 86.8331 139.552C87.1971 139.552 87.5378 139.594 87.8551 139.678C88.1818 139.753 88.4618 139.879 88.6951 140.056C88.9378 140.224 89.1244 140.453 89.2551 140.742C89.3951 141.031 89.4651 141.386 89.4651 141.806V145.754C89.4651 146.081 89.5211 146.291 89.6331 146.384C89.7544 146.468 89.9924 146.445 90.3471 146.314V146.972C90.2818 146.991 90.1838 147.019 90.0531 147.056C89.9318 147.093 89.8104 147.112 89.6891 147.112C89.5584 147.112 89.4324 147.098 89.3111 147.07C89.1711 147.051 89.0591 147.009 88.9751 146.944C88.8911 146.869 88.8211 146.785 88.7651 146.692C88.7184 146.589 88.6858 146.482 88.6671 146.37C88.6484 146.249 88.6391 146.123 88.6391 145.992C88.2844 146.384 87.8784 146.683 87.4211 146.888C86.9638 147.093 86.4691 147.196 85.9371 147.196C85.6198 147.196 85.3118 147.154 85.0131 147.07C84.7238 146.986 84.4671 146.855 84.2431 146.678C84.0191 146.501 83.8418 146.286 83.7111 146.034C83.5804 145.773 83.5151 145.465 83.5151 145.11C83.5151 143.878 84.3598 143.15 86.0491 142.926L87.2111 142.772ZM92.4984 147H91.6584V139.748H92.4984V140.756C92.8344 140.401 93.1797 140.112 93.5344 139.888C93.8984 139.664 94.3324 139.552 94.8364 139.552C95.2844 139.552 95.6997 139.631 96.0824 139.79C96.4651 139.939 96.7871 140.205 97.0484 140.588C97.2257 140.849 97.3284 141.12 97.3564 141.4C97.3937 141.671 97.4124 141.955 97.4124 142.254V147H96.5724V142.268C96.5724 141.615 96.4277 141.125 96.1384 140.798C95.8491 140.471 95.3684 140.308 94.6964 140.308C94.4351 140.308 94.1971 140.35 93.9824 140.434C93.7677 140.509 93.5717 140.611 93.3944 140.742C93.2264 140.873 93.0817 141.022 92.9604 141.19C92.8391 141.358 92.7457 141.535 92.6804 141.722C92.5964 141.955 92.5451 142.179 92.5264 142.394C92.5077 142.609 92.4984 142.842 92.4984 143.094V147ZM103.334 147V136.92H104.174V140.756C104.51 140.401 104.856 140.112 105.21 139.888C105.574 139.664 106.008 139.552 106.512 139.552C106.96 139.552 107.376 139.631 107.758 139.79C108.141 139.939 108.463 140.205 108.724 140.588C108.902 140.849 109.004 141.12 109.032 141.4C109.07 141.671 109.088 141.955 109.088 142.254V147H108.248V142.268C108.248 141.615 108.104 141.125 107.814 140.798C107.525 140.471 107.044 140.308 106.372 140.308C106.111 140.308 105.873 140.35 105.658 140.434C105.444 140.509 105.248 140.611 105.07 140.742C104.902 140.873 104.758 141.022 104.636 141.19C104.515 141.358 104.422 141.535 104.356 141.722C104.272 141.955 104.221 142.179 104.202 142.394C104.184 142.609 104.174 142.842 104.174 143.094V147H103.334ZM115.859 143.192C115.505 143.341 115.145 143.439 114.781 143.486C114.417 143.533 114.053 143.57 113.689 143.598C113.045 143.645 112.541 143.789 112.177 144.032C111.823 144.275 111.645 144.643 111.645 145.138C111.645 145.362 111.687 145.558 111.771 145.726C111.865 145.885 111.981 146.02 112.121 146.132C112.271 146.235 112.439 146.314 112.625 146.37C112.821 146.417 113.017 146.44 113.213 146.44C113.549 146.44 113.876 146.398 114.193 146.314C114.511 146.23 114.791 146.104 115.033 145.936C115.285 145.759 115.486 145.539 115.635 145.278C115.785 145.007 115.859 144.69 115.859 144.326V143.192ZM114.445 142.772C114.604 142.753 114.791 142.725 115.005 142.688C115.229 142.651 115.411 142.599 115.551 142.534C115.691 142.469 115.775 142.361 115.803 142.212C115.841 142.053 115.859 141.909 115.859 141.778C115.859 141.349 115.719 140.999 115.439 140.728C115.169 140.448 114.707 140.308 114.053 140.308C113.764 140.308 113.498 140.336 113.255 140.392C113.013 140.439 112.798 140.527 112.611 140.658C112.434 140.779 112.285 140.947 112.163 141.162C112.051 141.367 111.977 141.629 111.939 141.946H111.085C111.113 141.517 111.211 141.153 111.379 140.854C111.547 140.546 111.762 140.299 112.023 140.112C112.294 139.916 112.602 139.776 112.947 139.692C113.302 139.599 113.675 139.552 114.067 139.552C114.431 139.552 114.772 139.594 115.089 139.678C115.416 139.753 115.696 139.879 115.929 140.056C116.172 140.224 116.359 140.453 116.489 140.742C116.629 141.031 116.699 141.386 116.699 141.806V145.754C116.699 146.081 116.755 146.291 116.867 146.384C116.989 146.468 117.227 146.445 117.581 146.314V146.972C117.516 146.991 117.418 147.019 117.287 147.056C117.166 147.093 117.045 147.112 116.923 147.112C116.793 147.112 116.667 147.098 116.545 147.07C116.405 147.051 116.293 147.009 116.209 146.944C116.125 146.869 116.055 146.785 115.999 146.692C115.953 146.589 115.92 146.482 115.901 146.37C115.883 146.249 115.873 146.123 115.873 145.992C115.519 146.384 115.113 146.683 114.655 146.888C114.198 147.093 113.703 147.196 113.171 147.196C112.854 147.196 112.546 147.154 112.247 147.07C111.958 146.986 111.701 146.855 111.477 146.678C111.253 146.501 111.076 146.286 110.945 146.034C110.815 145.773 110.749 145.465 110.749 145.11C110.749 143.878 111.594 143.15 113.283 142.926L114.445 142.772ZM119.775 147H118.935V139.748H119.775V141.106H119.803C120.036 140.527 120.335 140.126 120.699 139.902C121.072 139.669 121.562 139.552 122.169 139.552V140.462C121.693 140.453 121.301 140.527 120.993 140.686C120.685 140.845 120.437 141.059 120.251 141.33C120.073 141.601 119.947 141.923 119.873 142.296C119.807 142.66 119.775 143.043 119.775 143.444V147ZM129.155 143.402C129.155 142.963 129.099 142.557 128.987 142.184C128.884 141.801 128.73 141.475 128.525 141.204C128.32 140.924 128.063 140.705 127.755 140.546C127.447 140.387 127.097 140.308 126.705 140.308C126.35 140.308 126.024 140.373 125.725 140.504C125.426 140.625 125.165 140.807 124.941 141.05C124.717 141.293 124.54 141.591 124.409 141.946C124.288 142.291 124.227 142.693 124.227 143.15C124.208 143.607 124.246 144.037 124.339 144.438C124.432 144.83 124.582 145.175 124.787 145.474C124.992 145.773 125.254 146.011 125.571 146.188C125.888 146.356 126.266 146.44 126.705 146.44C127.088 146.44 127.428 146.361 127.727 146.202C128.035 146.034 128.292 145.815 128.497 145.544C128.712 145.264 128.875 144.942 128.987 144.578C129.099 144.205 129.155 143.813 129.155 143.402ZM129.155 139.748H129.995V146.3C129.995 146.785 129.944 147.247 129.841 147.686C129.748 148.134 129.575 148.526 129.323 148.862C129.071 149.198 128.726 149.464 128.287 149.66C127.848 149.865 127.284 149.968 126.593 149.968C126.061 149.968 125.604 149.898 125.221 149.758C124.838 149.627 124.526 149.459 124.283 149.254C124.04 149.049 123.854 148.82 123.723 148.568C123.602 148.325 123.536 148.097 123.527 147.882H124.423C124.488 148.153 124.591 148.372 124.731 148.54C124.871 148.717 125.034 148.853 125.221 148.946C125.417 149.049 125.632 149.119 125.865 149.156C126.098 149.193 126.341 149.212 126.593 149.212C127.162 149.212 127.62 149.114 127.965 148.918C128.31 148.722 128.572 148.465 128.749 148.148C128.926 147.831 129.038 147.471 129.085 147.07C129.141 146.669 129.164 146.258 129.155 145.838C128.884 146.286 128.511 146.627 128.035 146.86C127.568 147.084 127.078 147.196 126.565 147.196C126.014 147.196 125.534 147.093 125.123 146.888C124.722 146.673 124.386 146.393 124.115 146.048C123.854 145.693 123.658 145.283 123.527 144.816C123.396 144.349 123.331 143.864 123.331 143.36C123.331 142.828 123.392 142.329 123.513 141.862C123.634 141.395 123.826 140.994 124.087 140.658C124.358 140.313 124.698 140.042 125.109 139.846C125.52 139.65 126.019 139.552 126.607 139.552C126.84 139.552 127.078 139.585 127.321 139.65C127.564 139.715 127.797 139.809 128.021 139.93C128.254 140.051 128.464 140.205 128.651 140.392C128.847 140.579 129.006 140.789 129.127 141.022H129.155V139.748ZM136.859 143.192C136.505 143.341 136.145 143.439 135.781 143.486C135.417 143.533 135.053 143.57 134.689 143.598C134.045 143.645 133.541 143.789 133.177 144.032C132.823 144.275 132.645 144.643 132.645 145.138C132.645 145.362 132.687 145.558 132.771 145.726C132.865 145.885 132.981 146.02 133.121 146.132C133.271 146.235 133.439 146.314 133.625 146.37C133.821 146.417 134.017 146.44 134.213 146.44C134.549 146.44 134.876 146.398 135.193 146.314C135.511 146.23 135.791 146.104 136.033 145.936C136.285 145.759 136.486 145.539 136.635 145.278C136.785 145.007 136.859 144.69 136.859 144.326V143.192ZM135.445 142.772C135.604 142.753 135.791 142.725 136.005 142.688C136.229 142.651 136.411 142.599 136.551 142.534C136.691 142.469 136.775 142.361 136.803 142.212C136.841 142.053 136.859 141.909 136.859 141.778C136.859 141.349 136.719 140.999 136.439 140.728C136.169 140.448 135.707 140.308 135.053 140.308C134.764 140.308 134.498 140.336 134.255 140.392C134.013 140.439 133.798 140.527 133.611 140.658C133.434 140.779 133.285 140.947 133.163 141.162C133.051 141.367 132.977 141.629 132.939 141.946H132.085C132.113 141.517 132.211 141.153 132.379 140.854C132.547 140.546 132.762 140.299 133.023 140.112C133.294 139.916 133.602 139.776 133.947 139.692C134.302 139.599 134.675 139.552 135.067 139.552C135.431 139.552 135.772 139.594 136.089 139.678C136.416 139.753 136.696 139.879 136.929 140.056C137.172 140.224 137.359 140.453 137.489 140.742C137.629 141.031 137.699 141.386 137.699 141.806V145.754C137.699 146.081 137.755 146.291 137.867 146.384C137.989 146.468 138.227 146.445 138.581 146.314V146.972C138.516 146.991 138.418 147.019 138.287 147.056C138.166 147.093 138.045 147.112 137.923 147.112C137.793 147.112 137.667 147.098 137.545 147.07C137.405 147.051 137.293 147.009 137.209 146.944C137.125 146.869 137.055 146.785 136.999 146.692C136.953 146.589 136.92 146.482 136.901 146.37C136.883 146.249 136.873 146.123 136.873 145.992C136.519 146.384 136.113 146.683 135.655 146.888C135.198 147.093 134.703 147.196 134.171 147.196C133.854 147.196 133.546 147.154 133.247 147.07C132.958 146.986 132.701 146.855 132.477 146.678C132.253 146.501 132.076 146.286 131.945 146.034C131.815 145.773 131.749 145.465 131.749 145.11C131.749 143.878 132.594 143.15 134.283 142.926L135.445 142.772ZM143.733 147V136.92H144.573V143.192L148.129 139.748H149.277L146.561 142.366L149.599 147H148.661L145.945 142.954L144.573 144.256V147H143.733ZM155.535 143.192C155.181 143.341 154.821 143.439 154.457 143.486C154.093 143.533 153.729 143.57 153.365 143.598C152.721 143.645 152.217 143.789 151.853 144.032C151.499 144.275 151.321 144.643 151.321 145.138C151.321 145.362 151.363 145.558 151.447 145.726C151.541 145.885 151.657 146.02 151.797 146.132C151.947 146.235 152.115 146.314 152.301 146.37C152.497 146.417 152.693 146.44 152.889 146.44C153.225 146.44 153.552 146.398 153.869 146.314C154.187 146.23 154.467 146.104 154.709 145.936C154.961 145.759 155.162 145.539 155.311 145.278C155.461 145.007 155.535 144.69 155.535 144.326V143.192ZM154.121 142.772C154.28 142.753 154.467 142.725 154.681 142.688C154.905 142.651 155.087 142.599 155.227 142.534C155.367 142.469 155.451 142.361 155.479 142.212C155.517 142.053 155.535 141.909 155.535 141.778C155.535 141.349 155.395 140.999 155.115 140.728C154.845 140.448 154.383 140.308 153.729 140.308C153.44 140.308 153.174 140.336 152.931 140.392C152.689 140.439 152.474 140.527 152.287 140.658C152.11 140.779 151.961 140.947 151.839 141.162C151.727 141.367 151.653 141.629 151.615 141.946H150.761C150.789 141.517 150.887 141.153 151.055 140.854C151.223 140.546 151.438 140.299 151.699 140.112C151.97 139.916 152.278 139.776 152.623 139.692C152.978 139.599 153.351 139.552 153.743 139.552C154.107 139.552 154.448 139.594 154.765 139.678C155.092 139.753 155.372 139.879 155.605 140.056C155.848 140.224 156.035 140.453 156.165 140.742C156.305 141.031 156.375 141.386 156.375 141.806V145.754C156.375 146.081 156.431 146.291 156.543 146.384C156.665 146.468 156.903 146.445 157.257 146.314V146.972C157.192 146.991 157.094 147.019 156.963 147.056C156.842 147.093 156.721 147.112 156.599 147.112C156.469 147.112 156.343 147.098 156.221 147.07C156.081 147.051 155.969 147.009 155.885 146.944C155.801 146.869 155.731 146.785 155.675 146.692C155.629 146.589 155.596 146.482 155.577 146.37C155.559 146.249 155.549 146.123 155.549 145.992C155.195 146.384 154.789 146.683 154.331 146.888C153.874 147.093 153.379 147.196 152.847 147.196C152.53 147.196 152.222 147.154 151.923 147.07C151.634 146.986 151.377 146.855 151.153 146.678C150.929 146.501 150.752 146.286 150.621 146.034C150.491 145.773 150.425 145.465 150.425 145.11C150.425 143.878 151.27 143.15 152.959 142.926L154.121 142.772ZM159.297 147H158.457V139.748H159.297V140.84H159.325C159.539 140.42 159.847 140.103 160.249 139.888C160.65 139.664 161.089 139.552 161.565 139.552C161.901 139.552 162.185 139.589 162.419 139.664C162.652 139.739 162.848 139.841 163.007 139.972C163.175 140.093 163.31 140.238 163.413 140.406C163.525 140.574 163.618 140.756 163.693 140.952C163.935 140.476 164.257 140.126 164.659 139.902C165.069 139.669 165.536 139.552 166.059 139.552C166.553 139.552 166.945 139.636 167.235 139.804C167.533 139.963 167.762 140.177 167.921 140.448C168.079 140.709 168.182 141.013 168.229 141.358C168.285 141.703 168.313 142.058 168.313 142.422V147H167.473V141.988C167.473 141.465 167.361 141.055 167.137 140.756C166.922 140.457 166.516 140.308 165.919 140.308C165.611 140.308 165.312 140.378 165.023 140.518C164.743 140.649 164.495 140.854 164.281 141.134C164.187 141.255 164.108 141.4 164.043 141.568C163.987 141.727 163.94 141.895 163.903 142.072C163.865 142.249 163.837 142.427 163.819 142.604C163.809 142.781 163.805 142.945 163.805 143.094V147H162.965V141.988C162.965 141.465 162.853 141.055 162.629 140.756C162.414 140.457 162.008 140.308 161.411 140.308C161.103 140.308 160.804 140.378 160.515 140.518C160.235 140.649 159.987 140.854 159.773 141.134C159.679 141.255 159.6 141.4 159.535 141.568C159.479 141.727 159.432 141.895 159.395 142.072C159.357 142.249 159.329 142.427 159.311 142.604C159.301 142.781 159.297 142.945 159.297 143.094V147ZM170.111 147V139.748H170.951V147H170.111ZM170.069 138.166V136.92H170.993V138.166H170.069ZM182.585 143.346C182.585 142.935 182.529 142.548 182.417 142.184C182.305 141.811 182.141 141.489 181.927 141.218C181.721 140.938 181.465 140.719 181.157 140.56C180.858 140.392 180.517 140.308 180.135 140.308C179.696 140.308 179.318 140.397 179.001 140.574C178.683 140.742 178.422 140.975 178.217 141.274C178.011 141.573 177.862 141.923 177.769 142.324C177.675 142.716 177.638 143.141 177.657 143.598C177.657 144.055 177.717 144.461 177.839 144.816C177.969 145.161 178.147 145.455 178.371 145.698C178.595 145.941 178.856 146.127 179.155 146.258C179.453 146.379 179.78 146.44 180.135 146.44C180.527 146.44 180.877 146.361 181.185 146.202C181.493 146.043 181.749 145.829 181.955 145.558C182.16 145.278 182.314 144.951 182.417 144.578C182.529 144.195 182.585 143.785 182.585 143.346ZM182.585 136.92H183.425V147H182.585V145.726H182.557C182.435 145.969 182.277 146.183 182.081 146.37C181.894 146.547 181.684 146.697 181.451 146.818C181.227 146.939 180.993 147.033 180.751 147.098C180.508 147.163 180.27 147.196 180.037 147.196C179.449 147.196 178.949 147.098 178.539 146.902C178.128 146.706 177.787 146.44 177.517 146.104C177.255 145.759 177.064 145.353 176.943 144.886C176.821 144.419 176.761 143.92 176.761 143.388C176.761 142.884 176.826 142.399 176.957 141.932C177.087 141.465 177.283 141.059 177.545 140.714C177.815 140.359 178.151 140.079 178.553 139.874C178.963 139.659 179.444 139.552 179.995 139.552C180.508 139.552 180.998 139.669 181.465 139.902C181.941 140.126 182.314 140.462 182.585 140.91V136.92ZM190.793 142.87C190.793 142.515 190.742 142.184 190.639 141.876C190.546 141.559 190.401 141.288 190.205 141.064C190.018 140.831 189.78 140.649 189.491 140.518C189.202 140.378 188.87 140.308 188.497 140.308C188.124 140.308 187.792 140.378 187.503 140.518C187.223 140.658 186.98 140.845 186.775 141.078C186.579 141.311 186.42 141.582 186.299 141.89C186.178 142.198 186.098 142.525 186.061 142.87H190.793ZM186.061 143.57C186.061 143.962 186.112 144.335 186.215 144.69C186.318 145.035 186.467 145.339 186.663 145.6C186.868 145.852 187.125 146.057 187.433 146.216C187.741 146.365 188.096 146.44 188.497 146.44C189.048 146.44 189.519 146.295 189.911 146.006C190.303 145.717 190.564 145.306 190.695 144.774H191.633C191.53 145.119 191.395 145.441 191.227 145.74C191.059 146.029 190.849 146.286 190.597 146.51C190.345 146.725 190.046 146.893 189.701 147.014C189.356 147.135 188.954 147.196 188.497 147.196C187.918 147.196 187.419 147.098 186.999 146.902C186.579 146.706 186.234 146.44 185.963 146.104C185.692 145.759 185.492 145.357 185.361 144.9C185.23 144.433 185.165 143.934 185.165 143.402C185.165 142.87 185.24 142.371 185.389 141.904C185.548 141.437 185.767 141.031 186.047 140.686C186.336 140.331 186.686 140.056 187.097 139.86C187.508 139.655 187.974 139.552 188.497 139.552C189.496 139.552 190.28 139.897 190.849 140.588C191.418 141.269 191.698 142.263 191.689 143.57H186.061ZM194.162 147H193.322V139.748H194.162V140.756C194.498 140.401 194.844 140.112 195.198 139.888C195.562 139.664 195.996 139.552 196.5 139.552C196.948 139.552 197.364 139.631 197.746 139.79C198.129 139.939 198.451 140.205 198.712 140.588C198.89 140.849 198.992 141.12 199.02 141.4C199.058 141.671 199.076 141.955 199.076 142.254V147H198.236V142.268C198.236 141.615 198.092 141.125 197.802 140.798C197.513 140.471 197.032 140.308 196.36 140.308C196.099 140.308 195.861 140.35 195.646 140.434C195.432 140.509 195.236 140.611 195.058 140.742C194.89 140.873 194.746 141.022 194.624 141.19C194.503 141.358 194.41 141.535 194.344 141.722C194.26 141.955 194.209 142.179 194.19 142.394C194.172 142.609 194.162 142.842 194.162 143.094V147ZM206.702 143.402C206.702 142.963 206.646 142.557 206.534 142.184C206.431 141.801 206.277 141.475 206.072 141.204C205.866 140.924 205.61 140.705 205.302 140.546C204.994 140.387 204.644 140.308 204.252 140.308C203.897 140.308 203.57 140.373 203.272 140.504C202.973 140.625 202.712 140.807 202.488 141.05C202.264 141.293 202.086 141.591 201.956 141.946C201.834 142.291 201.774 142.693 201.774 143.15C201.755 143.607 201.792 144.037 201.886 144.438C201.979 144.83 202.128 145.175 202.334 145.474C202.539 145.773 202.8 146.011 203.118 146.188C203.435 146.356 203.813 146.44 204.252 146.44C204.634 146.44 204.975 146.361 205.274 146.202C205.582 146.034 205.838 145.815 206.044 145.544C206.258 145.264 206.422 144.942 206.534 144.578C206.646 144.205 206.702 143.813 206.702 143.402ZM206.702 139.748H207.542V146.3C207.542 146.785 207.49 147.247 207.388 147.686C207.294 148.134 207.122 148.526 206.87 148.862C206.618 149.198 206.272 149.464 205.834 149.66C205.395 149.865 204.83 149.968 204.14 149.968C203.608 149.968 203.15 149.898 202.768 149.758C202.385 149.627 202.072 149.459 201.83 149.254C201.587 149.049 201.4 148.82 201.27 148.568C201.148 148.325 201.083 148.097 201.074 147.882H201.97C202.035 148.153 202.138 148.372 202.278 148.54C202.418 148.717 202.581 148.853 202.768 148.946C202.964 149.049 203.178 149.119 203.412 149.156C203.645 149.193 203.888 149.212 204.14 149.212C204.709 149.212 205.166 149.114 205.512 148.918C205.857 148.722 206.118 148.465 206.296 148.148C206.473 147.831 206.585 147.471 206.632 147.07C206.688 146.669 206.711 146.258 206.702 145.838C206.431 146.286 206.058 146.627 205.582 146.86C205.115 147.084 204.625 147.196 204.112 147.196C203.561 147.196 203.08 147.093 202.67 146.888C202.268 146.673 201.932 146.393 201.662 146.048C201.4 145.693 201.204 145.283 201.074 144.816C200.943 144.349 200.878 143.864 200.878 143.36C200.878 142.828 200.938 142.329 201.06 141.862C201.181 141.395 201.372 140.994 201.634 140.658C201.904 140.313 202.245 140.042 202.656 139.846C203.066 139.65 203.566 139.552 204.154 139.552C204.387 139.552 204.625 139.585 204.868 139.65C205.11 139.715 205.344 139.809 205.568 139.93C205.801 140.051 206.011 140.205 206.198 140.392C206.394 140.579 206.552 140.789 206.674 141.022H206.702V139.748ZM214.406 143.192C214.052 143.341 213.692 143.439 213.328 143.486C212.964 143.533 212.6 143.57 212.236 143.598C211.592 143.645 211.088 143.789 210.724 144.032C210.37 144.275 210.192 144.643 210.192 145.138C210.192 145.362 210.234 145.558 210.318 145.726C210.412 145.885 210.528 146.02 210.668 146.132C210.818 146.235 210.986 146.314 211.172 146.37C211.368 146.417 211.564 146.44 211.76 146.44C212.096 146.44 212.423 146.398 212.74 146.314C213.058 146.23 213.338 146.104 213.58 145.936C213.832 145.759 214.033 145.539 214.182 145.278C214.332 145.007 214.406 144.69 214.406 144.326V143.192ZM212.992 142.772C213.151 142.753 213.338 142.725 213.552 142.688C213.776 142.651 213.958 142.599 214.098 142.534C214.238 142.469 214.322 142.361 214.35 142.212C214.388 142.053 214.406 141.909 214.406 141.778C214.406 141.349 214.266 140.999 213.986 140.728C213.716 140.448 213.254 140.308 212.6 140.308C212.311 140.308 212.045 140.336 211.802 140.392C211.56 140.439 211.345 140.527 211.158 140.658C210.981 140.779 210.832 140.947 210.71 141.162C210.598 141.367 210.524 141.629 210.486 141.946H209.632C209.66 141.517 209.758 141.153 209.926 140.854C210.094 140.546 210.309 140.299 210.57 140.112C210.841 139.916 211.149 139.776 211.494 139.692C211.849 139.599 212.222 139.552 212.614 139.552C212.978 139.552 213.319 139.594 213.636 139.678C213.963 139.753 214.243 139.879 214.476 140.056C214.719 140.224 214.906 140.453 215.036 140.742C215.176 141.031 215.246 141.386 215.246 141.806V145.754C215.246 146.081 215.302 146.291 215.414 146.384C215.536 146.468 215.774 146.445 216.128 146.314V146.972C216.063 146.991 215.965 147.019 215.834 147.056C215.713 147.093 215.592 147.112 215.47 147.112C215.34 147.112 215.214 147.098 215.092 147.07C214.952 147.051 214.84 147.009 214.756 146.944C214.672 146.869 214.602 146.785 214.546 146.692C214.5 146.589 214.467 146.482 214.448 146.37C214.43 146.249 214.42 146.123 214.42 145.992C214.066 146.384 213.66 146.683 213.202 146.888C212.745 147.093 212.25 147.196 211.718 147.196C211.401 147.196 211.093 147.154 210.794 147.07C210.505 146.986 210.248 146.855 210.024 146.678C209.8 146.501 209.623 146.286 209.492 146.034C209.362 145.773 209.296 145.465 209.296 145.11C209.296 143.878 210.141 143.15 211.83 142.926L212.992 142.772ZM218.28 147H217.44V139.748H218.28V140.756C218.616 140.401 218.961 140.112 219.316 139.888C219.68 139.664 220.114 139.552 220.618 139.552C221.066 139.552 221.481 139.631 221.864 139.79C222.246 139.939 222.568 140.205 222.83 140.588C223.007 140.849 223.11 141.12 223.138 141.4C223.175 141.671 223.194 141.955 223.194 142.254V147H222.354V142.268C222.354 141.615 222.209 141.125 221.92 140.798C221.63 140.471 221.15 140.308 220.478 140.308C220.216 140.308 219.978 140.35 219.764 140.434C219.549 140.509 219.353 140.611 219.176 140.742C219.008 140.873 218.863 141.022 218.742 141.19C218.62 141.358 218.527 141.535 218.462 141.722C218.378 141.955 218.326 142.179 218.308 142.394C218.289 142.609 218.28 142.842 218.28 143.094V147ZM25.89 167H25.05V159.748H25.89V161.106H25.918C26.1513 160.527 26.45 160.126 26.814 159.902C27.1873 159.669 27.6773 159.552 28.284 159.552V160.462C27.808 160.453 27.416 160.527 27.108 160.686C26.8 160.845 26.5527 161.059 26.366 161.33C26.1887 161.601 26.0627 161.923 25.988 162.296C25.9227 162.66 25.89 163.043 25.89 163.444V167ZM34.674 162.87C34.674 162.515 34.6227 162.184 34.52 161.876C34.4267 161.559 34.282 161.288 34.086 161.064C33.8993 160.831 33.6613 160.649 33.372 160.518C33.0827 160.378 32.7513 160.308 32.378 160.308C32.0047 160.308 31.6733 160.378 31.384 160.518C31.104 160.658 30.8613 160.845 30.656 161.078C30.46 161.311 30.3013 161.582 30.18 161.89C30.0587 162.198 29.9793 162.525 29.942 162.87H34.674ZM29.942 163.57C29.942 163.962 29.9933 164.335 30.096 164.69C30.1987 165.035 30.348 165.339 30.544 165.6C30.7493 165.852 31.006 166.057 31.314 166.216C31.622 166.365 31.9767 166.44 32.378 166.44C32.9287 166.44 33.4 166.295 33.792 166.006C34.184 165.717 34.4453 165.306 34.576 164.774H35.514C35.4113 165.119 35.276 165.441 35.108 165.74C34.94 166.029 34.73 166.286 34.478 166.51C34.226 166.725 33.9273 166.893 33.582 167.014C33.2367 167.135 32.8353 167.196 32.378 167.196C31.7993 167.196 31.3 167.098 30.88 166.902C30.46 166.706 30.1147 166.44 29.844 166.104C29.5733 165.759 29.3727 165.357 29.242 164.9C29.1113 164.433 29.046 163.934 29.046 163.402C29.046 162.87 29.1207 162.371 29.27 161.904C29.4287 161.437 29.648 161.031 29.928 160.686C30.2173 160.331 30.5673 160.056 30.978 159.86C31.3887 159.655 31.8553 159.552 32.378 159.552C33.3767 159.552 34.1607 159.897 34.73 160.588C35.2993 161.269 35.5793 162.263 35.57 163.57H29.942ZM38.0433 167H37.2033V159.748H38.0433V160.756C38.3793 160.401 38.7246 160.112 39.0793 159.888C39.4433 159.664 39.8773 159.552 40.3813 159.552C40.8293 159.552 41.2446 159.631 41.6273 159.79C42.01 159.939 42.332 160.205 42.5933 160.588C42.7706 160.849 42.8733 161.12 42.9013 161.4C42.9386 161.671 42.9573 161.955 42.9573 162.254V167H42.1173V162.268C42.1173 161.615 41.9726 161.125 41.6833 160.798C41.394 160.471 40.9133 160.308 40.2413 160.308C39.98 160.308 39.742 160.35 39.5273 160.434C39.3126 160.509 39.1166 160.611 38.9393 160.742C38.7713 160.873 38.6266 161.022 38.5053 161.19C38.384 161.358 38.2906 161.535 38.2253 161.722C38.1413 161.955 38.09 162.179 38.0713 162.394C38.0526 162.609 38.0433 162.842 38.0433 163.094V167ZM47.5306 167.028C47.4279 167.047 47.2926 167.079 47.1246 167.126C46.9566 167.173 46.7699 167.196 46.5646 167.196C46.1446 167.196 45.8226 167.093 45.5986 166.888C45.3839 166.673 45.2766 166.295 45.2766 165.754V160.448H44.2546V159.748H45.2766V157.732H46.1166V159.748H47.4746V160.448H46.1166V165.418C46.1166 165.595 46.1213 165.749 46.1306 165.88C46.1399 166.011 46.1679 166.118 46.2146 166.202C46.2613 166.286 46.3313 166.347 46.4246 166.384C46.5273 166.421 46.6673 166.44 46.8446 166.44C46.9566 166.44 47.0686 166.431 47.1806 166.412C47.3019 166.393 47.4186 166.37 47.5306 166.342V167.028ZM53.6251 163.192C53.2704 163.341 52.9111 163.439 52.5471 163.486C52.1831 163.533 51.8191 163.57 51.4551 163.598C50.8111 163.645 50.3071 163.789 49.9431 164.032C49.5884 164.275 49.4111 164.643 49.4111 165.138C49.4111 165.362 49.4531 165.558 49.5371 165.726C49.6304 165.885 49.7471 166.02 49.8871 166.132C50.0364 166.235 50.2044 166.314 50.3911 166.37C50.5871 166.417 50.7831 166.44 50.9791 166.44C51.3151 166.44 51.6418 166.398 51.9591 166.314C52.2764 166.23 52.5564 166.104 52.7991 165.936C53.0511 165.759 53.2518 165.539 53.4011 165.278C53.5504 165.007 53.6251 164.69 53.6251 164.326V163.192ZM52.2111 162.772C52.3698 162.753 52.5564 162.725 52.7711 162.688C52.9951 162.651 53.1771 162.599 53.3171 162.534C53.4571 162.469 53.5411 162.361 53.5691 162.212C53.6064 162.053 53.6251 161.909 53.6251 161.778C53.6251 161.349 53.4851 160.999 53.2051 160.728C52.9344 160.448 52.4724 160.308 51.8191 160.308C51.5298 160.308 51.2638 160.336 51.0211 160.392C50.7784 160.439 50.5638 160.527 50.3771 160.658C50.1998 160.779 50.0504 160.947 49.9291 161.162C49.8171 161.367 49.7424 161.629 49.7051 161.946H48.8511C48.8791 161.517 48.9771 161.153 49.1451 160.854C49.3131 160.546 49.5278 160.299 49.7891 160.112C50.0598 159.916 50.3678 159.776 50.7131 159.692C51.0678 159.599 51.4411 159.552 51.8331 159.552C52.1971 159.552 52.5378 159.594 52.8551 159.678C53.1818 159.753 53.4618 159.879 53.6951 160.056C53.9378 160.224 54.1244 160.453 54.2551 160.742C54.3951 161.031 54.4651 161.386 54.4651 161.806V165.754C54.4651 166.081 54.5211 166.291 54.6331 166.384C54.7544 166.468 54.9924 166.445 55.3471 166.314V166.972C55.2818 166.991 55.1838 167.019 55.0531 167.056C54.9318 167.093 54.8104 167.112 54.6891 167.112C54.5584 167.112 54.4324 167.098 54.3111 167.07C54.1711 167.051 54.0591 167.009 53.9751 166.944C53.8911 166.869 53.8211 166.785 53.7651 166.692C53.7184 166.589 53.6858 166.482 53.6671 166.37C53.6484 166.249 53.6391 166.123 53.6391 165.992C53.2844 166.384 52.8784 166.683 52.4211 166.888C51.9638 167.093 51.4691 167.196 50.9371 167.196C50.6198 167.196 50.3118 167.154 50.0131 167.07C49.7238 166.986 49.4671 166.855 49.2431 166.678C49.0191 166.501 48.8418 166.286 48.7111 166.034C48.5804 165.773 48.5151 165.465 48.5151 165.11C48.5151 163.878 49.3598 163.15 51.0491 162.926L52.2111 162.772ZM56.7844 167V156.92H57.6244V167H56.7844ZM64.3864 167H63.5464V159.748H64.3864V160.84H64.4144C64.6291 160.42 64.9371 160.103 65.3384 159.888C65.7397 159.664 66.1784 159.552 66.6544 159.552C66.9904 159.552 67.2751 159.589 67.5084 159.664C67.7417 159.739 67.9377 159.841 68.0964 159.972C68.2644 160.093 68.3997 160.238 68.5024 160.406C68.6144 160.574 68.7077 160.756 68.7824 160.952C69.0251 160.476 69.3471 160.126 69.7484 159.902C70.1591 159.669 70.6257 159.552 71.1484 159.552C71.6431 159.552 72.0351 159.636 72.3244 159.804C72.6231 159.963 72.8517 160.177 73.0104 160.448C73.1691 160.709 73.2717 161.013 73.3184 161.358C73.3744 161.703 73.4024 162.058 73.4024 162.422V167H72.5624V161.988C72.5624 161.465 72.4504 161.055 72.2264 160.756C72.0117 160.457 71.6057 160.308 71.0084 160.308C70.7004 160.308 70.4017 160.378 70.1124 160.518C69.8324 160.649 69.5851 160.854 69.3704 161.134C69.2771 161.255 69.1977 161.4 69.1324 161.568C69.0764 161.727 69.0297 161.895 68.9924 162.072C68.9551 162.249 68.9271 162.427 68.9084 162.604C68.8991 162.781 68.8944 162.945 68.8944 163.094V167H68.0544V161.988C68.0544 161.465 67.9424 161.055 67.7184 160.756C67.5037 160.457 67.0977 160.308 66.5004 160.308C66.1924 160.308 65.8937 160.378 65.6044 160.518C65.3244 160.649 65.0771 160.854 64.8624 161.134C64.7691 161.255 64.6897 161.4 64.6244 161.568C64.5684 161.727 64.5217 161.895 64.4844 162.072C64.4471 162.249 64.4191 162.427 64.4004 162.604C64.3911 162.781 64.3864 162.945 64.3864 163.094V167ZM78.2045 167.196C77.7378 167.187 77.2992 167.103 76.8885 166.944C76.4872 166.785 76.1325 166.547 75.8245 166.23C75.5258 165.913 75.2878 165.516 75.1105 165.04C74.9332 164.564 74.8445 164.009 74.8445 163.374C74.8445 162.842 74.9145 162.347 75.0545 161.89C75.1945 161.423 75.4045 161.017 75.6845 160.672C75.9645 160.327 76.3145 160.056 76.7345 159.86C77.1545 159.655 77.6445 159.552 78.2045 159.552C78.7738 159.552 79.2685 159.655 79.6885 159.86C80.1085 160.056 80.4585 160.327 80.7385 160.672C81.0185 161.008 81.2238 161.409 81.3545 161.876C81.4945 162.343 81.5645 162.842 81.5645 163.374C81.5645 163.953 81.4852 164.475 81.3265 164.942C81.1678 165.409 80.9392 165.81 80.6405 166.146C80.3512 166.482 79.9965 166.743 79.5765 166.93C79.1658 167.107 78.7085 167.196 78.2045 167.196ZM80.6685 163.374C80.6685 162.945 80.6218 162.543 80.5285 162.17C80.4352 161.797 80.2905 161.475 80.0945 161.204C79.8985 160.924 79.6465 160.705 79.3385 160.546C79.0305 160.387 78.6525 160.308 78.2045 160.308C77.7658 160.308 77.3878 160.397 77.0705 160.574C76.7625 160.742 76.5105 160.971 76.3145 161.26C76.1185 161.54 75.9738 161.867 75.8805 162.24C75.7872 162.604 75.7405 162.982 75.7405 163.374C75.7405 163.822 75.7918 164.237 75.8945 164.62C76.0065 164.993 76.1652 165.315 76.3705 165.586C76.5758 165.857 76.8325 166.067 77.1405 166.216C77.4485 166.365 77.8032 166.44 78.2045 166.44C78.6432 166.44 79.0165 166.356 79.3245 166.188C79.6418 166.011 79.8985 165.777 80.0945 165.488C80.2905 165.199 80.4352 164.872 80.5285 164.508C80.6218 164.144 80.6685 163.766 80.6685 163.374ZM84.0378 163.346C84.0378 163.785 84.0891 164.195 84.1918 164.578C84.3038 164.951 84.4625 165.278 84.6678 165.558C84.8731 165.829 85.1298 166.043 85.4378 166.202C85.7458 166.361 86.0958 166.44 86.4878 166.44C86.8425 166.44 87.1691 166.379 87.4678 166.258C87.7665 166.127 88.0278 165.941 88.2518 165.698C88.4758 165.455 88.6485 165.161 88.7698 164.816C88.9005 164.461 88.9658 164.055 88.9658 163.598C88.9845 163.141 88.9471 162.716 88.8538 162.324C88.7605 161.923 88.6111 161.573 88.4058 161.274C88.2005 160.975 87.9345 160.742 87.6078 160.574C87.2905 160.397 86.9171 160.308 86.4878 160.308C86.1051 160.308 85.7598 160.392 85.4518 160.56C85.1531 160.719 84.8965 160.938 84.6818 161.218C84.4765 161.489 84.3178 161.811 84.2058 162.184C84.0938 162.548 84.0378 162.935 84.0378 163.346ZM84.0378 167H83.1978V156.92H84.0378V160.91C84.3085 160.462 84.6771 160.126 85.1438 159.902C85.6198 159.669 86.1145 159.552 86.6278 159.552C87.1785 159.552 87.6545 159.659 88.0558 159.874C88.4665 160.079 88.8025 160.359 89.0638 160.714C89.3345 161.059 89.5351 161.465 89.6658 161.932C89.7965 162.399 89.8618 162.884 89.8618 163.388C89.8618 163.92 89.8011 164.419 89.6798 164.886C89.5585 165.353 89.3625 165.759 89.0918 166.104C88.8305 166.44 88.4945 166.706 88.0838 166.902C87.6731 167.098 87.1738 167.196 86.5858 167.196C86.3525 167.196 86.1145 167.163 85.8718 167.098C85.6291 167.033 85.3911 166.939 85.1578 166.818C84.9338 166.697 84.7238 166.547 84.5278 166.37C84.3411 166.183 84.1871 165.969 84.0658 165.726H84.0378V167ZM91.5383 167V159.748H92.3783V167H91.5383ZM91.4963 158.166V156.92H92.4203V158.166H91.4963ZM94.6418 167V156.92H95.4818V167H94.6418ZM101.642 167V156.92H102.482V167H101.642ZM109.365 163.192C109.011 163.341 108.651 163.439 108.287 163.486C107.923 163.533 107.559 163.57 107.195 163.598C106.551 163.645 106.047 163.789 105.683 164.032C105.329 164.275 105.151 164.643 105.151 165.138C105.151 165.362 105.193 165.558 105.277 165.726C105.371 165.885 105.487 166.02 105.627 166.132C105.777 166.235 105.945 166.314 106.131 166.37C106.327 166.417 106.523 166.44 106.719 166.44C107.055 166.44 107.382 166.398 107.699 166.314C108.017 166.23 108.297 166.104 108.539 165.936C108.791 165.759 108.992 165.539 109.141 165.278C109.291 165.007 109.365 164.69 109.365 164.326V163.192ZM107.951 162.772C108.11 162.753 108.297 162.725 108.511 162.688C108.735 162.651 108.917 162.599 109.057 162.534C109.197 162.469 109.281 162.361 109.309 162.212C109.347 162.053 109.365 161.909 109.365 161.778C109.365 161.349 109.225 160.999 108.945 160.728C108.675 160.448 108.213 160.308 107.559 160.308C107.27 160.308 107.004 160.336 106.761 160.392C106.519 160.439 106.304 160.527 106.117 160.658C105.94 160.779 105.791 160.947 105.669 161.162C105.557 161.367 105.483 161.629 105.445 161.946H104.591C104.619 161.517 104.717 161.153 104.885 160.854C105.053 160.546 105.268 160.299 105.529 160.112C105.8 159.916 106.108 159.776 106.453 159.692C106.808 159.599 107.181 159.552 107.573 159.552C107.937 159.552 108.278 159.594 108.595 159.678C108.922 159.753 109.202 159.879 109.435 160.056C109.678 160.224 109.865 160.453 109.995 160.742C110.135 161.031 110.205 161.386 110.205 161.806V165.754C110.205 166.081 110.261 166.291 110.373 166.384C110.495 166.468 110.733 166.445 111.087 166.314V166.972C111.022 166.991 110.924 167.019 110.793 167.056C110.672 167.093 110.551 167.112 110.429 167.112C110.299 167.112 110.173 167.098 110.051 167.07C109.911 167.051 109.799 167.009 109.715 166.944C109.631 166.869 109.561 166.785 109.505 166.692C109.459 166.589 109.426 166.482 109.407 166.37C109.389 166.249 109.379 166.123 109.379 165.992C109.025 166.384 108.619 166.683 108.161 166.888C107.704 167.093 107.209 167.196 106.677 167.196C106.36 167.196 106.052 167.154 105.753 167.07C105.464 166.986 105.207 166.855 104.983 166.678C104.759 166.501 104.582 166.286 104.451 166.034C104.321 165.773 104.255 165.465 104.255 165.11C104.255 163.878 105.1 163.15 106.789 162.926L107.951 162.772ZM112.279 167V159.748H113.119V167H112.279ZM112.237 158.166V156.92H113.161V158.166H112.237ZM116.096 167H115.256V159.748H116.096V160.756C116.432 160.401 116.777 160.112 117.132 159.888C117.496 159.664 117.93 159.552 118.434 159.552C118.882 159.552 119.297 159.631 119.68 159.79C120.063 159.939 120.385 160.205 120.646 160.588C120.823 160.849 120.926 161.12 120.954 161.4C120.991 161.671 121.01 161.955 121.01 162.254V167H120.17V162.268C120.17 161.615 120.025 161.125 119.736 160.798C119.447 160.471 118.966 160.308 118.294 160.308C118.033 160.308 117.795 160.35 117.58 160.434C117.365 160.509 117.169 160.611 116.992 160.742C116.824 160.873 116.679 161.022 116.558 161.19C116.437 161.358 116.343 161.535 116.278 161.722C116.194 161.955 116.143 162.179 116.124 162.394C116.105 162.609 116.096 162.842 116.096 163.094V167Z" fill="black"/>
<rect x="0.5" y="0.5" width="267" height="195" rx="7.5" stroke="#D0D0D0"/>
</svg>
