<svg width="268" height="196" viewBox="0 0 268 196" fill="none" xmlns="http://www.w3.org/2000/svg">
<circle cx="40" cy="40" r="16" fill="#0D28A6"/>
<path d="M40 48.3333C44.6023 48.3333 48.3333 44.6024 48.3333 40C48.3333 35.3976 44.6023 31.6667 40 31.6667C35.3976 31.6667 31.6666 35.3976 31.6666 40C31.6666 44.6024 35.3976 48.3333 40 48.3333Z" stroke="white" stroke-width="2" stroke-linecap="round" stroke-linejoin="round"/>
<path d="M40 35V40L43.3333 41.6667" stroke="white" stroke-width="2" stroke-linecap="round" stroke-linejoin="round"/>
<path d="M25.2188 78.4844H27.625V87.9297H33.3281V90H25.2188V78.4844ZM39.5156 85.8594C39.375 85.9479 39.2318 86.0208 39.0859 86.0781C38.9453 86.1302 38.75 86.1797 38.5 86.2266L38 86.3203C37.5312 86.4036 37.1953 86.5052 36.9922 86.625C36.6484 86.8281 36.4766 87.1432 36.4766 87.5703C36.4766 87.9505 36.5807 88.2266 36.7891 88.3984C37.0026 88.5651 37.2604 88.6484 37.5625 88.6484C38.0417 88.6484 38.4818 88.5078 38.8828 88.2266C39.2891 87.9453 39.5 87.4323 39.5156 86.6875V85.8594ZM38.1641 84.8203C38.5755 84.7682 38.8698 84.7031 39.0469 84.625C39.3646 84.4896 39.5234 84.2786 39.5234 83.9922C39.5234 83.6432 39.401 83.4036 39.1562 83.2734C38.9167 83.138 38.5625 83.0703 38.0938 83.0703C37.5677 83.0703 37.1953 83.2005 36.9766 83.4609C36.8203 83.6536 36.7161 83.9141 36.6641 84.2422H34.5156C34.5625 83.4974 34.7708 82.8854 35.1406 82.4062C35.7292 81.6562 36.7396 81.2812 38.1719 81.2812C39.1042 81.2812 39.9323 81.4661 40.6562 81.8359C41.3802 82.2057 41.7422 82.9036 41.7422 83.9297V87.8359C41.7422 88.1068 41.7474 88.4349 41.7578 88.8203C41.7734 89.112 41.8177 89.3099 41.8906 89.4141C41.9635 89.5182 42.0729 89.6042 42.2188 89.6719V90H39.7969C39.7292 89.8281 39.6823 89.6667 39.6562 89.5156C39.6302 89.3646 39.6094 89.1927 39.5938 89C39.2865 89.3333 38.9323 89.6172 38.5312 89.8516C38.0521 90.1276 37.5104 90.2656 36.9062 90.2656C36.1354 90.2656 35.4974 90.0469 34.9922 89.6094C34.4922 89.1667 34.2422 88.5417 34.2422 87.7344C34.2422 86.6875 34.6458 85.9297 35.4531 85.4609C35.8958 85.2057 36.5469 85.0234 37.4062 84.9141L38.1641 84.8203ZM44.0703 91.6328L44.3516 91.6484C44.5703 91.6589 44.7786 91.651 44.9766 91.625C45.1745 91.599 45.3411 91.5391 45.4766 91.4453C45.6068 91.3568 45.7266 91.1719 45.8359 90.8906C45.9505 90.6094 45.9974 90.4375 45.9766 90.375L42.8516 81.4844H45.3281L47.1875 87.7656L48.9453 81.4844H51.3125L48.3906 89.8594C47.8281 91.474 47.3828 92.474 47.0547 92.8594C46.7266 93.25 46.0703 93.4453 45.0859 93.4453C44.888 93.4453 44.7292 93.4427 44.6094 93.4375C44.4896 93.4375 44.3099 93.4297 44.0703 93.4141V91.6328ZM57.3281 85.8594C57.1875 85.9479 57.0443 86.0208 56.8984 86.0781C56.7578 86.1302 56.5625 86.1797 56.3125 86.2266L55.8125 86.3203C55.3438 86.4036 55.0078 86.5052 54.8047 86.625C54.4609 86.8281 54.2891 87.1432 54.2891 87.5703C54.2891 87.9505 54.3932 88.2266 54.6016 88.3984C54.8151 88.5651 55.0729 88.6484 55.375 88.6484C55.8542 88.6484 56.2943 88.5078 56.6953 88.2266C57.1016 87.9453 57.3125 87.4323 57.3281 86.6875V85.8594ZM55.9766 84.8203C56.388 84.7682 56.6823 84.7031 56.8594 84.625C57.1771 84.4896 57.3359 84.2786 57.3359 83.9922C57.3359 83.6432 57.2135 83.4036 56.9688 83.2734C56.7292 83.138 56.375 83.0703 55.9062 83.0703C55.3802 83.0703 55.0078 83.2005 54.7891 83.4609C54.6328 83.6536 54.5286 83.9141 54.4766 84.2422H52.3281C52.375 83.4974 52.5833 82.8854 52.9531 82.4062C53.5417 81.6562 54.5521 81.2812 55.9844 81.2812C56.9167 81.2812 57.7448 81.4661 58.4688 81.8359C59.1927 82.2057 59.5547 82.9036 59.5547 83.9297V87.8359C59.5547 88.1068 59.5599 88.4349 59.5703 88.8203C59.5859 89.112 59.6302 89.3099 59.7031 89.4141C59.776 89.5182 59.8854 89.6042 60.0312 89.6719V90H57.6094C57.5417 89.8281 57.4948 89.6667 57.4688 89.5156C57.4427 89.3646 57.4219 89.1927 57.4062 89C57.099 89.3333 56.7448 89.6172 56.3438 89.8516C55.8646 90.1276 55.3229 90.2656 54.7188 90.2656C53.9479 90.2656 53.3099 90.0469 52.8047 89.6094C52.3047 89.1667 52.0547 88.5417 52.0547 87.7344C52.0547 86.6875 52.4583 85.9297 53.2656 85.4609C53.7083 85.2057 54.3594 85.0234 55.2188 84.9141L55.9766 84.8203ZM66.2578 81.2812C67.138 81.2812 67.8568 81.513 68.4141 81.9766C68.9766 82.4349 69.2578 83.1979 69.2578 84.2656V90H66.9766V84.8203C66.9766 84.3724 66.9167 84.0286 66.7969 83.7891C66.5781 83.3516 66.1615 83.1328 65.5469 83.1328C64.7917 83.1328 64.2734 83.4531 63.9922 84.0938C63.8464 84.4323 63.7734 84.8646 63.7734 85.3906V90H61.5547V81.5H63.7031V82.7422C63.9896 82.3047 64.2604 81.9896 64.5156 81.7969C64.974 81.4531 65.5547 81.2812 66.2578 81.2812ZM76.0156 85.8594C75.875 85.9479 75.7318 86.0208 75.5859 86.0781C75.4453 86.1302 75.25 86.1797 75 86.2266L74.5 86.3203C74.0312 86.4036 73.6953 86.5052 73.4922 86.625C73.1484 86.8281 72.9766 87.1432 72.9766 87.5703C72.9766 87.9505 73.0807 88.2266 73.2891 88.3984C73.5026 88.5651 73.7604 88.6484 74.0625 88.6484C74.5417 88.6484 74.9818 88.5078 75.3828 88.2266C75.7891 87.9453 76 87.4323 76.0156 86.6875V85.8594ZM74.6641 84.8203C75.0755 84.7682 75.3698 84.7031 75.5469 84.625C75.8646 84.4896 76.0234 84.2786 76.0234 83.9922C76.0234 83.6432 75.901 83.4036 75.6562 83.2734C75.4167 83.138 75.0625 83.0703 74.5938 83.0703C74.0677 83.0703 73.6953 83.2005 73.4766 83.4609C73.3203 83.6536 73.2161 83.9141 73.1641 84.2422H71.0156C71.0625 83.4974 71.2708 82.8854 71.6406 82.4062C72.2292 81.6562 73.2396 81.2812 74.6719 81.2812C75.6042 81.2812 76.4323 81.4661 77.1562 81.8359C77.8802 82.2057 78.2422 82.9036 78.2422 83.9297V87.8359C78.2422 88.1068 78.2474 88.4349 78.2578 88.8203C78.2734 89.112 78.3177 89.3099 78.3906 89.4141C78.4635 89.5182 78.5729 89.6042 78.7188 89.6719V90H76.2969C76.2292 89.8281 76.1823 89.6667 76.1562 89.5156C76.1302 89.3646 76.1094 89.1927 76.0938 89C75.7865 89.3333 75.4323 89.6172 75.0312 89.8516C74.5521 90.1276 74.0104 90.2656 73.4062 90.2656C72.6354 90.2656 71.9974 90.0469 71.4922 89.6094C70.9922 89.1667 70.7422 88.5417 70.7422 87.7344C70.7422 86.6875 71.1458 85.9297 71.9531 85.4609C72.3958 85.2057 73.0469 85.0234 73.9062 84.9141L74.6641 84.8203ZM84.9453 81.2812C85.8255 81.2812 86.5443 81.513 87.1016 81.9766C87.6641 82.4349 87.9453 83.1979 87.9453 84.2656V90H85.6641V84.8203C85.6641 84.3724 85.6042 84.0286 85.4844 83.7891C85.2656 83.3516 84.849 83.1328 84.2344 83.1328C83.4792 83.1328 82.9609 83.4531 82.6797 84.0938C82.5339 84.4323 82.4609 84.8646 82.4609 85.3906V90H80.2422V81.5H82.3906V82.7422C82.6771 82.3047 82.9479 81.9896 83.2031 81.7969C83.6615 81.4531 84.2422 81.2812 84.9453 81.2812ZM93.9219 90C93.9427 89.1875 94.1172 88.4453 94.4453 87.7734C94.763 87.0182 95.513 86.2188 96.6953 85.375C97.7214 84.6406 98.3854 84.1146 98.6875 83.7969C99.151 83.3021 99.3828 82.7604 99.3828 82.1719C99.3828 81.6927 99.25 81.2943 98.9844 80.9766C98.7188 80.6589 98.3385 80.5 97.8438 80.5C97.1667 80.5 96.7057 80.7526 96.4609 81.2578C96.3203 81.5495 96.237 82.013 96.2109 82.6484H94.0469C94.0833 81.6849 94.2578 80.9062 94.5703 80.3125C95.1641 79.1823 96.2188 78.6172 97.7344 78.6172C98.9323 78.6172 99.8854 78.9505 100.594 79.6172C101.302 80.2786 101.656 81.1562 101.656 82.25C101.656 83.0885 101.406 83.8333 100.906 84.4844C100.578 84.9167 100.039 85.3984 99.2891 85.9297L98.3984 86.5625C97.8411 86.9583 97.4583 87.2448 97.25 87.4219C97.0469 87.599 96.875 87.8047 96.7344 88.0391H101.68V90H93.9219ZM110.695 87.5625H109.414V90H107.234V87.5625H102.75V85.6172L106.914 78.7422H109.414V85.8203H110.695V87.5625ZM107.234 85.8203V80.9297L104.398 85.8203H107.234ZM118.312 85.6328V85.8984C118.333 86.7891 118.43 87.4167 118.602 87.7812C118.779 88.1406 119.154 88.3203 119.727 88.3203C120.294 88.3203 120.669 88.1224 120.852 87.7266C120.961 87.4922 121.016 87.0964 121.016 86.5391V78.4844H123.422V86.5C123.422 87.4792 123.253 88.2552 122.914 88.8281C122.341 89.7969 121.307 90.2812 119.812 90.2812C118.318 90.2812 117.315 89.8906 116.805 89.1094C116.294 88.3229 116.039 87.2526 116.039 85.8984V85.6328H118.312ZM130.328 85.8594C130.188 85.9479 130.044 86.0208 129.898 86.0781C129.758 86.1302 129.562 86.1797 129.312 86.2266L128.812 86.3203C128.344 86.4036 128.008 86.5052 127.805 86.625C127.461 86.8281 127.289 87.1432 127.289 87.5703C127.289 87.9505 127.393 88.2266 127.602 88.3984C127.815 88.5651 128.073 88.6484 128.375 88.6484C128.854 88.6484 129.294 88.5078 129.695 88.2266C130.102 87.9453 130.312 87.4323 130.328 86.6875V85.8594ZM128.977 84.8203C129.388 84.7682 129.682 84.7031 129.859 84.625C130.177 84.4896 130.336 84.2786 130.336 83.9922C130.336 83.6432 130.214 83.4036 129.969 83.2734C129.729 83.138 129.375 83.0703 128.906 83.0703C128.38 83.0703 128.008 83.2005 127.789 83.4609C127.633 83.6536 127.529 83.9141 127.477 84.2422H125.328C125.375 83.4974 125.583 82.8854 125.953 82.4062C126.542 81.6562 127.552 81.2812 128.984 81.2812C129.917 81.2812 130.745 81.4661 131.469 81.8359C132.193 82.2057 132.555 82.9036 132.555 83.9297V87.8359C132.555 88.1068 132.56 88.4349 132.57 88.8203C132.586 89.112 132.63 89.3099 132.703 89.4141C132.776 89.5182 132.885 89.6042 133.031 89.6719V90H130.609C130.542 89.8281 130.495 89.6667 130.469 89.5156C130.443 89.3646 130.422 89.1927 130.406 89C130.099 89.3333 129.745 89.6172 129.344 89.8516C128.865 90.1276 128.323 90.2656 127.719 90.2656C126.948 90.2656 126.31 90.0469 125.805 89.6094C125.305 89.1667 125.055 88.5417 125.055 87.7344C125.055 86.6875 125.458 85.9297 126.266 85.4609C126.708 85.2057 127.359 85.0234 128.219 84.9141L128.977 84.8203ZM144.055 81.2969C144.43 81.2969 144.799 81.3698 145.164 81.5156C145.529 81.6615 145.859 81.9167 146.156 82.2812C146.396 82.5781 146.557 82.9427 146.641 83.375C146.693 83.6615 146.719 84.0807 146.719 84.6328L146.703 90H144.422V84.5781C144.422 84.2552 144.37 83.9896 144.266 83.7812C144.068 83.3854 143.703 83.1875 143.172 83.1875C142.557 83.1875 142.133 83.4427 141.898 83.9531C141.779 84.224 141.719 84.5495 141.719 84.9297V90H139.477V84.9297C139.477 84.4245 139.424 84.0573 139.32 83.8281C139.133 83.4167 138.766 83.2109 138.219 83.2109C137.583 83.2109 137.156 83.4167 136.938 83.8281C136.818 84.0625 136.758 84.4115 136.758 84.875V90H134.5V81.5H136.664V82.7422C136.94 82.2995 137.201 81.9844 137.445 81.7969C137.878 81.4635 138.438 81.2969 139.125 81.2969C139.776 81.2969 140.302 81.4401 140.703 81.7266C141.026 81.9922 141.271 82.3333 141.438 82.75C141.729 82.25 142.091 81.8828 142.523 81.6484C142.982 81.4141 143.492 81.2969 144.055 81.2969Z" fill="black"/>
<path d="M25.526 123.99C25.5633 124.438 25.6613 124.821 25.82 125.138C25.988 125.446 26.198 125.698 26.45 125.894C26.7113 126.09 27.01 126.235 27.346 126.328C27.682 126.412 28.0413 126.454 28.424 126.454C28.872 126.454 29.2593 126.398 29.586 126.286C29.9127 126.174 30.1787 126.025 30.384 125.838C30.5893 125.642 30.7387 125.418 30.832 125.166C30.9347 124.914 30.986 124.648 30.986 124.368C30.986 123.976 30.8973 123.659 30.72 123.416C30.5427 123.173 30.3093 122.977 30.02 122.828C29.74 122.669 29.4133 122.543 29.04 122.45C28.676 122.357 28.298 122.268 27.906 122.184C27.5233 122.091 27.1453 121.983 26.772 121.862C26.408 121.741 26.0813 121.577 25.792 121.372C25.512 121.167 25.2833 120.905 25.106 120.588C24.9287 120.261 24.84 119.851 24.84 119.356C24.84 119.011 24.91 118.675 25.05 118.348C25.1993 118.021 25.414 117.732 25.694 117.48C25.9833 117.228 26.3427 117.027 26.772 116.878C27.2013 116.729 27.696 116.654 28.256 116.654C28.8253 116.654 29.32 116.733 29.74 116.892C30.1693 117.051 30.524 117.27 30.804 117.55C31.084 117.821 31.294 118.138 31.434 118.502C31.574 118.866 31.644 119.253 31.644 119.664H30.734C30.734 119.281 30.664 118.95 30.524 118.67C30.3933 118.39 30.2113 118.161 29.978 117.984C29.7447 117.807 29.4787 117.676 29.18 117.592C28.8813 117.508 28.5733 117.466 28.256 117.466C27.7707 117.466 27.36 117.536 27.024 117.676C26.6973 117.807 26.436 117.979 26.24 118.194C26.044 118.409 25.9087 118.647 25.834 118.908C25.7593 119.169 25.7453 119.431 25.792 119.692C25.848 120.019 25.9787 120.28 26.184 120.476C26.3893 120.672 26.6413 120.835 26.94 120.966C27.2387 121.087 27.5653 121.19 27.92 121.274C28.284 121.349 28.6527 121.433 29.026 121.526C29.3993 121.61 29.7587 121.713 30.104 121.834C30.4587 121.955 30.7713 122.119 31.042 122.324C31.3127 122.529 31.5273 122.795 31.686 123.122C31.854 123.439 31.938 123.841 31.938 124.326C31.938 125.259 31.616 125.983 30.972 126.496C30.328 127.009 29.4227 127.266 28.256 127.266C27.7333 127.266 27.248 127.196 26.8 127.056C26.352 126.925 25.9647 126.725 25.638 126.454C25.3113 126.174 25.0547 125.833 24.868 125.432C24.6907 125.021 24.602 124.541 24.602 123.99H25.526ZM33.4465 127V119.748H34.2865V127H33.4465ZM33.4045 118.166V116.92H34.3285V118.166H33.4045ZM41.17 123.192C40.8153 123.341 40.456 123.439 40.092 123.486C39.728 123.533 39.364 123.57 39 123.598C38.356 123.645 37.852 123.789 37.488 124.032C37.1333 124.275 36.956 124.643 36.956 125.138C36.956 125.362 36.998 125.558 37.082 125.726C37.1753 125.885 37.292 126.02 37.432 126.132C37.5813 126.235 37.7493 126.314 37.936 126.37C38.132 126.417 38.328 126.44 38.524 126.44C38.86 126.44 39.1867 126.398 39.504 126.314C39.8213 126.23 40.1013 126.104 40.344 125.936C40.596 125.759 40.7967 125.539 40.946 125.278C41.0953 125.007 41.17 124.69 41.17 124.326V123.192ZM39.756 122.772C39.9147 122.753 40.1013 122.725 40.316 122.688C40.54 122.651 40.722 122.599 40.862 122.534C41.002 122.469 41.086 122.361 41.114 122.212C41.1513 122.053 41.17 121.909 41.17 121.778C41.17 121.349 41.03 120.999 40.75 120.728C40.4793 120.448 40.0173 120.308 39.364 120.308C39.0747 120.308 38.8087 120.336 38.566 120.392C38.3233 120.439 38.1087 120.527 37.922 120.658C37.7447 120.779 37.5953 120.947 37.474 121.162C37.362 121.367 37.2873 121.629 37.25 121.946H36.396C36.424 121.517 36.522 121.153 36.69 120.854C36.858 120.546 37.0727 120.299 37.334 120.112C37.6047 119.916 37.9127 119.776 38.258 119.692C38.6127 119.599 38.986 119.552 39.378 119.552C39.742 119.552 40.0827 119.594 40.4 119.678C40.7267 119.753 41.0067 119.879 41.24 120.056C41.4827 120.224 41.6693 120.453 41.8 120.742C41.94 121.031 42.01 121.386 42.01 121.806V125.754C42.01 126.081 42.066 126.291 42.178 126.384C42.2993 126.468 42.5373 126.445 42.892 126.314V126.972C42.8267 126.991 42.7287 127.019 42.598 127.056C42.4767 127.093 42.3553 127.112 42.234 127.112C42.1033 127.112 41.9773 127.098 41.856 127.07C41.716 127.051 41.604 127.009 41.52 126.944C41.436 126.869 41.366 126.785 41.31 126.692C41.2633 126.589 41.2307 126.482 41.212 126.37C41.1933 126.249 41.184 126.123 41.184 125.992C40.8293 126.384 40.4233 126.683 39.966 126.888C39.5087 127.093 39.014 127.196 38.482 127.196C38.1647 127.196 37.8567 127.154 37.558 127.07C37.2687 126.986 37.012 126.855 36.788 126.678C36.564 126.501 36.3867 126.286 36.256 126.034C36.1253 125.773 36.06 125.465 36.06 125.11C36.06 123.878 36.9047 123.15 38.594 122.926L39.756 122.772ZM45.1413 123.402C45.1413 123.813 45.1973 124.205 45.3093 124.578C45.4213 124.942 45.58 125.264 45.7853 125.544C46 125.815 46.2566 126.034 46.5553 126.202C46.8633 126.361 47.2086 126.44 47.5913 126.44C48.0206 126.44 48.394 126.356 48.7113 126.188C49.038 126.011 49.304 125.773 49.5093 125.474C49.7146 125.175 49.864 124.83 49.9573 124.438C50.0506 124.037 50.088 123.607 50.0693 123.15C50.0693 122.693 50.004 122.291 49.8733 121.946C49.752 121.591 49.5793 121.293 49.3553 121.05C49.1313 120.807 48.87 120.625 48.5713 120.504C48.2726 120.373 47.946 120.308 47.5913 120.308C47.1993 120.308 46.8493 120.387 46.5413 120.546C46.2333 120.705 45.9766 120.924 45.7713 121.204C45.566 121.475 45.4073 121.801 45.2953 122.184C45.1926 122.557 45.1413 122.963 45.1413 123.402ZM45.1413 129.856H44.3013V119.748H45.1413V121.022H45.1693C45.2906 120.789 45.4446 120.579 45.6313 120.392C45.8273 120.205 46.0373 120.051 46.2613 119.93C46.4946 119.809 46.7326 119.715 46.9753 119.65C47.218 119.585 47.456 119.552 47.6893 119.552C48.2773 119.552 48.7766 119.65 49.1873 119.846C49.598 120.042 49.934 120.313 50.1953 120.658C50.466 120.994 50.662 121.395 50.7833 121.862C50.9046 122.329 50.9653 122.828 50.9653 123.36C50.9653 123.864 50.9 124.349 50.7693 124.816C50.6386 125.283 50.438 125.693 50.1673 126.048C49.906 126.393 49.57 126.673 49.1593 126.888C48.758 127.093 48.282 127.196 47.7313 127.196C47.218 127.196 46.7233 127.084 46.2473 126.86C45.7806 126.627 45.412 126.286 45.1413 125.838V129.856ZM57.3864 127H56.5464V119.748H57.3864V120.84H57.4144C57.6291 120.42 57.9371 120.103 58.3384 119.888C58.7397 119.664 59.1784 119.552 59.6544 119.552C59.9904 119.552 60.2751 119.589 60.5084 119.664C60.7417 119.739 60.9377 119.841 61.0964 119.972C61.2644 120.093 61.3997 120.238 61.5024 120.406C61.6144 120.574 61.7077 120.756 61.7824 120.952C62.0251 120.476 62.3471 120.126 62.7484 119.902C63.1591 119.669 63.6257 119.552 64.1484 119.552C64.6431 119.552 65.0351 119.636 65.3244 119.804C65.6231 119.963 65.8517 120.177 66.0104 120.448C66.1691 120.709 66.2717 121.013 66.3184 121.358C66.3744 121.703 66.4024 122.058 66.4024 122.422V127H65.5624V121.988C65.5624 121.465 65.4504 121.055 65.2264 120.756C65.0117 120.457 64.6057 120.308 64.0084 120.308C63.7004 120.308 63.4017 120.378 63.1124 120.518C62.8324 120.649 62.5851 120.854 62.3704 121.134C62.2771 121.255 62.1977 121.4 62.1324 121.568C62.0764 121.727 62.0297 121.895 61.9924 122.072C61.9551 122.249 61.9271 122.427 61.9084 122.604C61.8991 122.781 61.8944 122.945 61.8944 123.094V127H61.0544V121.988C61.0544 121.465 60.9424 121.055 60.7184 120.756C60.5037 120.457 60.0977 120.308 59.5004 120.308C59.1924 120.308 58.8937 120.378 58.6044 120.518C58.3244 120.649 58.0771 120.854 57.8624 121.134C57.7691 121.255 57.6897 121.4 57.6244 121.568C57.5684 121.727 57.5217 121.895 57.4844 122.072C57.4471 122.249 57.4191 122.427 57.4004 122.604C57.3911 122.781 57.3864 122.945 57.3864 123.094V127ZM73.5705 122.87C73.5705 122.515 73.5192 122.184 73.4165 121.876C73.3232 121.559 73.1785 121.288 72.9825 121.064C72.7958 120.831 72.5578 120.649 72.2685 120.518C71.9792 120.378 71.6478 120.308 71.2745 120.308C70.9012 120.308 70.5698 120.378 70.2805 120.518C70.0005 120.658 69.7578 120.845 69.5525 121.078C69.3565 121.311 69.1978 121.582 69.0765 121.89C68.9552 122.198 68.8758 122.525 68.8385 122.87H73.5705ZM68.8385 123.57C68.8385 123.962 68.8898 124.335 68.9925 124.69C69.0952 125.035 69.2445 125.339 69.4405 125.6C69.6458 125.852 69.9025 126.057 70.2105 126.216C70.5185 126.365 70.8732 126.44 71.2745 126.44C71.8252 126.44 72.2965 126.295 72.6885 126.006C73.0805 125.717 73.3418 125.306 73.4725 124.774H74.4105C74.3078 125.119 74.1725 125.441 74.0045 125.74C73.8365 126.029 73.6265 126.286 73.3745 126.51C73.1225 126.725 72.8238 126.893 72.4785 127.014C72.1332 127.135 71.7318 127.196 71.2745 127.196C70.6958 127.196 70.1965 127.098 69.7765 126.902C69.3565 126.706 69.0112 126.44 68.7405 126.104C68.4698 125.759 68.2692 125.357 68.1385 124.9C68.0078 124.433 67.9425 123.934 67.9425 123.402C67.9425 122.87 68.0172 122.371 68.1665 121.904C68.3252 121.437 68.5445 121.031 68.8245 120.686C69.1138 120.331 69.4638 120.056 69.8745 119.86C70.2852 119.655 70.7518 119.552 71.2745 119.552C72.2732 119.552 73.0572 119.897 73.6265 120.588C74.1958 121.269 74.4758 122.263 74.4665 123.57H68.8385ZM76.2258 127V116.92H77.0658V127H76.2258ZM83.9493 123.192C83.5946 123.341 83.2353 123.439 82.8713 123.486C82.5073 123.533 82.1433 123.57 81.7793 123.598C81.1353 123.645 80.6313 123.789 80.2673 124.032C79.9126 124.275 79.7353 124.643 79.7353 125.138C79.7353 125.362 79.7773 125.558 79.8613 125.726C79.9546 125.885 80.0713 126.02 80.2113 126.132C80.3606 126.235 80.5286 126.314 80.7153 126.37C80.9113 126.417 81.1073 126.44 81.3033 126.44C81.6393 126.44 81.966 126.398 82.2833 126.314C82.6006 126.23 82.8806 126.104 83.1233 125.936C83.3753 125.759 83.576 125.539 83.7253 125.278C83.8746 125.007 83.9493 124.69 83.9493 124.326V123.192ZM82.5353 122.772C82.694 122.753 82.8806 122.725 83.0953 122.688C83.3193 122.651 83.5013 122.599 83.6413 122.534C83.7813 122.469 83.8653 122.361 83.8933 122.212C83.9306 122.053 83.9493 121.909 83.9493 121.778C83.9493 121.349 83.8093 120.999 83.5293 120.728C83.2586 120.448 82.7966 120.308 82.1433 120.308C81.854 120.308 81.588 120.336 81.3453 120.392C81.1026 120.439 80.888 120.527 80.7013 120.658C80.524 120.779 80.3746 120.947 80.2533 121.162C80.1413 121.367 80.0666 121.629 80.0293 121.946H79.1753C79.2033 121.517 79.3013 121.153 79.4693 120.854C79.6373 120.546 79.852 120.299 80.1133 120.112C80.384 119.916 80.692 119.776 81.0373 119.692C81.392 119.599 81.7653 119.552 82.1573 119.552C82.5213 119.552 82.862 119.594 83.1793 119.678C83.506 119.753 83.786 119.879 84.0193 120.056C84.262 120.224 84.4486 120.453 84.5793 120.742C84.7193 121.031 84.7893 121.386 84.7893 121.806V125.754C84.7893 126.081 84.8453 126.291 84.9573 126.384C85.0786 126.468 85.3166 126.445 85.6713 126.314V126.972C85.606 126.991 85.508 127.019 85.3773 127.056C85.256 127.093 85.1346 127.112 85.0133 127.112C84.8826 127.112 84.7566 127.098 84.6353 127.07C84.4953 127.051 84.3833 127.009 84.2993 126.944C84.2153 126.869 84.1453 126.785 84.0893 126.692C84.0426 126.589 84.01 126.482 83.9913 126.37C83.9726 126.249 83.9633 126.123 83.9633 125.992C83.6086 126.384 83.2026 126.683 82.7453 126.888C82.288 127.093 81.7933 127.196 81.2613 127.196C80.944 127.196 80.636 127.154 80.3373 127.07C80.048 126.986 79.7913 126.855 79.5673 126.678C79.3433 126.501 79.166 126.286 79.0353 126.034C78.9046 125.773 78.8393 125.465 78.8393 125.11C78.8393 123.878 79.684 123.15 81.3733 122.926L82.5353 122.772ZM86.9266 128.974C87.0386 128.993 87.1506 129.011 87.2626 129.03C87.3839 129.049 87.5053 129.058 87.6266 129.058C87.8599 129.058 88.0513 128.983 88.2006 128.834C88.3499 128.685 88.4713 128.503 88.5646 128.288C88.6673 128.083 88.7513 127.863 88.8166 127.63C88.8819 127.406 88.9566 127.215 89.0406 127.056L86.2266 119.748H87.1646L89.4886 125.978L91.8126 119.748H92.7226L90.0206 126.902C89.8526 127.359 89.6893 127.77 89.5306 128.134C89.3813 128.498 89.2179 128.806 89.0406 129.058C88.8726 129.319 88.6813 129.515 88.4666 129.646C88.2613 129.786 88.0139 129.856 87.7246 129.856C87.5753 129.856 87.4306 129.847 87.2906 129.828C87.1599 129.809 87.0386 129.786 86.9266 129.758V128.974ZM98.7286 123.192C98.3739 123.341 98.0146 123.439 97.6506 123.486C97.2866 123.533 96.9226 123.57 96.5586 123.598C95.9146 123.645 95.4106 123.789 95.0466 124.032C94.6919 124.275 94.5146 124.643 94.5146 125.138C94.5146 125.362 94.5566 125.558 94.6406 125.726C94.7339 125.885 94.8506 126.02 94.9906 126.132C95.1399 126.235 95.3079 126.314 95.4946 126.37C95.6906 126.417 95.8866 126.44 96.0826 126.44C96.4186 126.44 96.7453 126.398 97.0626 126.314C97.3799 126.23 97.6599 126.104 97.9026 125.936C98.1546 125.759 98.3553 125.539 98.5046 125.278C98.6539 125.007 98.7286 124.69 98.7286 124.326V123.192ZM97.3146 122.772C97.4733 122.753 97.6599 122.725 97.8746 122.688C98.0986 122.651 98.2806 122.599 98.4206 122.534C98.5606 122.469 98.6446 122.361 98.6726 122.212C98.7099 122.053 98.7286 121.909 98.7286 121.778C98.7286 121.349 98.5886 120.999 98.3086 120.728C98.0379 120.448 97.5759 120.308 96.9226 120.308C96.6333 120.308 96.3673 120.336 96.1246 120.392C95.8819 120.439 95.6673 120.527 95.4806 120.658C95.3033 120.779 95.1539 120.947 95.0326 121.162C94.9206 121.367 94.8459 121.629 94.8086 121.946H93.9546C93.9826 121.517 94.0806 121.153 94.2486 120.854C94.4166 120.546 94.6313 120.299 94.8926 120.112C95.1633 119.916 95.4713 119.776 95.8166 119.692C96.1713 119.599 96.5446 119.552 96.9366 119.552C97.3006 119.552 97.6413 119.594 97.9586 119.678C98.2853 119.753 98.5653 119.879 98.7986 120.056C99.0413 120.224 99.2279 120.453 99.3586 120.742C99.4986 121.031 99.5686 121.386 99.5686 121.806V125.754C99.5686 126.081 99.6246 126.291 99.7366 126.384C99.8579 126.468 100.096 126.445 100.451 126.314V126.972C100.385 126.991 100.287 127.019 100.157 127.056C100.035 127.093 99.9139 127.112 99.7926 127.112C99.6619 127.112 99.5359 127.098 99.4146 127.07C99.2746 127.051 99.1626 127.009 99.0786 126.944C98.9946 126.869 98.9246 126.785 98.8686 126.692C98.8219 126.589 98.7893 126.482 98.7706 126.37C98.7519 126.249 98.7426 126.123 98.7426 125.992C98.3879 126.384 97.9819 126.683 97.5246 126.888C97.0673 127.093 96.5726 127.196 96.0406 127.196C95.7233 127.196 95.4153 127.154 95.1166 127.07C94.8273 126.986 94.5706 126.855 94.3466 126.678C94.1226 126.501 93.9453 126.286 93.8146 126.034C93.6839 125.773 93.6186 125.465 93.6186 125.11C93.6186 123.878 94.4633 123.15 96.1526 122.926L97.3146 122.772ZM102.602 127H101.762V119.748H102.602V120.756C102.938 120.401 103.283 120.112 103.638 119.888C104.002 119.664 104.436 119.552 104.94 119.552C105.388 119.552 105.803 119.631 106.186 119.79C106.569 119.939 106.891 120.205 107.152 120.588C107.329 120.849 107.432 121.12 107.46 121.4C107.497 121.671 107.516 121.955 107.516 122.254V127H106.676V122.268C106.676 121.615 106.531 121.125 106.242 120.798C105.953 120.471 105.472 120.308 104.8 120.308C104.539 120.308 104.301 120.35 104.086 120.434C103.871 120.509 103.675 120.611 103.498 120.742C103.33 120.873 103.185 121.022 103.064 121.19C102.943 121.358 102.849 121.535 102.784 121.722C102.7 121.955 102.649 122.179 102.63 122.394C102.611 122.609 102.602 122.842 102.602 123.094V127ZM109.421 127V119.748H110.261V127H109.421ZM109.379 118.166V116.92H110.303V118.166H109.379ZM116.239 127V116.92H117.079V123.192L120.635 119.748H121.783L119.067 122.366L122.105 127H121.167L118.451 122.954L117.079 124.256V127H116.239ZM128.545 122.87C128.545 122.515 128.494 122.184 128.391 121.876C128.298 121.559 128.153 121.288 127.957 121.064C127.77 120.831 127.532 120.649 127.243 120.518C126.954 120.378 126.622 120.308 126.249 120.308C125.876 120.308 125.544 120.378 125.255 120.518C124.975 120.658 124.732 120.845 124.527 121.078C124.331 121.311 124.172 121.582 124.051 121.89C123.93 122.198 123.85 122.525 123.813 122.87H128.545ZM123.813 123.57C123.813 123.962 123.864 124.335 123.967 124.69C124.07 125.035 124.219 125.339 124.415 125.6C124.62 125.852 124.877 126.057 125.185 126.216C125.493 126.365 125.848 126.44 126.249 126.44C126.8 126.44 127.271 126.295 127.663 126.006C128.055 125.717 128.316 125.306 128.447 124.774H129.385C129.282 125.119 129.147 125.441 128.979 125.74C128.811 126.029 128.601 126.286 128.349 126.51C128.097 126.725 127.798 126.893 127.453 127.014C127.108 127.135 126.706 127.196 126.249 127.196C125.67 127.196 125.171 127.098 124.751 126.902C124.331 126.706 123.986 126.44 123.715 126.104C123.444 125.759 123.244 125.357 123.113 124.9C122.982 124.433 122.917 123.934 122.917 123.402C122.917 122.87 122.992 122.371 123.141 121.904C123.3 121.437 123.519 121.031 123.799 120.686C124.088 120.331 124.438 120.056 124.849 119.86C125.26 119.655 125.726 119.552 126.249 119.552C127.248 119.552 128.032 119.897 128.601 120.588C129.17 121.269 129.45 122.263 129.441 123.57H123.813ZM132.012 123.346C132.012 123.785 132.064 124.195 132.166 124.578C132.278 124.951 132.437 125.278 132.642 125.558C132.848 125.829 133.104 126.043 133.412 126.202C133.72 126.361 134.07 126.44 134.462 126.44C134.817 126.44 135.144 126.379 135.442 126.258C135.741 126.127 136.002 125.941 136.226 125.698C136.45 125.455 136.623 125.161 136.744 124.816C136.875 124.461 136.94 124.055 136.94 123.598C136.959 123.141 136.922 122.716 136.828 122.324C136.735 121.923 136.586 121.573 136.38 121.274C136.175 120.975 135.909 120.742 135.582 120.574C135.265 120.397 134.892 120.308 134.462 120.308C134.08 120.308 133.734 120.392 133.426 120.56C133.128 120.719 132.871 120.938 132.656 121.218C132.451 121.489 132.292 121.811 132.18 122.184C132.068 122.548 132.012 122.935 132.012 123.346ZM132.012 127H131.172V116.92H132.012V120.91C132.283 120.462 132.652 120.126 133.118 119.902C133.594 119.669 134.089 119.552 134.602 119.552C135.153 119.552 135.629 119.659 136.03 119.874C136.441 120.079 136.777 120.359 137.038 120.714C137.309 121.059 137.51 121.465 137.64 121.932C137.771 122.399 137.836 122.884 137.836 123.388C137.836 123.92 137.776 124.419 137.654 124.886C137.533 125.353 137.337 125.759 137.066 126.104C136.805 126.44 136.469 126.706 136.058 126.902C135.648 127.098 135.148 127.196 134.56 127.196C134.327 127.196 134.089 127.163 133.846 127.098C133.604 127.033 133.366 126.939 133.132 126.818C132.908 126.697 132.698 126.547 132.502 126.37C132.316 126.183 132.162 125.969 132.04 125.726H132.012V127ZM144.547 119.748H145.387V127H144.547V125.992C144.435 126.123 144.309 126.258 144.169 126.398C144.029 126.538 143.866 126.669 143.679 126.79C143.502 126.902 143.292 126.995 143.049 127.07C142.806 127.154 142.526 127.196 142.209 127.196C141.724 127.196 141.318 127.131 140.991 127C140.664 126.86 140.398 126.669 140.193 126.426C139.997 126.183 139.852 125.903 139.759 125.586C139.675 125.259 139.633 124.905 139.633 124.522V119.748H140.473V124.508C140.473 125.133 140.618 125.614 140.907 125.95C141.196 126.277 141.672 126.44 142.335 126.44C142.68 126.44 142.988 126.375 143.259 126.244C143.539 126.104 143.772 125.913 143.959 125.67C144.146 125.427 144.29 125.138 144.393 124.802C144.496 124.466 144.547 124.097 144.547 123.696V119.748ZM149.96 127.028C149.858 127.047 149.722 127.079 149.554 127.126C149.386 127.173 149.2 127.196 148.994 127.196C148.574 127.196 148.252 127.093 148.028 126.888C147.814 126.673 147.706 126.295 147.706 125.754V120.448H146.684V119.748H147.706V117.732H148.546V119.748H149.904V120.448H148.546V125.418C148.546 125.595 148.551 125.749 148.56 125.88C148.57 126.011 148.598 126.118 148.644 126.202C148.691 126.286 148.761 126.347 148.854 126.384C148.957 126.421 149.097 126.44 149.274 126.44C149.386 126.44 149.498 126.431 149.61 126.412C149.732 126.393 149.848 126.37 149.96 126.342V127.028ZM156.223 119.748H157.063V127H156.223V125.992C156.111 126.123 155.985 126.258 155.845 126.398C155.705 126.538 155.541 126.669 155.355 126.79C155.177 126.902 154.967 126.995 154.725 127.07C154.482 127.154 154.202 127.196 153.885 127.196C153.399 127.196 152.993 127.131 152.667 127C152.34 126.86 152.074 126.669 151.869 126.426C151.673 126.183 151.528 125.903 151.435 125.586C151.351 125.259 151.309 124.905 151.309 124.522V119.748H152.149V124.508C152.149 125.133 152.293 125.614 152.583 125.95C152.872 126.277 153.348 126.44 154.011 126.44C154.356 126.44 154.664 126.375 154.935 126.244C155.215 126.104 155.448 125.913 155.635 125.67C155.821 125.427 155.966 125.138 156.069 124.802C156.171 124.466 156.223 124.097 156.223 123.696V119.748ZM159.088 127V116.92H159.928V120.756C160.264 120.401 160.609 120.112 160.964 119.888C161.328 119.664 161.762 119.552 162.266 119.552C162.714 119.552 163.129 119.631 163.512 119.79C163.895 119.939 164.217 120.205 164.478 120.588C164.655 120.849 164.758 121.12 164.786 121.4C164.823 121.671 164.842 121.955 164.842 122.254V127H164.002V122.268C164.002 121.615 163.857 121.125 163.568 120.798C163.279 120.471 162.798 120.308 162.126 120.308C161.865 120.308 161.627 120.35 161.412 120.434C161.197 120.509 161.001 120.611 160.824 120.742C160.656 120.873 160.511 121.022 160.39 121.19C160.269 121.358 160.175 121.535 160.11 121.722C160.026 121.955 159.975 122.179 159.956 122.394C159.937 122.609 159.928 122.842 159.928 123.094V127H159.088ZM171.613 123.192C171.259 123.341 170.899 123.439 170.535 123.486C170.171 123.533 169.807 123.57 169.443 123.598C168.799 123.645 168.295 123.789 167.931 124.032C167.577 124.275 167.399 124.643 167.399 125.138C167.399 125.362 167.441 125.558 167.525 125.726C167.619 125.885 167.735 126.02 167.875 126.132C168.025 126.235 168.193 126.314 168.379 126.37C168.575 126.417 168.771 126.44 168.967 126.44C169.303 126.44 169.63 126.398 169.947 126.314C170.265 126.23 170.545 126.104 170.787 125.936C171.039 125.759 171.24 125.539 171.389 125.278C171.539 125.007 171.613 124.69 171.613 124.326V123.192ZM170.199 122.772C170.358 122.753 170.545 122.725 170.759 122.688C170.983 122.651 171.165 122.599 171.305 122.534C171.445 122.469 171.529 122.361 171.557 122.212C171.595 122.053 171.613 121.909 171.613 121.778C171.613 121.349 171.473 120.999 171.193 120.728C170.923 120.448 170.461 120.308 169.807 120.308C169.518 120.308 169.252 120.336 169.009 120.392C168.767 120.439 168.552 120.527 168.365 120.658C168.188 120.779 168.039 120.947 167.917 121.162C167.805 121.367 167.731 121.629 167.693 121.946H166.839C166.867 121.517 166.965 121.153 167.133 120.854C167.301 120.546 167.516 120.299 167.777 120.112C168.048 119.916 168.356 119.776 168.701 119.692C169.056 119.599 169.429 119.552 169.821 119.552C170.185 119.552 170.526 119.594 170.843 119.678C171.17 119.753 171.45 119.879 171.683 120.056C171.926 120.224 172.113 120.453 172.243 120.742C172.383 121.031 172.453 121.386 172.453 121.806V125.754C172.453 126.081 172.509 126.291 172.621 126.384C172.743 126.468 172.981 126.445 173.335 126.314V126.972C173.27 126.991 173.172 127.019 173.041 127.056C172.92 127.093 172.799 127.112 172.677 127.112C172.547 127.112 172.421 127.098 172.299 127.07C172.159 127.051 172.047 127.009 171.963 126.944C171.879 126.869 171.809 126.785 171.753 126.692C171.707 126.589 171.674 126.482 171.655 126.37C171.637 126.249 171.627 126.123 171.627 125.992C171.273 126.384 170.867 126.683 170.409 126.888C169.952 127.093 169.457 127.196 168.925 127.196C168.608 127.196 168.3 127.154 168.001 127.07C167.712 126.986 167.455 126.855 167.231 126.678C167.007 126.501 166.83 126.286 166.699 126.034C166.569 125.773 166.503 125.465 166.503 125.11C166.503 123.878 167.348 123.15 169.037 122.926L170.199 122.772ZM175.487 127H174.647V119.748H175.487V120.756C175.823 120.401 176.168 120.112 176.523 119.888C176.887 119.664 177.321 119.552 177.825 119.552C178.273 119.552 178.688 119.631 179.071 119.79C179.453 119.939 179.775 120.205 180.037 120.588C180.214 120.849 180.317 121.12 180.345 121.4C180.382 121.671 180.401 121.955 180.401 122.254V127H179.561V122.268C179.561 121.615 179.416 121.125 179.127 120.798C178.837 120.471 178.357 120.308 177.685 120.308C177.423 120.308 177.185 120.35 176.971 120.434C176.756 120.509 176.56 120.611 176.383 120.742C176.215 120.873 176.07 121.022 175.949 121.19C175.827 121.358 175.734 121.535 175.669 121.722C175.585 121.955 175.533 122.179 175.515 122.394C175.496 122.609 175.487 122.842 175.487 123.094V127ZM185.524 127L189.486 116.92H190.564L194.428 127H193.448L192.286 123.836H187.694L186.504 127H185.524ZM188.016 123.024H191.964L189.99 117.732L188.016 123.024ZM196.5 127H195.66V119.748H196.5V120.756C196.836 120.401 197.182 120.112 197.536 119.888C197.9 119.664 198.334 119.552 198.838 119.552C199.286 119.552 199.702 119.631 200.084 119.79C200.467 119.939 200.789 120.205 201.05 120.588C201.228 120.849 201.33 121.12 201.358 121.4C201.396 121.671 201.414 121.955 201.414 122.254V127H200.574V122.268C200.574 121.615 200.43 121.125 200.14 120.798C199.851 120.471 199.37 120.308 198.698 120.308C198.437 120.308 198.199 120.35 197.984 120.434C197.77 120.509 197.574 120.611 197.396 120.742C197.228 120.873 197.084 121.022 196.962 121.19C196.841 121.358 196.748 121.535 196.682 121.722C196.598 121.955 196.547 122.179 196.528 122.394C196.51 122.609 196.5 122.842 196.5 123.094V127ZM209.04 123.346C209.04 122.935 208.984 122.548 208.872 122.184C208.76 121.811 208.596 121.489 208.382 121.218C208.176 120.938 207.92 120.719 207.612 120.56C207.313 120.392 206.972 120.308 206.59 120.308C206.151 120.308 205.773 120.397 205.456 120.574C205.138 120.742 204.877 120.975 204.672 121.274C204.466 121.573 204.317 121.923 204.224 122.324C204.13 122.716 204.093 123.141 204.112 123.598C204.112 124.055 204.172 124.461 204.294 124.816C204.424 125.161 204.602 125.455 204.826 125.698C205.05 125.941 205.311 126.127 205.61 126.258C205.908 126.379 206.235 126.44 206.59 126.44C206.982 126.44 207.332 126.361 207.64 126.202C207.948 126.043 208.204 125.829 208.41 125.558C208.615 125.278 208.769 124.951 208.872 124.578C208.984 124.195 209.04 123.785 209.04 123.346ZM209.04 116.92H209.88V127H209.04V125.726H209.012C208.89 125.969 208.732 126.183 208.536 126.37C208.349 126.547 208.139 126.697 207.906 126.818C207.682 126.939 207.448 127.033 207.206 127.098C206.963 127.163 206.725 127.196 206.492 127.196C205.904 127.196 205.404 127.098 204.994 126.902C204.583 126.706 204.242 126.44 203.972 126.104C203.71 125.759 203.519 125.353 203.398 124.886C203.276 124.419 203.216 123.92 203.216 123.388C203.216 122.884 203.281 122.399 203.412 121.932C203.542 121.465 203.738 121.059 204 120.714C204.27 120.359 204.606 120.079 205.008 119.874C205.418 119.659 205.899 119.552 206.45 119.552C206.963 119.552 207.453 119.669 207.92 119.902C208.396 120.126 208.769 120.462 209.04 120.91V116.92ZM216.744 123.192C216.39 123.341 216.03 123.439 215.666 123.486C215.302 123.533 214.938 123.57 214.574 123.598C213.93 123.645 213.426 123.789 213.062 124.032C212.708 124.275 212.53 124.643 212.53 125.138C212.53 125.362 212.572 125.558 212.656 125.726C212.75 125.885 212.866 126.02 213.006 126.132C213.156 126.235 213.324 126.314 213.51 126.37C213.706 126.417 213.902 126.44 214.098 126.44C214.434 126.44 214.761 126.398 215.078 126.314C215.396 126.23 215.676 126.104 215.918 125.936C216.17 125.759 216.371 125.539 216.52 125.278C216.67 125.007 216.744 124.69 216.744 124.326V123.192ZM215.33 122.772C215.489 122.753 215.676 122.725 215.89 122.688C216.114 122.651 216.296 122.599 216.436 122.534C216.576 122.469 216.66 122.361 216.688 122.212C216.726 122.053 216.744 121.909 216.744 121.778C216.744 121.349 216.604 120.999 216.324 120.728C216.054 120.448 215.592 120.308 214.938 120.308C214.649 120.308 214.383 120.336 214.14 120.392C213.898 120.439 213.683 120.527 213.496 120.658C213.319 120.779 213.17 120.947 213.048 121.162C212.936 121.367 212.862 121.629 212.824 121.946H211.97C211.998 121.517 212.096 121.153 212.264 120.854C212.432 120.546 212.647 120.299 212.908 120.112C213.179 119.916 213.487 119.776 213.832 119.692C214.187 119.599 214.56 119.552 214.952 119.552C215.316 119.552 215.657 119.594 215.974 119.678C216.301 119.753 216.581 119.879 216.814 120.056C217.057 120.224 217.244 120.453 217.374 120.742C217.514 121.031 217.584 121.386 217.584 121.806V125.754C217.584 126.081 217.64 126.291 217.752 126.384C217.874 126.468 218.112 126.445 218.466 126.314V126.972C218.401 126.991 218.303 127.019 218.172 127.056C218.051 127.093 217.93 127.112 217.808 127.112C217.678 127.112 217.552 127.098 217.43 127.07C217.29 127.051 217.178 127.009 217.094 126.944C217.01 126.869 216.94 126.785 216.884 126.692C216.838 126.589 216.805 126.482 216.786 126.37C216.768 126.249 216.758 126.123 216.758 125.992C216.404 126.384 215.998 126.683 215.54 126.888C215.083 127.093 214.588 127.196 214.056 127.196C213.739 127.196 213.431 127.154 213.132 127.07C212.843 126.986 212.586 126.855 212.362 126.678C212.138 126.501 211.961 126.286 211.83 126.034C211.7 125.773 211.634 125.465 211.634 125.11C211.634 123.878 212.479 123.15 214.168 122.926L215.33 122.772ZM25.498 144.732C25.6287 145.357 25.862 145.801 26.198 146.062C26.5433 146.314 27.0333 146.44 27.668 146.44C27.976 146.44 28.242 146.403 28.466 146.328C28.69 146.253 28.872 146.155 29.012 146.034C29.1613 145.903 29.2733 145.759 29.348 145.6C29.4227 145.441 29.46 145.273 29.46 145.096C29.46 144.741 29.3433 144.48 29.11 144.312C28.886 144.135 28.6013 143.999 28.256 143.906C27.9107 143.803 27.5373 143.719 27.136 143.654C26.7347 143.579 26.3613 143.472 26.016 143.332C25.6707 143.192 25.3813 142.991 25.148 142.73C24.924 142.469 24.812 142.1 24.812 141.624C24.812 141.017 25.0313 140.523 25.47 140.14C25.918 139.748 26.548 139.552 27.36 139.552C28.144 139.552 28.7787 139.729 29.264 140.084C29.7587 140.429 30.0573 141.013 30.16 141.834H29.306C29.2313 141.274 29.0167 140.882 28.662 140.658C28.3167 140.425 27.878 140.308 27.346 140.308C26.814 140.308 26.408 140.425 26.128 140.658C25.848 140.882 25.708 141.181 25.708 141.554C25.708 141.881 25.82 142.133 26.044 142.31C26.2773 142.478 26.5667 142.618 26.912 142.73C27.2573 142.833 27.6307 142.926 28.032 143.01C28.4333 143.094 28.8067 143.215 29.152 143.374C29.4973 143.523 29.782 143.729 30.006 143.99C30.2393 144.251 30.356 144.615 30.356 145.082C30.356 145.427 30.2813 145.735 30.132 146.006C29.9827 146.267 29.7773 146.487 29.516 146.664C29.2547 146.841 28.942 146.972 28.578 147.056C28.2233 147.149 27.8313 147.196 27.402 147.196C26.9727 147.196 26.59 147.131 26.254 147C25.9273 146.879 25.6473 146.706 25.414 146.482C25.1807 146.258 24.9987 145.997 24.868 145.698C24.7373 145.399 24.6627 145.077 24.644 144.732H25.498ZM37.258 142.87C37.258 142.515 37.2067 142.184 37.104 141.876C37.0107 141.559 36.866 141.288 36.67 141.064C36.4833 140.831 36.2453 140.649 35.956 140.518C35.6667 140.378 35.3353 140.308 34.962 140.308C34.5887 140.308 34.2573 140.378 33.968 140.518C33.688 140.658 33.4453 140.845 33.24 141.078C33.044 141.311 32.8853 141.582 32.764 141.89C32.6427 142.198 32.5633 142.525 32.526 142.87H37.258ZM32.526 143.57C32.526 143.962 32.5773 144.335 32.68 144.69C32.7827 145.035 32.932 145.339 33.128 145.6C33.3333 145.852 33.59 146.057 33.898 146.216C34.206 146.365 34.5607 146.44 34.962 146.44C35.5127 146.44 35.984 146.295 36.376 146.006C36.768 145.717 37.0293 145.306 37.16 144.774H38.098C37.9953 145.119 37.86 145.441 37.692 145.74C37.524 146.029 37.314 146.286 37.062 146.51C36.81 146.725 36.5113 146.893 36.166 147.014C35.8207 147.135 35.4193 147.196 34.962 147.196C34.3833 147.196 33.884 147.098 33.464 146.902C33.044 146.706 32.6987 146.44 32.428 146.104C32.1573 145.759 31.9567 145.357 31.826 144.9C31.6953 144.433 31.63 143.934 31.63 143.402C31.63 142.87 31.7047 142.371 31.854 141.904C32.0127 141.437 32.232 141.031 32.512 140.686C32.8013 140.331 33.1513 140.056 33.562 139.86C33.9727 139.655 34.4393 139.552 34.962 139.552C35.9607 139.552 36.7447 139.897 37.314 140.588C37.8833 141.269 38.1633 142.263 38.154 143.57H32.526ZM39.9133 147V136.92H40.7533V147H39.9133ZM47.6368 143.192C47.2821 143.341 46.9228 143.439 46.5588 143.486C46.1948 143.533 45.8308 143.57 45.4668 143.598C44.8228 143.645 44.3188 143.789 43.9548 144.032C43.6001 144.275 43.4228 144.643 43.4228 145.138C43.4228 145.362 43.4648 145.558 43.5488 145.726C43.6421 145.885 43.7588 146.02 43.8988 146.132C44.0481 146.235 44.2161 146.314 44.4028 146.37C44.5988 146.417 44.7948 146.44 44.9908 146.44C45.3268 146.44 45.6535 146.398 45.9708 146.314C46.2881 146.23 46.5681 146.104 46.8108 145.936C47.0628 145.759 47.2635 145.539 47.4128 145.278C47.5621 145.007 47.6368 144.69 47.6368 144.326V143.192ZM46.2228 142.772C46.3815 142.753 46.5681 142.725 46.7828 142.688C47.0068 142.651 47.1888 142.599 47.3288 142.534C47.4688 142.469 47.5528 142.361 47.5808 142.212C47.6181 142.053 47.6368 141.909 47.6368 141.778C47.6368 141.349 47.4968 140.999 47.2168 140.728C46.9461 140.448 46.4841 140.308 45.8308 140.308C45.5415 140.308 45.2755 140.336 45.0328 140.392C44.7901 140.439 44.5755 140.527 44.3888 140.658C44.2115 140.779 44.0621 140.947 43.9408 141.162C43.8288 141.367 43.7541 141.629 43.7168 141.946H42.8628C42.8908 141.517 42.9888 141.153 43.1568 140.854C43.3248 140.546 43.5395 140.299 43.8008 140.112C44.0715 139.916 44.3795 139.776 44.7248 139.692C45.0795 139.599 45.4528 139.552 45.8448 139.552C46.2088 139.552 46.5495 139.594 46.8668 139.678C47.1935 139.753 47.4735 139.879 47.7068 140.056C47.9495 140.224 48.1361 140.453 48.2668 140.742C48.4068 141.031 48.4768 141.386 48.4768 141.806V145.754C48.4768 146.081 48.5328 146.291 48.6448 146.384C48.7661 146.468 49.0041 146.445 49.3588 146.314V146.972C49.2935 146.991 49.1955 147.019 49.0648 147.056C48.9435 147.093 48.8221 147.112 48.7008 147.112C48.5701 147.112 48.4441 147.098 48.3228 147.07C48.1828 147.051 48.0708 147.009 47.9868 146.944C47.9028 146.869 47.8328 146.785 47.7768 146.692C47.7301 146.589 47.6975 146.482 47.6788 146.37C47.6601 146.249 47.6508 146.123 47.6508 145.992C47.2961 146.384 46.8901 146.683 46.4328 146.888C45.9755 147.093 45.4808 147.196 44.9488 147.196C44.6315 147.196 44.3235 147.154 44.0248 147.07C43.7355 146.986 43.4788 146.855 43.2548 146.678C43.0308 146.501 42.8535 146.286 42.7228 146.034C42.5921 145.773 42.5268 145.465 42.5268 145.11C42.5268 143.878 43.3715 143.15 45.0608 142.926L46.2228 142.772ZM51.3981 147H50.5581V139.748H51.3981V140.84H51.4261C51.6408 140.42 51.9488 140.103 52.3501 139.888C52.7514 139.664 53.1901 139.552 53.6661 139.552C54.0021 139.552 54.2868 139.589 54.5201 139.664C54.7534 139.739 54.9494 139.841 55.1081 139.972C55.2761 140.093 55.4114 140.238 55.5141 140.406C55.6261 140.574 55.7194 140.756 55.7941 140.952C56.0368 140.476 56.3588 140.126 56.7601 139.902C57.1708 139.669 57.6374 139.552 58.1601 139.552C58.6548 139.552 59.0468 139.636 59.3361 139.804C59.6348 139.963 59.8634 140.177 60.0221 140.448C60.1808 140.709 60.2834 141.013 60.3301 141.358C60.3861 141.703 60.4141 142.058 60.4141 142.422V147H59.5741V141.988C59.5741 141.465 59.4621 141.055 59.2381 140.756C59.0234 140.457 58.6174 140.308 58.0201 140.308C57.7121 140.308 57.4134 140.378 57.1241 140.518C56.8441 140.649 56.5968 140.854 56.3821 141.134C56.2888 141.255 56.2094 141.4 56.1441 141.568C56.0881 141.727 56.0414 141.895 56.0041 142.072C55.9668 142.249 55.9388 142.427 55.9201 142.604C55.9108 142.781 55.9061 142.945 55.9061 143.094V147H55.0661V141.988C55.0661 141.465 54.9541 141.055 54.7301 140.756C54.5154 140.457 54.1094 140.308 53.5121 140.308C53.2041 140.308 52.9054 140.378 52.6161 140.518C52.3361 140.649 52.0888 140.854 51.8741 141.134C51.7808 141.255 51.7014 141.4 51.6361 141.568C51.5801 141.727 51.5334 141.895 51.4961 142.072C51.4588 142.249 51.4308 142.427 51.4121 142.604C51.4028 142.781 51.3981 142.945 51.3981 143.094V147ZM67.0782 143.192C66.7236 143.341 66.3642 143.439 66.0002 143.486C65.6362 143.533 65.2722 143.57 64.9082 143.598C64.2642 143.645 63.7602 143.789 63.3962 144.032C63.0416 144.275 62.8642 144.643 62.8642 145.138C62.8642 145.362 62.9062 145.558 62.9902 145.726C63.0836 145.885 63.2002 146.02 63.3402 146.132C63.4896 146.235 63.6576 146.314 63.8442 146.37C64.0402 146.417 64.2362 146.44 64.4322 146.44C64.7682 146.44 65.0949 146.398 65.4122 146.314C65.7296 146.23 66.0096 146.104 66.2522 145.936C66.5042 145.759 66.7049 145.539 66.8542 145.278C67.0036 145.007 67.0782 144.69 67.0782 144.326V143.192ZM65.6642 142.772C65.8229 142.753 66.0096 142.725 66.2242 142.688C66.4482 142.651 66.6302 142.599 66.7702 142.534C66.9102 142.469 66.9942 142.361 67.0222 142.212C67.0596 142.053 67.0782 141.909 67.0782 141.778C67.0782 141.349 66.9382 140.999 66.6582 140.728C66.3876 140.448 65.9256 140.308 65.2722 140.308C64.9829 140.308 64.7169 140.336 64.4742 140.392C64.2316 140.439 64.0169 140.527 63.8302 140.658C63.6529 140.779 63.5036 140.947 63.3822 141.162C63.2702 141.367 63.1956 141.629 63.1582 141.946H62.3042C62.3322 141.517 62.4302 141.153 62.5982 140.854C62.7662 140.546 62.9809 140.299 63.2422 140.112C63.5129 139.916 63.8209 139.776 64.1662 139.692C64.5209 139.599 64.8942 139.552 65.2862 139.552C65.6502 139.552 65.9909 139.594 66.3082 139.678C66.6349 139.753 66.9149 139.879 67.1482 140.056C67.3909 140.224 67.5776 140.453 67.7082 140.742C67.8482 141.031 67.9182 141.386 67.9182 141.806V145.754C67.9182 146.081 67.9742 146.291 68.0862 146.384C68.2076 146.468 68.4456 146.445 68.8002 146.314V146.972C68.7349 146.991 68.6369 147.019 68.5062 147.056C68.3849 147.093 68.2636 147.112 68.1422 147.112C68.0116 147.112 67.8856 147.098 67.7642 147.07C67.6242 147.051 67.5122 147.009 67.4282 146.944C67.3442 146.869 67.2742 146.785 67.2182 146.692C67.1716 146.589 67.1389 146.482 67.1202 146.37C67.1016 146.249 67.0922 146.123 67.0922 145.992C66.7376 146.384 66.3316 146.683 65.8742 146.888C65.4169 147.093 64.9222 147.196 64.3902 147.196C64.0729 147.196 63.7649 147.154 63.4662 147.07C63.1769 146.986 62.9202 146.855 62.6962 146.678C62.4722 146.501 62.2949 146.286 62.1642 146.034C62.0336 145.773 61.9682 145.465 61.9682 145.11C61.9682 143.878 62.8129 143.15 64.5022 142.926L65.6642 142.772ZM73.966 140.364C73.966 139.879 74.0407 139.44 74.19 139.048C74.3393 138.647 74.554 138.306 74.834 138.026C75.114 137.737 75.45 137.517 75.842 137.368C76.2433 137.209 76.6867 137.13 77.172 137.13C77.6667 137.13 78.1007 137.205 78.474 137.354C78.8567 137.494 79.174 137.685 79.426 137.928C79.6873 138.171 79.8833 138.46 80.014 138.796C80.1447 139.132 80.21 139.487 80.21 139.86C80.21 140.299 80.1353 140.686 79.986 141.022C79.846 141.358 79.6547 141.657 79.412 141.918C79.1787 142.179 78.908 142.413 78.6 142.618C78.3013 142.823 77.9933 143.019 77.676 143.206C77.3587 143.383 77.046 143.556 76.738 143.724C76.43 143.892 76.1547 144.069 75.912 144.256C75.7533 144.377 75.5993 144.508 75.45 144.648C75.3007 144.779 75.1653 144.923 75.044 145.082C74.9227 145.241 74.8247 145.418 74.75 145.614C74.6753 145.801 74.6333 146.011 74.624 146.244H80.126V147H73.672C73.6813 146.524 73.7327 146.095 73.826 145.712C73.9193 145.329 74.1247 144.956 74.442 144.592C74.7873 144.2 75.142 143.864 75.506 143.584C75.8793 143.304 76.2433 143.057 76.598 142.842C76.9527 142.618 77.2887 142.417 77.606 142.24C77.9233 142.053 78.2033 141.853 78.446 141.638C78.6887 141.423 78.88 141.181 79.02 140.91C79.16 140.639 79.23 140.308 79.23 139.916C79.23 139.599 79.174 139.314 79.062 139.062C78.95 138.81 78.796 138.595 78.6 138.418C78.404 138.241 78.1753 138.11 77.914 138.026C77.6527 137.933 77.368 137.886 77.06 137.886C76.7333 137.886 76.4347 137.956 76.164 138.096C75.9027 138.227 75.674 138.404 75.478 138.628C75.2913 138.852 75.1467 139.113 75.044 139.412C74.9413 139.711 74.8993 140.028 74.918 140.364H73.966ZM85.7913 144.564H81.2833V143.794L85.8753 137.228H86.6873V143.808H88.0593V144.564H86.6873V147H85.7913V144.564ZM82.1653 143.808H85.7913V138.572L82.1653 143.808ZM94.5271 139.748V147.966C94.5271 148.274 94.5131 148.545 94.4851 148.778C94.4571 149.011 94.3917 149.207 94.2891 149.366C94.1957 149.534 94.0511 149.655 93.8551 149.73C93.6684 149.814 93.4071 149.856 93.0711 149.856C92.8657 149.856 92.6837 149.837 92.5251 149.8V149.058C92.7677 149.086 92.9637 149.086 93.1131 149.058C93.2624 149.039 93.3791 148.988 93.4631 148.904C93.5471 148.82 93.6031 148.708 93.6311 148.568C93.6684 148.428 93.6871 148.265 93.6871 148.078V139.748H94.5271ZM94.5691 138.166H93.6451V136.92H94.5691V138.166ZM101.313 143.192C100.958 143.341 100.599 143.439 100.235 143.486C99.8706 143.533 99.5066 143.57 99.1426 143.598C98.4986 143.645 97.9946 143.789 97.6306 144.032C97.2759 144.275 97.0986 144.643 97.0986 145.138C97.0986 145.362 97.1406 145.558 97.2246 145.726C97.3179 145.885 97.4346 146.02 97.5746 146.132C97.7239 146.235 97.8919 146.314 98.0786 146.37C98.2746 146.417 98.4706 146.44 98.6666 146.44C99.0026 146.44 99.3293 146.398 99.6466 146.314C99.9639 146.23 100.244 146.104 100.487 145.936C100.739 145.759 100.939 145.539 101.089 145.278C101.238 145.007 101.313 144.69 101.313 144.326V143.192ZM99.8986 142.772C100.057 142.753 100.244 142.725 100.459 142.688C100.683 142.651 100.865 142.599 101.005 142.534C101.145 142.469 101.229 142.361 101.257 142.212C101.294 142.053 101.313 141.909 101.313 141.778C101.313 141.349 101.173 140.999 100.893 140.728C100.622 140.448 100.16 140.308 99.5066 140.308C99.2173 140.308 98.9513 140.336 98.7086 140.392C98.4659 140.439 98.2513 140.527 98.0646 140.658C97.8873 140.779 97.7379 140.947 97.6166 141.162C97.5046 141.367 97.4299 141.629 97.3926 141.946H96.5386C96.5666 141.517 96.6646 141.153 96.8326 140.854C97.0006 140.546 97.2153 140.299 97.4766 140.112C97.7473 139.916 98.0553 139.776 98.4006 139.692C98.7553 139.599 99.1286 139.552 99.5206 139.552C99.8846 139.552 100.225 139.594 100.543 139.678C100.869 139.753 101.149 139.879 101.383 140.056C101.625 140.224 101.812 140.453 101.943 140.742C102.083 141.031 102.153 141.386 102.153 141.806V145.754C102.153 146.081 102.209 146.291 102.321 146.384C102.442 146.468 102.68 146.445 103.035 146.314V146.972C102.969 146.991 102.871 147.019 102.741 147.056C102.619 147.093 102.498 147.112 102.377 147.112C102.246 147.112 102.12 147.098 101.999 147.07C101.859 147.051 101.747 147.009 101.663 146.944C101.579 146.869 101.509 146.785 101.453 146.692C101.406 146.589 101.373 146.482 101.355 146.37C101.336 146.249 101.327 146.123 101.327 145.992C100.972 146.384 100.566 146.683 100.109 146.888C99.6513 147.093 99.1566 147.196 98.6246 147.196C98.3073 147.196 97.9993 147.154 97.7006 147.07C97.4113 146.986 97.1546 146.855 96.9306 146.678C96.7066 146.501 96.5293 146.286 96.3986 146.034C96.2679 145.773 96.2026 145.465 96.2026 145.11C96.2026 143.878 97.0473 143.15 98.7366 142.926L99.8986 142.772ZM105.074 147H104.234V139.748H105.074V140.84H105.102C105.317 140.42 105.625 140.103 106.026 139.888C106.427 139.664 106.866 139.552 107.342 139.552C107.678 139.552 107.963 139.589 108.196 139.664C108.429 139.739 108.625 139.841 108.784 139.972C108.952 140.093 109.087 140.238 109.19 140.406C109.302 140.574 109.395 140.756 109.47 140.952C109.713 140.476 110.035 140.126 110.436 139.902C110.847 139.669 111.313 139.552 111.836 139.552C112.331 139.552 112.723 139.636 113.012 139.804C113.311 139.963 113.539 140.177 113.698 140.448C113.857 140.709 113.959 141.013 114.006 141.358C114.062 141.703 114.09 142.058 114.09 142.422V147H113.25V141.988C113.25 141.465 113.138 141.055 112.914 140.756C112.699 140.457 112.293 140.308 111.696 140.308C111.388 140.308 111.089 140.378 110.8 140.518C110.52 140.649 110.273 140.854 110.058 141.134C109.965 141.255 109.885 141.4 109.82 141.568C109.764 141.727 109.717 141.895 109.68 142.072C109.643 142.249 109.615 142.427 109.596 142.604C109.587 142.781 109.582 142.945 109.582 143.094V147H108.742V141.988C108.742 141.465 108.63 141.055 108.406 140.756C108.191 140.457 107.785 140.308 107.188 140.308C106.88 140.308 106.581 140.378 106.292 140.518C106.012 140.649 105.765 140.854 105.55 141.134C105.457 141.255 105.377 141.4 105.312 141.568C105.256 141.727 105.209 141.895 105.172 142.072C105.135 142.249 105.107 142.427 105.088 142.604C105.079 142.781 105.074 142.945 105.074 143.094V147ZM120.744 147H119.904V139.748H120.744V140.756C121.08 140.401 121.426 140.112 121.78 139.888C122.144 139.664 122.578 139.552 123.082 139.552C123.53 139.552 123.946 139.631 124.328 139.79C124.711 139.939 125.033 140.205 125.294 140.588C125.472 140.849 125.574 141.12 125.602 141.4C125.64 141.671 125.658 141.955 125.658 142.254V147H124.818V142.268C124.818 141.615 124.674 141.125 124.384 140.798C124.095 140.471 123.614 140.308 122.942 140.308C122.681 140.308 122.443 140.35 122.228 140.434C122.014 140.509 121.818 140.611 121.64 140.742C121.472 140.873 121.328 141.022 121.206 141.19C121.085 141.358 120.992 141.535 120.926 141.722C120.842 141.955 120.791 142.179 120.772 142.394C120.754 142.609 120.744 142.842 120.744 143.094V147ZM130.568 147.196C130.101 147.187 129.662 147.103 129.252 146.944C128.85 146.785 128.496 146.547 128.188 146.23C127.889 145.913 127.651 145.516 127.474 145.04C127.296 144.564 127.208 144.009 127.208 143.374C127.208 142.842 127.278 142.347 127.418 141.89C127.558 141.423 127.768 141.017 128.048 140.672C128.328 140.327 128.678 140.056 129.098 139.86C129.518 139.655 130.008 139.552 130.568 139.552C131.137 139.552 131.632 139.655 132.052 139.86C132.472 140.056 132.822 140.327 133.102 140.672C133.382 141.008 133.587 141.409 133.718 141.876C133.858 142.343 133.928 142.842 133.928 143.374C133.928 143.953 133.848 144.475 133.69 144.942C133.531 145.409 133.302 145.81 133.004 146.146C132.714 146.482 132.36 146.743 131.94 146.93C131.529 147.107 131.072 147.196 130.568 147.196ZM133.032 143.374C133.032 142.945 132.985 142.543 132.892 142.17C132.798 141.797 132.654 141.475 132.458 141.204C132.262 140.924 132.01 140.705 131.702 140.546C131.394 140.387 131.016 140.308 130.568 140.308C130.129 140.308 129.751 140.397 129.434 140.574C129.126 140.742 128.874 140.971 128.678 141.26C128.482 141.54 128.337 141.867 128.244 142.24C128.15 142.604 128.104 142.982 128.104 143.374C128.104 143.822 128.155 144.237 128.258 144.62C128.37 144.993 128.528 145.315 128.734 145.586C128.939 145.857 129.196 146.067 129.504 146.216C129.812 146.365 130.166 146.44 130.568 146.44C131.006 146.44 131.38 146.356 131.688 146.188C132.005 146.011 132.262 145.777 132.458 145.488C132.654 145.199 132.798 144.872 132.892 144.508C132.985 144.144 133.032 143.766 133.032 143.374ZM136.303 147H135.463V139.748H136.303V140.756C136.639 140.401 136.984 140.112 137.339 139.888C137.703 139.664 138.137 139.552 138.641 139.552C139.089 139.552 139.504 139.631 139.887 139.79C140.27 139.939 140.592 140.205 140.853 140.588C141.03 140.849 141.133 141.12 141.161 141.4C141.198 141.671 141.217 141.955 141.217 142.254V147H140.377V142.268C140.377 141.615 140.232 141.125 139.943 140.798C139.654 140.471 139.173 140.308 138.501 140.308C138.24 140.308 138.002 140.35 137.787 140.434C137.572 140.509 137.376 140.611 137.199 140.742C137.031 140.873 136.886 141.022 136.765 141.19C136.644 141.358 136.55 141.535 136.485 141.722C136.401 141.955 136.35 142.179 136.331 142.394C136.312 142.609 136.303 142.842 136.303 143.094V147ZM143.732 144.732C143.863 145.357 144.096 145.801 144.432 146.062C144.778 146.314 145.268 146.44 145.902 146.44C146.21 146.44 146.476 146.403 146.7 146.328C146.924 146.253 147.106 146.155 147.246 146.034C147.396 145.903 147.508 145.759 147.582 145.6C147.657 145.441 147.694 145.273 147.694 145.096C147.694 144.741 147.578 144.48 147.344 144.312C147.12 144.135 146.836 143.999 146.49 143.906C146.145 143.803 145.772 143.719 145.37 143.654C144.969 143.579 144.596 143.472 144.25 143.332C143.905 143.192 143.616 142.991 143.382 142.73C143.158 142.469 143.046 142.1 143.046 141.624C143.046 141.017 143.266 140.523 143.704 140.14C144.152 139.748 144.782 139.552 145.594 139.552C146.378 139.552 147.013 139.729 147.498 140.084C147.993 140.429 148.292 141.013 148.394 141.834H147.54C147.466 141.274 147.251 140.882 146.896 140.658C146.551 140.425 146.112 140.308 145.58 140.308C145.048 140.308 144.642 140.425 144.362 140.658C144.082 140.882 143.942 141.181 143.942 141.554C143.942 141.881 144.054 142.133 144.278 142.31C144.512 142.478 144.801 142.618 145.146 142.73C145.492 142.833 145.865 142.926 146.266 143.01C146.668 143.094 147.041 143.215 147.386 143.374C147.732 143.523 148.016 143.729 148.24 143.99C148.474 144.251 148.59 144.615 148.59 145.082C148.59 145.427 148.516 145.735 148.366 146.006C148.217 146.267 148.012 146.487 147.75 146.664C147.489 146.841 147.176 146.972 146.812 147.056C146.458 147.149 146.066 147.196 145.636 147.196C145.207 147.196 144.824 147.131 144.488 147C144.162 146.879 143.882 146.706 143.648 146.482C143.415 146.258 143.233 145.997 143.102 145.698C142.972 145.399 142.897 145.077 142.878 144.732H143.732ZM152.79 147.028C152.688 147.047 152.552 147.079 152.384 147.126C152.216 147.173 152.03 147.196 151.824 147.196C151.404 147.196 151.082 147.093 150.858 146.888C150.644 146.673 150.536 146.295 150.536 145.754V140.448H149.514V139.748H150.536V137.732H151.376V139.748H152.734V140.448H151.376V145.418C151.376 145.595 151.381 145.749 151.39 145.88C151.4 146.011 151.428 146.118 151.474 146.202C151.521 146.286 151.591 146.347 151.684 146.384C151.787 146.421 151.927 146.44 152.104 146.44C152.216 146.44 152.328 146.431 152.44 146.412C152.562 146.393 152.678 146.37 152.79 146.342V147.028ZM157.023 147.196C156.556 147.187 156.118 147.103 155.707 146.944C155.306 146.785 154.951 146.547 154.643 146.23C154.344 145.913 154.106 145.516 153.929 145.04C153.752 144.564 153.663 144.009 153.663 143.374C153.663 142.842 153.733 142.347 153.873 141.89C154.013 141.423 154.223 141.017 154.503 140.672C154.783 140.327 155.133 140.056 155.553 139.86C155.973 139.655 156.463 139.552 157.023 139.552C157.592 139.552 158.087 139.655 158.507 139.86C158.927 140.056 159.277 140.327 159.557 140.672C159.837 141.008 160.042 141.409 160.173 141.876C160.313 142.343 160.383 142.842 160.383 143.374C160.383 143.953 160.304 144.475 160.145 144.942C159.986 145.409 159.758 145.81 159.459 146.146C159.17 146.482 158.815 146.743 158.395 146.93C157.984 147.107 157.527 147.196 157.023 147.196ZM159.487 143.374C159.487 142.945 159.44 142.543 159.347 142.17C159.254 141.797 159.109 141.475 158.913 141.204C158.717 140.924 158.465 140.705 158.157 140.546C157.849 140.387 157.471 140.308 157.023 140.308C156.584 140.308 156.206 140.397 155.889 140.574C155.581 140.742 155.329 140.971 155.133 141.26C154.937 141.54 154.792 141.867 154.699 142.24C154.606 142.604 154.559 142.982 154.559 143.374C154.559 143.822 154.61 144.237 154.713 144.62C154.825 144.993 154.984 145.315 155.189 145.586C155.394 145.857 155.651 146.067 155.959 146.216C156.267 146.365 156.622 146.44 157.023 146.44C157.462 146.44 157.835 146.356 158.143 146.188C158.46 146.011 158.717 145.777 158.913 145.488C159.109 145.199 159.254 144.872 159.347 144.508C159.44 144.144 159.487 143.766 159.487 143.374ZM162.856 143.402C162.856 143.813 162.912 144.205 163.024 144.578C163.136 144.942 163.295 145.264 163.5 145.544C163.715 145.815 163.971 146.034 164.27 146.202C164.578 146.361 164.923 146.44 165.306 146.44C165.735 146.44 166.109 146.356 166.426 146.188C166.753 146.011 167.019 145.773 167.224 145.474C167.429 145.175 167.579 144.83 167.672 144.438C167.765 144.037 167.803 143.607 167.784 143.15C167.784 142.693 167.719 142.291 167.588 141.946C167.467 141.591 167.294 141.293 167.07 141.05C166.846 140.807 166.585 140.625 166.286 140.504C165.987 140.373 165.661 140.308 165.306 140.308C164.914 140.308 164.564 140.387 164.256 140.546C163.948 140.705 163.691 140.924 163.486 141.204C163.281 141.475 163.122 141.801 163.01 142.184C162.907 142.557 162.856 142.963 162.856 143.402ZM162.856 149.856H162.016V139.748H162.856V141.022H162.884C163.005 140.789 163.159 140.579 163.346 140.392C163.542 140.205 163.752 140.051 163.976 139.93C164.209 139.809 164.447 139.715 164.69 139.65C164.933 139.585 165.171 139.552 165.404 139.552C165.992 139.552 166.491 139.65 166.902 139.846C167.313 140.042 167.649 140.313 167.91 140.658C168.181 140.994 168.377 141.395 168.498 141.862C168.619 142.329 168.68 142.828 168.68 143.36C168.68 143.864 168.615 144.349 168.484 144.816C168.353 145.283 168.153 145.693 167.882 146.048C167.621 146.393 167.285 146.673 166.874 146.888C166.473 147.093 165.997 147.196 165.446 147.196C164.933 147.196 164.438 147.084 163.962 146.86C163.495 146.627 163.127 146.286 162.856 145.838V149.856ZM170.897 147V145.768H171.919V147H170.897ZM178.452 147V136.92H179.404V142.142L184.57 136.92H185.648L181.672 140.938L186.348 147H185.186L180.986 141.526L179.404 143.108V147H178.452ZM192.354 143.192C191.999 143.341 191.64 143.439 191.276 143.486C190.912 143.533 190.548 143.57 190.184 143.598C189.54 143.645 189.036 143.789 188.672 144.032C188.317 144.275 188.14 144.643 188.14 145.138C188.14 145.362 188.182 145.558 188.266 145.726C188.359 145.885 188.476 146.02 188.616 146.132C188.765 146.235 188.933 146.314 189.12 146.37C189.316 146.417 189.512 146.44 189.708 146.44C190.044 146.44 190.37 146.398 190.688 146.314C191.005 146.23 191.285 146.104 191.528 145.936C191.78 145.759 191.98 145.539 192.13 145.278C192.279 145.007 192.354 144.69 192.354 144.326V143.192ZM190.94 142.772C191.098 142.753 191.285 142.725 191.5 142.688C191.724 142.651 191.906 142.599 192.046 142.534C192.186 142.469 192.27 142.361 192.298 142.212C192.335 142.053 192.354 141.909 192.354 141.778C192.354 141.349 192.214 140.999 191.934 140.728C191.663 140.448 191.201 140.308 190.548 140.308C190.258 140.308 189.992 140.336 189.75 140.392C189.507 140.439 189.292 140.527 189.106 140.658C188.928 140.779 188.779 140.947 188.658 141.162C188.546 141.367 188.471 141.629 188.434 141.946H187.58C187.608 141.517 187.706 141.153 187.874 140.854C188.042 140.546 188.256 140.299 188.518 140.112C188.788 139.916 189.096 139.776 189.442 139.692C189.796 139.599 190.17 139.552 190.562 139.552C190.926 139.552 191.266 139.594 191.584 139.678C191.91 139.753 192.19 139.879 192.424 140.056C192.666 140.224 192.853 140.453 192.984 140.742C193.124 141.031 193.194 141.386 193.194 141.806V145.754C193.194 146.081 193.25 146.291 193.362 146.384C193.483 146.468 193.721 146.445 194.076 146.314V146.972C194.01 146.991 193.912 147.019 193.782 147.056C193.66 147.093 193.539 147.112 193.418 147.112C193.287 147.112 193.161 147.098 193.04 147.07C192.9 147.051 192.788 147.009 192.704 146.944C192.62 146.869 192.55 146.785 192.494 146.692C192.447 146.589 192.414 146.482 192.396 146.37C192.377 146.249 192.368 146.123 192.368 145.992C192.013 146.384 191.607 146.683 191.15 146.888C190.692 147.093 190.198 147.196 189.666 147.196C189.348 147.196 189.04 147.154 188.742 147.07C188.452 146.986 188.196 146.855 187.972 146.678C187.748 146.501 187.57 146.286 187.44 146.034C187.309 145.773 187.244 145.465 187.244 145.11C187.244 143.878 188.088 143.15 189.778 142.926L190.94 142.772ZM196.115 147H195.275V139.748H196.115V140.84H196.143C196.358 140.42 196.666 140.103 197.067 139.888C197.468 139.664 197.907 139.552 198.383 139.552C198.719 139.552 199.004 139.589 199.237 139.664C199.47 139.739 199.666 139.841 199.825 139.972C199.993 140.093 200.128 140.238 200.231 140.406C200.343 140.574 200.436 140.756 200.511 140.952C200.754 140.476 201.076 140.126 201.477 139.902C201.888 139.669 202.354 139.552 202.877 139.552C203.372 139.552 203.764 139.636 204.053 139.804C204.352 139.963 204.58 140.177 204.739 140.448C204.898 140.709 205 141.013 205.047 141.358C205.103 141.703 205.131 142.058 205.131 142.422V147H204.291V141.988C204.291 141.465 204.179 141.055 203.955 140.756C203.74 140.457 203.334 140.308 202.737 140.308C202.429 140.308 202.13 140.378 201.841 140.518C201.561 140.649 201.314 140.854 201.099 141.134C201.006 141.255 200.926 141.4 200.861 141.568C200.805 141.727 200.758 141.895 200.721 142.072C200.684 142.249 200.656 142.427 200.637 142.604C200.628 142.781 200.623 142.945 200.623 143.094V147H199.783V141.988C199.783 141.465 199.671 141.055 199.447 140.756C199.232 140.457 198.826 140.308 198.229 140.308C197.921 140.308 197.622 140.378 197.333 140.518C197.053 140.649 196.806 140.854 196.591 141.134C196.498 141.255 196.418 141.4 196.353 141.568C196.297 141.727 196.25 141.895 196.213 142.072C196.176 142.249 196.148 142.427 196.129 142.604C196.12 142.781 196.115 142.945 196.115 143.094V147ZM206.929 147V139.748H207.769V147H206.929ZM206.887 138.166V136.92H207.811V138.166H206.887ZM214.867 139.748V147.966C214.867 148.274 214.853 148.545 214.825 148.778C214.797 149.011 214.732 149.207 214.629 149.366C214.536 149.534 214.391 149.655 214.195 149.73C214.008 149.814 213.747 149.856 213.411 149.856C213.206 149.856 213.024 149.837 212.865 149.8V149.058C213.108 149.086 213.304 149.086 213.453 149.058C213.602 149.039 213.719 148.988 213.803 148.904C213.887 148.82 213.943 148.708 213.971 148.568C214.008 148.428 214.027 148.265 214.027 148.078V139.748H214.867ZM214.909 138.166H213.985V136.92H214.909V138.166ZM221.82 139.748H222.66V147H221.82V145.992C221.708 146.123 221.582 146.258 221.442 146.398C221.302 146.538 221.139 146.669 220.952 146.79C220.775 146.902 220.565 146.995 220.322 147.07C220.08 147.154 219.8 147.196 219.482 147.196C218.997 147.196 218.591 147.131 218.264 147C217.938 146.86 217.672 146.669 217.466 146.426C217.27 146.183 217.126 145.903 217.032 145.586C216.948 145.259 216.906 144.905 216.906 144.522V139.748H217.746V144.508C217.746 145.133 217.891 145.614 218.18 145.95C218.47 146.277 218.946 146.44 219.608 146.44C219.954 146.44 220.262 146.375 220.532 146.244C220.812 146.104 221.046 145.913 221.232 145.67C221.419 145.427 221.564 145.138 221.666 144.802C221.769 144.466 221.82 144.097 221.82 143.696V139.748ZM230.286 143.402C230.286 142.963 230.23 142.557 230.118 142.184C230.015 141.801 229.861 141.475 229.656 141.204C229.45 140.924 229.194 140.705 228.886 140.546C228.578 140.387 228.228 140.308 227.836 140.308C227.481 140.308 227.154 140.373 226.856 140.504C226.557 140.625 226.296 140.807 226.072 141.05C225.848 141.293 225.67 141.591 225.54 141.946C225.418 142.291 225.358 142.693 225.358 143.15C225.339 143.607 225.376 144.037 225.47 144.438C225.563 144.83 225.712 145.175 225.918 145.474C226.123 145.773 226.384 146.011 226.702 146.188C227.019 146.356 227.397 146.44 227.836 146.44C228.218 146.44 228.559 146.361 228.858 146.202C229.166 146.034 229.422 145.815 229.628 145.544C229.842 145.264 230.006 144.942 230.118 144.578C230.23 144.205 230.286 143.813 230.286 143.402ZM230.286 139.748H231.126V146.3C231.126 146.785 231.074 147.247 230.972 147.686C230.878 148.134 230.706 148.526 230.454 148.862C230.202 149.198 229.856 149.464 229.418 149.66C228.979 149.865 228.414 149.968 227.724 149.968C227.192 149.968 226.734 149.898 226.352 149.758C225.969 149.627 225.656 149.459 225.414 149.254C225.171 149.049 224.984 148.82 224.854 148.568C224.732 148.325 224.667 148.097 224.658 147.882H225.554C225.619 148.153 225.722 148.372 225.862 148.54C226.002 148.717 226.165 148.853 226.352 148.946C226.548 149.049 226.762 149.119 226.996 149.156C227.229 149.193 227.472 149.212 227.724 149.212C228.293 149.212 228.75 149.114 229.096 148.918C229.441 148.722 229.702 148.465 229.88 148.148C230.057 147.831 230.169 147.471 230.216 147.07C230.272 146.669 230.295 146.258 230.286 145.838C230.015 146.286 229.642 146.627 229.166 146.86C228.699 147.084 228.209 147.196 227.696 147.196C227.145 147.196 226.664 147.093 226.254 146.888C225.852 146.673 225.516 146.393 225.246 146.048C224.984 145.693 224.788 145.283 224.658 144.816C224.527 144.349 224.462 143.864 224.462 143.36C224.462 142.828 224.522 142.329 224.644 141.862C224.765 141.395 224.956 140.994 225.218 140.658C225.488 140.313 225.829 140.042 226.24 139.846C226.65 139.65 227.15 139.552 227.738 139.552C227.971 139.552 228.209 139.585 228.452 139.65C228.694 139.715 228.928 139.809 229.152 139.93C229.385 140.051 229.595 140.205 229.782 140.392C229.978 140.579 230.136 140.789 230.258 141.022H230.286V139.748ZM237.99 143.192C237.636 143.341 237.276 143.439 236.912 143.486C236.548 143.533 236.184 143.57 235.82 143.598C235.176 143.645 234.672 143.789 234.308 144.032C233.954 144.275 233.776 144.643 233.776 145.138C233.776 145.362 233.818 145.558 233.902 145.726C233.996 145.885 234.112 146.02 234.252 146.132C234.402 146.235 234.57 146.314 234.756 146.37C234.952 146.417 235.148 146.44 235.344 146.44C235.68 146.44 236.007 146.398 236.324 146.314C236.642 146.23 236.922 146.104 237.164 145.936C237.416 145.759 237.617 145.539 237.766 145.278C237.916 145.007 237.99 144.69 237.99 144.326V143.192ZM236.576 142.772C236.735 142.753 236.922 142.725 237.136 142.688C237.36 142.651 237.542 142.599 237.682 142.534C237.822 142.469 237.906 142.361 237.934 142.212C237.972 142.053 237.99 141.909 237.99 141.778C237.99 141.349 237.85 140.999 237.57 140.728C237.3 140.448 236.838 140.308 236.184 140.308C235.895 140.308 235.629 140.336 235.386 140.392C235.144 140.439 234.929 140.527 234.742 140.658C234.565 140.779 234.416 140.947 234.294 141.162C234.182 141.367 234.108 141.629 234.07 141.946H233.216C233.244 141.517 233.342 141.153 233.51 140.854C233.678 140.546 233.893 140.299 234.154 140.112C234.425 139.916 234.733 139.776 235.078 139.692C235.433 139.599 235.806 139.552 236.198 139.552C236.562 139.552 236.903 139.594 237.22 139.678C237.547 139.753 237.827 139.879 238.06 140.056C238.303 140.224 238.49 140.453 238.62 140.742C238.76 141.031 238.83 141.386 238.83 141.806V145.754C238.83 146.081 238.886 146.291 238.998 146.384C239.12 146.468 239.358 146.445 239.712 146.314V146.972C239.647 146.991 239.549 147.019 239.418 147.056C239.297 147.093 239.176 147.112 239.054 147.112C238.924 147.112 238.798 147.098 238.676 147.07C238.536 147.051 238.424 147.009 238.34 146.944C238.256 146.869 238.186 146.785 238.13 146.692C238.084 146.589 238.051 146.482 238.032 146.37C238.014 146.249 238.004 146.123 238.004 145.992C237.65 146.384 237.244 146.683 236.786 146.888C236.329 147.093 235.834 147.196 235.302 147.196C234.985 147.196 234.677 147.154 234.378 147.07C234.089 146.986 233.832 146.855 233.608 146.678C233.384 146.501 233.207 146.286 233.076 146.034C232.946 145.773 232.88 145.465 232.88 145.11C232.88 143.878 233.725 143.15 235.414 142.926L236.576 142.772ZM27.556 167.028C27.4533 167.047 27.318 167.079 27.15 167.126C26.982 167.173 26.7953 167.196 26.59 167.196C26.17 167.196 25.848 167.093 25.624 166.888C25.4093 166.673 25.302 166.295 25.302 165.754V160.448H24.28V159.748H25.302V157.732H26.142V159.748H27.5V160.448H26.142V165.418C26.142 165.595 26.1467 165.749 26.156 165.88C26.1653 166.011 26.1933 166.118 26.24 166.202C26.2867 166.286 26.3567 166.347 26.45 166.384C26.5527 166.421 26.6927 166.44 26.87 166.44C26.982 166.44 27.094 166.431 27.206 166.412C27.3273 166.393 27.444 166.37 27.556 166.342V167.028ZM34.1545 162.87C34.1545 162.515 34.1032 162.184 34.0005 161.876C33.9072 161.559 33.7625 161.288 33.5665 161.064C33.3798 160.831 33.1418 160.649 32.8525 160.518C32.5632 160.378 32.2318 160.308 31.8585 160.308C31.4852 160.308 31.1538 160.378 30.8645 160.518C30.5845 160.658 30.3418 160.845 30.1365 161.078C29.9405 161.311 29.7818 161.582 29.6605 161.89C29.5392 162.198 29.4598 162.525 29.4225 162.87H34.1545ZM29.4225 163.57C29.4225 163.962 29.4738 164.335 29.5765 164.69C29.6792 165.035 29.8285 165.339 30.0245 165.6C30.2298 165.852 30.4865 166.057 30.7945 166.216C31.1025 166.365 31.4572 166.44 31.8585 166.44C32.4092 166.44 32.8805 166.295 33.2725 166.006C33.6645 165.717 33.9258 165.306 34.0565 164.774H34.9945C34.8918 165.119 34.7565 165.441 34.5885 165.74C34.4205 166.029 34.2105 166.286 33.9585 166.51C33.7065 166.725 33.4078 166.893 33.0625 167.014C32.7172 167.135 32.3158 167.196 31.8585 167.196C31.2798 167.196 30.7805 167.098 30.3605 166.902C29.9405 166.706 29.5952 166.44 29.3245 166.104C29.0538 165.759 28.8532 165.357 28.7225 164.9C28.5918 164.433 28.5265 163.934 28.5265 163.402C28.5265 162.87 28.6012 162.371 28.7505 161.904C28.9092 161.437 29.1285 161.031 29.4085 160.686C29.6978 160.331 30.0478 160.056 30.4585 159.86C30.8692 159.655 31.3358 159.552 31.8585 159.552C32.8572 159.552 33.6412 159.897 34.2105 160.588C34.7798 161.269 35.0598 162.263 35.0505 163.57H29.4225ZM37.5658 167H36.7258V159.748H37.5658V161.106H37.5938C37.8271 160.527 38.1258 160.126 38.4898 159.902C38.8631 159.669 39.3531 159.552 39.9598 159.552V160.462C39.4838 160.453 39.0918 160.527 38.7838 160.686C38.4758 160.845 38.2284 161.059 38.0418 161.33C37.8644 161.601 37.7384 161.923 37.6638 162.296C37.5984 162.66 37.5658 163.043 37.5658 163.444V167ZM41.8359 164.732C41.9666 165.357 42.1999 165.801 42.5359 166.062C42.8812 166.314 43.3712 166.44 44.0059 166.44C44.3139 166.44 44.5799 166.403 44.8039 166.328C45.0279 166.253 45.2099 166.155 45.3499 166.034C45.4992 165.903 45.6112 165.759 45.6859 165.6C45.7606 165.441 45.7979 165.273 45.7979 165.096C45.7979 164.741 45.6812 164.48 45.4479 164.312C45.2239 164.135 44.9392 163.999 44.5939 163.906C44.2486 163.803 43.8752 163.719 43.4739 163.654C43.0726 163.579 42.6992 163.472 42.3539 163.332C42.0086 163.192 41.7192 162.991 41.4859 162.73C41.2619 162.469 41.1499 162.1 41.1499 161.624C41.1499 161.017 41.3692 160.523 41.8079 160.14C42.2559 159.748 42.8859 159.552 43.6979 159.552C44.4819 159.552 45.1166 159.729 45.6019 160.084C46.0966 160.429 46.3952 161.013 46.4979 161.834H45.6439C45.5692 161.274 45.3546 160.882 44.9999 160.658C44.6546 160.425 44.2159 160.308 43.6839 160.308C43.1519 160.308 42.7459 160.425 42.4659 160.658C42.1859 160.882 42.0459 161.181 42.0459 161.554C42.0459 161.881 42.1579 162.133 42.3819 162.31C42.6152 162.478 42.9046 162.618 43.2499 162.73C43.5952 162.833 43.9686 162.926 44.3699 163.01C44.7712 163.094 45.1446 163.215 45.4899 163.374C45.8352 163.523 46.1199 163.729 46.3439 163.99C46.5772 164.251 46.6939 164.615 46.6939 165.082C46.6939 165.427 46.6192 165.735 46.4699 166.006C46.3206 166.267 46.1152 166.487 45.8539 166.664C45.5926 166.841 45.2799 166.972 44.9159 167.056C44.5612 167.149 44.1692 167.196 43.7399 167.196C43.3106 167.196 42.9279 167.131 42.5919 167C42.2652 166.879 41.9852 166.706 41.7519 166.482C41.5186 166.258 41.3366 165.997 41.2059 165.698C41.0752 165.399 41.0006 165.077 40.9819 164.732H41.8359ZM53.5959 162.87C53.5959 162.515 53.5446 162.184 53.4419 161.876C53.3486 161.559 53.2039 161.288 53.0079 161.064C52.8212 160.831 52.5832 160.649 52.2939 160.518C52.0046 160.378 51.6732 160.308 51.2999 160.308C50.9266 160.308 50.5952 160.378 50.3059 160.518C50.0259 160.658 49.7832 160.845 49.5779 161.078C49.3819 161.311 49.2232 161.582 49.1019 161.89C48.9806 162.198 48.9012 162.525 48.8639 162.87H53.5959ZM48.8639 163.57C48.8639 163.962 48.9152 164.335 49.0179 164.69C49.1206 165.035 49.2699 165.339 49.4659 165.6C49.6712 165.852 49.9279 166.057 50.2359 166.216C50.5439 166.365 50.8986 166.44 51.2999 166.44C51.8506 166.44 52.3219 166.295 52.7139 166.006C53.1059 165.717 53.3672 165.306 53.4979 164.774H54.4359C54.3332 165.119 54.1979 165.441 54.0299 165.74C53.8619 166.029 53.6519 166.286 53.3999 166.51C53.1479 166.725 52.8492 166.893 52.5039 167.014C52.1586 167.135 51.7572 167.196 51.2999 167.196C50.7212 167.196 50.2219 167.098 49.8019 166.902C49.3819 166.706 49.0366 166.44 48.7659 166.104C48.4952 165.759 48.2946 165.357 48.1639 164.9C48.0332 164.433 47.9679 163.934 47.9679 163.402C47.9679 162.87 48.0426 162.371 48.1919 161.904C48.3506 161.437 48.5699 161.031 48.8499 160.686C49.1392 160.331 49.4892 160.056 49.8999 159.86C50.3106 159.655 50.7772 159.552 51.2999 159.552C52.2986 159.552 53.0826 159.897 53.6519 160.588C54.2212 161.269 54.5012 162.263 54.4919 163.57H48.8639ZM61.7252 163.346C61.7252 162.935 61.6692 162.548 61.5572 162.184C61.4452 161.811 61.2819 161.489 61.0672 161.218C60.8619 160.938 60.6052 160.719 60.2972 160.56C59.9985 160.392 59.6579 160.308 59.2752 160.308C58.8365 160.308 58.4585 160.397 58.1412 160.574C57.8239 160.742 57.5625 160.975 57.3572 161.274C57.1519 161.573 57.0025 161.923 56.9092 162.324C56.8159 162.716 56.7785 163.141 56.7972 163.598C56.7972 164.055 56.8579 164.461 56.9792 164.816C57.1099 165.161 57.2872 165.455 57.5112 165.698C57.7352 165.941 57.9965 166.127 58.2952 166.258C58.5939 166.379 58.9205 166.44 59.2752 166.44C59.6672 166.44 60.0172 166.361 60.3252 166.202C60.6332 166.043 60.8899 165.829 61.0952 165.558C61.3005 165.278 61.4545 164.951 61.5572 164.578C61.6692 164.195 61.7252 163.785 61.7252 163.346ZM61.7252 156.92H62.5652V167H61.7252V165.726H61.6972C61.5759 165.969 61.4172 166.183 61.2212 166.37C61.0345 166.547 60.8245 166.697 60.5912 166.818C60.3672 166.939 60.1339 167.033 59.8912 167.098C59.6485 167.163 59.4105 167.196 59.1772 167.196C58.5892 167.196 58.0899 167.098 57.6792 166.902C57.2685 166.706 56.9279 166.44 56.6572 166.104C56.3959 165.759 56.2045 165.353 56.0832 164.886C55.9619 164.419 55.9012 163.92 55.9012 163.388C55.9012 162.884 55.9665 162.399 56.0972 161.932C56.2279 161.465 56.4239 161.059 56.6852 160.714C56.9559 160.359 57.2919 160.079 57.6932 159.874C58.1039 159.659 58.5845 159.552 59.1352 159.552C59.6485 159.552 60.1385 159.669 60.6052 159.902C61.0812 160.126 61.4545 160.462 61.7252 160.91V156.92ZM64.5637 167V159.748H65.4037V167H64.5637ZM64.5217 158.166V156.92H65.4457V158.166H64.5217ZM72.2872 163.192C71.9325 163.341 71.5732 163.439 71.2092 163.486C70.8452 163.533 70.4812 163.57 70.1172 163.598C69.4732 163.645 68.9692 163.789 68.6052 164.032C68.2505 164.275 68.0732 164.643 68.0732 165.138C68.0732 165.362 68.1152 165.558 68.1992 165.726C68.2925 165.885 68.4092 166.02 68.5492 166.132C68.6985 166.235 68.8665 166.314 69.0532 166.37C69.2492 166.417 69.4452 166.44 69.6412 166.44C69.9772 166.44 70.3039 166.398 70.6212 166.314C70.9385 166.23 71.2185 166.104 71.4612 165.936C71.7132 165.759 71.9139 165.539 72.0632 165.278C72.2125 165.007 72.2872 164.69 72.2872 164.326V163.192ZM70.8732 162.772C71.0319 162.753 71.2185 162.725 71.4332 162.688C71.6572 162.651 71.8392 162.599 71.9792 162.534C72.1192 162.469 72.2032 162.361 72.2312 162.212C72.2685 162.053 72.2872 161.909 72.2872 161.778C72.2872 161.349 72.1472 160.999 71.8672 160.728C71.5965 160.448 71.1345 160.308 70.4812 160.308C70.1919 160.308 69.9259 160.336 69.6832 160.392C69.4405 160.439 69.2259 160.527 69.0392 160.658C68.8619 160.779 68.7125 160.947 68.5912 161.162C68.4792 161.367 68.4045 161.629 68.3672 161.946H67.5132C67.5412 161.517 67.6392 161.153 67.8072 160.854C67.9752 160.546 68.1899 160.299 68.4512 160.112C68.7219 159.916 69.0299 159.776 69.3752 159.692C69.7299 159.599 70.1032 159.552 70.4952 159.552C70.8592 159.552 71.1999 159.594 71.5172 159.678C71.8439 159.753 72.1239 159.879 72.3572 160.056C72.5999 160.224 72.7865 160.453 72.9172 160.742C73.0572 161.031 73.1272 161.386 73.1272 161.806V165.754C73.1272 166.081 73.1832 166.291 73.2952 166.384C73.4165 166.468 73.6545 166.445 74.0092 166.314V166.972C73.9439 166.991 73.8459 167.019 73.7152 167.056C73.5939 167.093 73.4725 167.112 73.3512 167.112C73.2205 167.112 73.0945 167.098 72.9732 167.07C72.8332 167.051 72.7212 167.009 72.6372 166.944C72.5532 166.869 72.4832 166.785 72.4272 166.692C72.3805 166.589 72.3479 166.482 72.3292 166.37C72.3105 166.249 72.3012 166.123 72.3012 165.992C71.9465 166.384 71.5405 166.683 71.0832 166.888C70.6259 167.093 70.1312 167.196 69.5992 167.196C69.2819 167.196 68.9739 167.154 68.6752 167.07C68.3859 166.986 68.1292 166.855 67.9052 166.678C67.6812 166.501 67.5039 166.286 67.3732 166.034C67.2425 165.773 67.1772 165.465 67.1772 165.11C67.1772 163.878 68.0219 163.15 69.7112 162.926L70.8732 162.772ZM84.817 163.346C84.817 162.935 84.761 162.548 84.649 162.184C84.537 161.811 84.3737 161.489 84.159 161.218C83.9537 160.938 83.697 160.719 83.389 160.56C83.0903 160.392 82.7497 160.308 82.367 160.308C81.9283 160.308 81.5503 160.397 81.233 160.574C80.9157 160.742 80.6543 160.975 80.449 161.274C80.2437 161.573 80.0943 161.923 80.001 162.324C79.9077 162.716 79.8703 163.141 79.889 163.598C79.889 164.055 79.9497 164.461 80.071 164.816C80.2017 165.161 80.379 165.455 80.603 165.698C80.827 165.941 81.0883 166.127 81.387 166.258C81.6857 166.379 82.0123 166.44 82.367 166.44C82.759 166.44 83.109 166.361 83.417 166.202C83.725 166.043 83.9817 165.829 84.187 165.558C84.3923 165.278 84.5463 164.951 84.649 164.578C84.761 164.195 84.817 163.785 84.817 163.346ZM84.817 156.92H85.657V167H84.817V165.726H84.789C84.6677 165.969 84.509 166.183 84.313 166.37C84.1263 166.547 83.9163 166.697 83.683 166.818C83.459 166.939 83.2257 167.033 82.983 167.098C82.7403 167.163 82.5023 167.196 82.269 167.196C81.681 167.196 81.1817 167.098 80.771 166.902C80.3603 166.706 80.0197 166.44 79.749 166.104C79.4877 165.759 79.2963 165.353 79.175 164.886C79.0537 164.419 78.993 163.92 78.993 163.388C78.993 162.884 79.0583 162.399 79.189 161.932C79.3197 161.465 79.5157 161.059 79.777 160.714C80.0477 160.359 80.3837 160.079 80.785 159.874C81.1957 159.659 81.6763 159.552 82.227 159.552C82.7403 159.552 83.2303 159.669 83.697 159.902C84.173 160.126 84.5463 160.462 84.817 160.91V156.92ZM87.6555 167V159.748H88.4955V167H87.6555ZM87.6135 158.166V156.92H88.5375V158.166H87.6135ZM99.2755 163.192C98.9208 163.341 98.5615 163.439 98.1975 163.486C97.8335 163.533 97.4695 163.57 97.1055 163.598C96.4615 163.645 95.9575 163.789 95.5935 164.032C95.2388 164.275 95.0615 164.643 95.0615 165.138C95.0615 165.362 95.1035 165.558 95.1875 165.726C95.2808 165.885 95.3975 166.02 95.5375 166.132C95.6868 166.235 95.8548 166.314 96.0415 166.37C96.2375 166.417 96.4335 166.44 96.6295 166.44C96.9655 166.44 97.2922 166.398 97.6095 166.314C97.9268 166.23 98.2068 166.104 98.4495 165.936C98.7015 165.759 98.9022 165.539 99.0515 165.278C99.2008 165.007 99.2755 164.69 99.2755 164.326V163.192ZM97.8615 162.772C98.0202 162.753 98.2068 162.725 98.4215 162.688C98.6455 162.651 98.8275 162.599 98.9675 162.534C99.1075 162.469 99.1915 162.361 99.2195 162.212C99.2568 162.053 99.2755 161.909 99.2755 161.778C99.2755 161.349 99.1355 160.999 98.8555 160.728C98.5848 160.448 98.1228 160.308 97.4695 160.308C97.1802 160.308 96.9142 160.336 96.6715 160.392C96.4288 160.439 96.2142 160.527 96.0275 160.658C95.8502 160.779 95.7008 160.947 95.5795 161.162C95.4675 161.367 95.3928 161.629 95.3555 161.946H94.5015C94.5295 161.517 94.6275 161.153 94.7955 160.854C94.9635 160.546 95.1782 160.299 95.4395 160.112C95.7102 159.916 96.0182 159.776 96.3635 159.692C96.7182 159.599 97.0915 159.552 97.4835 159.552C97.8475 159.552 98.1882 159.594 98.5055 159.678C98.8322 159.753 99.1122 159.879 99.3455 160.056C99.5882 160.224 99.7748 160.453 99.9055 160.742C100.045 161.031 100.115 161.386 100.115 161.806V165.754C100.115 166.081 100.171 166.291 100.283 166.384C100.405 166.468 100.643 166.445 100.997 166.314V166.972C100.932 166.991 100.834 167.019 100.703 167.056C100.582 167.093 100.461 167.112 100.339 167.112C100.209 167.112 100.083 167.098 99.9615 167.07C99.8215 167.051 99.7095 167.009 99.6255 166.944C99.5415 166.869 99.4715 166.785 99.4155 166.692C99.3688 166.589 99.3362 166.482 99.3175 166.37C99.2988 166.249 99.2895 166.123 99.2895 165.992C98.9348 166.384 98.5288 166.683 98.0715 166.888C97.6142 167.093 97.1195 167.196 96.5875 167.196C96.2702 167.196 95.9622 167.154 95.6635 167.07C95.3742 166.986 95.1175 166.855 94.8935 166.678C94.6695 166.501 94.4922 166.286 94.3615 166.034C94.2308 165.773 94.1655 165.465 94.1655 165.11C94.1655 163.878 95.0102 163.15 96.6995 162.926L97.8615 162.772ZM102.253 167V156.92H103.093V163.192L106.649 159.748H107.797L105.081 162.366L108.119 167H107.181L104.465 162.954L103.093 164.256V167H102.253ZM109.309 167V156.92H110.149V160.756C110.485 160.401 110.83 160.112 111.185 159.888C111.549 159.664 111.983 159.552 112.487 159.552C112.935 159.552 113.35 159.631 113.733 159.79C114.115 159.939 114.437 160.205 114.699 160.588C114.876 160.849 114.979 161.12 115.007 161.4C115.044 161.671 115.063 161.955 115.063 162.254V167H114.223V162.268C114.223 161.615 114.078 161.125 113.789 160.798C113.499 160.471 113.019 160.308 112.347 160.308C112.085 160.308 111.847 160.35 111.633 160.434C111.418 160.509 111.222 160.611 111.045 160.742C110.877 160.873 110.732 161.022 110.611 161.19C110.489 161.358 110.396 161.535 110.331 161.722C110.247 161.955 110.195 162.179 110.177 162.394C110.158 162.609 110.149 162.842 110.149 163.094V167H109.309ZM116.968 167V159.748H117.808V167H116.968ZM116.926 158.166V156.92H117.85V158.166H116.926ZM120.828 167H119.988V159.748H120.828V161.106H120.856C121.089 160.527 121.388 160.126 121.752 159.902C122.125 159.669 122.615 159.552 123.222 159.552V160.462C122.746 160.453 122.354 160.527 122.046 160.686C121.738 160.845 121.49 161.059 121.304 161.33C121.126 161.601 121 161.923 120.926 162.296C120.86 162.66 120.828 163.043 120.828 163.444V167ZM129.232 167H128.392V159.748H129.232V160.84H129.26C129.475 160.42 129.783 160.103 130.184 159.888C130.585 159.664 131.024 159.552 131.5 159.552C131.836 159.552 132.121 159.589 132.354 159.664C132.587 159.739 132.783 159.841 132.942 159.972C133.11 160.093 133.245 160.238 133.348 160.406C133.46 160.574 133.553 160.756 133.628 160.952C133.871 160.476 134.193 160.126 134.594 159.902C135.005 159.669 135.471 159.552 135.994 159.552C136.489 159.552 136.881 159.636 137.17 159.804C137.469 159.963 137.697 160.177 137.856 160.448C138.015 160.709 138.117 161.013 138.164 161.358C138.22 161.703 138.248 162.058 138.248 162.422V167H137.408V161.988C137.408 161.465 137.296 161.055 137.072 160.756C136.857 160.457 136.451 160.308 135.854 160.308C135.546 160.308 135.247 160.378 134.958 160.518C134.678 160.649 134.431 160.854 134.216 161.134C134.123 161.255 134.043 161.4 133.978 161.568C133.922 161.727 133.875 161.895 133.838 162.072C133.801 162.249 133.773 162.427 133.754 162.604C133.745 162.781 133.74 162.945 133.74 163.094V167H132.9V161.988C132.9 161.465 132.788 161.055 132.564 160.756C132.349 160.457 131.943 160.308 131.346 160.308C131.038 160.308 130.739 160.378 130.45 160.518C130.17 160.649 129.923 160.854 129.708 161.134C129.615 161.255 129.535 161.4 129.47 161.568C129.414 161.727 129.367 161.895 129.33 162.072C129.293 162.249 129.265 162.427 129.246 162.604C129.237 162.781 129.232 162.945 129.232 163.094V167ZM140.046 167V159.748H140.886V167H140.046ZM140.004 158.166V156.92H140.928V158.166H140.004ZM143.864 167H143.024V159.748H143.864V160.756C144.2 160.401 144.545 160.112 144.9 159.888C145.264 159.664 145.698 159.552 146.202 159.552C146.65 159.552 147.065 159.631 147.448 159.79C147.83 159.939 148.152 160.205 148.414 160.588C148.591 160.849 148.694 161.12 148.722 161.4C148.759 161.671 148.778 161.955 148.778 162.254V167H147.938V162.268C147.938 161.615 147.793 161.125 147.504 160.798C147.214 160.471 146.734 160.308 146.062 160.308C145.8 160.308 145.562 160.35 145.348 160.434C145.133 160.509 144.937 160.611 144.76 160.742C144.592 160.873 144.447 161.022 144.326 161.19C144.204 161.358 144.111 161.535 144.046 161.722C143.962 161.955 143.91 162.179 143.892 162.394C143.873 162.609 143.864 162.842 143.864 163.094V167ZM156.403 163.402C156.403 162.963 156.347 162.557 156.235 162.184C156.132 161.801 155.978 161.475 155.773 161.204C155.568 160.924 155.311 160.705 155.003 160.546C154.695 160.387 154.345 160.308 153.953 160.308C153.598 160.308 153.272 160.373 152.973 160.504C152.674 160.625 152.413 160.807 152.189 161.05C151.965 161.293 151.788 161.591 151.657 161.946C151.536 162.291 151.475 162.693 151.475 163.15C151.456 163.607 151.494 164.037 151.587 164.438C151.68 164.83 151.83 165.175 152.035 165.474C152.24 165.773 152.502 166.011 152.819 166.188C153.136 166.356 153.514 166.44 153.953 166.44C154.336 166.44 154.676 166.361 154.975 166.202C155.283 166.034 155.54 165.815 155.745 165.544C155.96 165.264 156.123 164.942 156.235 164.578C156.347 164.205 156.403 163.813 156.403 163.402ZM156.403 159.748H157.243V166.3C157.243 166.785 157.192 167.247 157.089 167.686C156.996 168.134 156.823 168.526 156.571 168.862C156.319 169.198 155.974 169.464 155.535 169.66C155.096 169.865 154.532 169.968 153.841 169.968C153.309 169.968 152.852 169.898 152.469 169.758C152.086 169.627 151.774 169.459 151.531 169.254C151.288 169.049 151.102 168.82 150.971 168.568C150.85 168.325 150.784 168.097 150.775 167.882H151.671C151.736 168.153 151.839 168.372 151.979 168.54C152.119 168.717 152.282 168.853 152.469 168.946C152.665 169.049 152.88 169.119 153.113 169.156C153.346 169.193 153.589 169.212 153.841 169.212C154.41 169.212 154.868 169.114 155.213 168.918C155.558 168.722 155.82 168.465 155.997 168.148C156.174 167.831 156.286 167.471 156.333 167.07C156.389 166.669 156.412 166.258 156.403 165.838C156.132 166.286 155.759 166.627 155.283 166.86C154.816 167.084 154.326 167.196 153.813 167.196C153.262 167.196 152.782 167.093 152.371 166.888C151.97 166.673 151.634 166.393 151.363 166.048C151.102 165.693 150.906 165.283 150.775 164.816C150.644 164.349 150.579 163.864 150.579 163.36C150.579 162.828 150.64 162.329 150.761 161.862C150.882 161.395 151.074 160.994 151.335 160.658C151.606 160.313 151.946 160.042 152.357 159.846C152.768 159.65 153.267 159.552 153.855 159.552C154.088 159.552 154.326 159.585 154.569 159.65C154.812 159.715 155.045 159.809 155.269 159.93C155.502 160.051 155.712 160.205 155.899 160.392C156.095 160.579 156.254 160.789 156.375 161.022H156.403V159.748ZM164.962 163.402C164.962 162.963 164.906 162.557 164.794 162.184C164.691 161.801 164.537 161.475 164.332 161.204C164.126 160.924 163.87 160.705 163.562 160.546C163.254 160.387 162.904 160.308 162.512 160.308C162.157 160.308 161.83 160.373 161.532 160.504C161.233 160.625 160.972 160.807 160.748 161.05C160.524 161.293 160.346 161.591 160.216 161.946C160.094 162.291 160.034 162.693 160.034 163.15C160.015 163.607 160.052 164.037 160.146 164.438C160.239 164.83 160.388 165.175 160.594 165.474C160.799 165.773 161.06 166.011 161.378 166.188C161.695 166.356 162.073 166.44 162.512 166.44C162.894 166.44 163.235 166.361 163.534 166.202C163.842 166.034 164.098 165.815 164.304 165.544C164.518 165.264 164.682 164.942 164.794 164.578C164.906 164.205 164.962 163.813 164.962 163.402ZM164.962 159.748H165.802V166.3C165.802 166.785 165.75 167.247 165.648 167.686C165.554 168.134 165.382 168.526 165.13 168.862C164.878 169.198 164.532 169.464 164.094 169.66C163.655 169.865 163.09 169.968 162.4 169.968C161.868 169.968 161.41 169.898 161.028 169.758C160.645 169.627 160.332 169.459 160.09 169.254C159.847 169.049 159.66 168.82 159.53 168.568C159.408 168.325 159.343 168.097 159.334 167.882H160.23C160.295 168.153 160.398 168.372 160.538 168.54C160.678 168.717 160.841 168.853 161.028 168.946C161.224 169.049 161.438 169.119 161.672 169.156C161.905 169.193 162.148 169.212 162.4 169.212C162.969 169.212 163.426 169.114 163.772 168.918C164.117 168.722 164.378 168.465 164.556 168.148C164.733 167.831 164.845 167.471 164.892 167.07C164.948 166.669 164.971 166.258 164.962 165.838C164.691 166.286 164.318 166.627 163.842 166.86C163.375 167.084 162.885 167.196 162.372 167.196C161.821 167.196 161.34 167.093 160.93 166.888C160.528 166.673 160.192 166.393 159.922 166.048C159.66 165.693 159.464 165.283 159.334 164.816C159.203 164.349 159.138 163.864 159.138 163.36C159.138 162.828 159.198 162.329 159.32 161.862C159.441 161.395 159.632 160.994 159.894 160.658C160.164 160.313 160.505 160.042 160.916 159.846C161.326 159.65 161.826 159.552 162.414 159.552C162.647 159.552 162.885 159.585 163.128 159.65C163.37 159.715 163.604 159.809 163.828 159.93C164.061 160.051 164.271 160.205 164.458 160.392C164.654 160.579 164.812 160.789 164.934 161.022H164.962V159.748ZM172.834 159.748H173.674V167H172.834V165.992C172.722 166.123 172.596 166.258 172.456 166.398C172.316 166.538 172.153 166.669 171.966 166.79C171.789 166.902 171.579 166.995 171.336 167.07C171.093 167.154 170.813 167.196 170.496 167.196C170.011 167.196 169.605 167.131 169.278 167C168.951 166.86 168.685 166.669 168.48 166.426C168.284 166.183 168.139 165.903 168.046 165.586C167.962 165.259 167.92 164.905 167.92 164.522V159.748H168.76V164.508C168.76 165.133 168.905 165.614 169.194 165.95C169.483 166.277 169.959 166.44 170.622 166.44C170.967 166.44 171.275 166.375 171.546 166.244C171.826 166.104 172.059 165.913 172.246 165.67C172.433 165.427 172.577 165.138 172.68 164.802C172.783 164.466 172.834 164.097 172.834 163.696V159.748Z" fill="black"/>
<rect x="0.5" y="0.5" width="267" height="195" rx="7.5" stroke="#D0D0D0"/>
</svg>
