<svg width="268" height="196" viewBox="0 0 268 196" fill="none" xmlns="http://www.w3.org/2000/svg">
<circle cx="40" cy="40" r="16" fill="#5CB85F"/>
<path d="M40.0001 42.5C43.2217 42.5 45.8334 39.8883 45.8334 36.6667C45.8334 33.445 43.2217 30.8333 40.0001 30.8333C36.7784 30.8333 34.1667 33.445 34.1667 36.6667C34.1667 39.8883 36.7784 42.5 40.0001 42.5Z" stroke="white" stroke-width="2" stroke-linecap="round" stroke-linejoin="round"/>
<path d="M36.8416 41.575L35.8333 49.1667L39.9999 46.6667L44.1666 49.1667L43.1583 41.5667" stroke="white" stroke-width="2" stroke-linecap="round" stroke-linejoin="round"/>
<path d="M26.9609 86.4453C27.0339 86.9714 27.1771 87.3646 27.3906 87.625C27.7812 88.099 28.4505 88.3359 29.3984 88.3359C29.9661 88.3359 30.4271 88.2734 30.7812 88.1484C31.4531 87.9089 31.7891 87.4635 31.7891 86.8125C31.7891 86.4323 31.6224 86.138 31.2891 85.9297C30.9557 85.7266 30.4323 85.5469 29.7188 85.3906L28.5 85.1172C27.3021 84.8464 26.474 84.5521 26.0156 84.2344C25.2396 83.7031 24.8516 82.8724 24.8516 81.7422C24.8516 80.7109 25.2266 79.8542 25.9766 79.1719C26.7266 78.4896 27.8281 78.1484 29.2812 78.1484C30.4948 78.1484 31.5286 78.4714 32.3828 79.1172C33.2422 79.7578 33.6927 80.6901 33.7344 81.9141H31.4219C31.3802 81.2214 31.0781 80.7292 30.5156 80.4375C30.1406 80.2448 29.6745 80.1484 29.1172 80.1484C28.4974 80.1484 28.0026 80.2734 27.6328 80.5234C27.263 80.7734 27.0781 81.1224 27.0781 81.5703C27.0781 81.9818 27.2604 82.2891 27.625 82.4922C27.8594 82.6276 28.3594 82.7865 29.125 82.9688L31.1094 83.4453C31.9792 83.6536 32.6354 83.9323 33.0781 84.2812C33.7656 84.8229 34.1094 85.6068 34.1094 86.6328C34.1094 87.6849 33.7057 88.5599 32.8984 89.2578C32.0964 89.9505 30.9609 90.2969 29.4922 90.2969C27.9922 90.2969 26.8125 89.9557 25.9531 89.2734C25.0938 88.5859 24.6641 87.6432 24.6641 86.4453H26.9609ZM39.5312 88.4297C40.1823 88.4297 40.6823 88.1979 41.0312 87.7344C41.3802 87.2708 41.5547 86.612 41.5547 85.7578C41.5547 84.9036 41.3802 84.2474 41.0312 83.7891C40.6823 83.3255 40.1823 83.0938 39.5312 83.0938C38.8802 83.0938 38.3776 83.3255 38.0234 83.7891C37.6745 84.2474 37.5 84.9036 37.5 85.7578C37.5 86.612 37.6745 87.2708 38.0234 87.7344C38.3776 88.1979 38.8802 88.4297 39.5312 88.4297ZM43.8906 85.7578C43.8906 87.0078 43.5312 88.0781 42.8125 88.9688C42.0938 89.8542 41.0026 90.2969 39.5391 90.2969C38.0755 90.2969 36.9844 89.8542 36.2656 88.9688C35.5469 88.0781 35.1875 87.0078 35.1875 85.7578C35.1875 84.5286 35.5469 83.4635 36.2656 82.5625C36.9844 81.6615 38.0755 81.2109 39.5391 81.2109C41.0026 81.2109 42.0938 81.6615 42.8125 82.5625C43.5312 83.4635 43.8906 84.5286 43.8906 85.7578ZM51.3594 85.7422C51.3594 85.0859 51.2083 84.5052 50.9062 84C50.6094 83.4948 50.125 83.2422 49.4531 83.2422C48.6458 83.2422 48.0911 83.625 47.7891 84.3906C47.6328 84.7969 47.5547 85.3125 47.5547 85.9375C47.5547 86.9271 47.8177 87.6224 48.3438 88.0234C48.6562 88.2578 49.026 88.375 49.4531 88.375C50.0729 88.375 50.5443 88.1354 50.8672 87.6562C51.1953 87.1771 51.3594 86.5391 51.3594 85.7422ZM50.0938 81.2969C51.0885 81.2969 51.9297 81.6641 52.6172 82.3984C53.3099 83.1328 53.6562 84.2109 53.6562 85.6328C53.6562 87.1328 53.3177 88.276 52.6406 89.0625C51.9688 89.849 51.1016 90.2422 50.0391 90.2422C49.362 90.2422 48.7995 90.0729 48.3516 89.7344C48.1068 89.5469 47.8672 89.2734 47.6328 88.9141V93.3516H45.4297V81.4844H47.5625V82.7422C47.8021 82.3724 48.0573 82.0807 48.3281 81.8672C48.8229 81.487 49.4115 81.2969 50.0938 81.2969ZM57.5625 80.4688H55.3047V78.4141H57.5625V80.4688ZM55.3047 81.4844H57.5625V90H55.3047V81.4844ZM64.3516 81.2812C64.3932 81.2812 64.4271 81.2839 64.4531 81.2891C64.4844 81.2891 64.5495 81.2917 64.6484 81.2969V83.5781C64.5078 83.5625 64.3828 83.5521 64.2734 83.5469C64.1641 83.5417 64.0755 83.5391 64.0078 83.5391C63.112 83.5391 62.5104 83.8307 62.2031 84.4141C62.0312 84.7422 61.9453 85.2474 61.9453 85.9297V90H59.7031V81.4844H61.8281V82.9688C62.1719 82.401 62.4714 82.013 62.7266 81.8047C63.1432 81.4557 63.6849 81.2812 64.3516 81.2812ZM77.0781 82.1484C77.0781 81.5495 76.9193 81.1224 76.6016 80.8672C76.2891 80.612 75.849 80.4844 75.2812 80.4844H73.0391V83.875H75.2812C75.849 83.875 76.2891 83.737 76.6016 83.4609C76.9193 83.1849 77.0781 82.7474 77.0781 82.1484ZM79.4609 82.1328C79.4609 83.4922 79.1172 84.4531 78.4297 85.0156C77.7422 85.5781 76.7604 85.8594 75.4844 85.8594H73.0391V90H70.6484V78.4844H75.6641C76.8203 78.4844 77.7422 78.7812 78.4297 79.375C79.1172 79.9688 79.4609 80.888 79.4609 82.1328ZM85.7109 81.2812C85.7526 81.2812 85.7865 81.2839 85.8125 81.2891C85.8438 81.2891 85.9089 81.2917 86.0078 81.2969V83.5781C85.8672 83.5625 85.7422 83.5521 85.6328 83.5469C85.5234 83.5417 85.4349 83.5391 85.3672 83.5391C84.4714 83.5391 83.8698 83.8307 83.5625 84.4141C83.3906 84.7422 83.3047 85.2474 83.3047 85.9297V90H81.0625V81.4844H83.1875V82.9688C83.5312 82.401 83.8307 82.013 84.0859 81.8047C84.5026 81.4557 85.0443 81.2812 85.7109 81.2812ZM91.1406 88.4297C91.7917 88.4297 92.2917 88.1979 92.6406 87.7344C92.9896 87.2708 93.1641 86.612 93.1641 85.7578C93.1641 84.9036 92.9896 84.2474 92.6406 83.7891C92.2917 83.3255 91.7917 83.0938 91.1406 83.0938C90.4896 83.0938 89.987 83.3255 89.6328 83.7891C89.2839 84.2474 89.1094 84.9036 89.1094 85.7578C89.1094 86.612 89.2839 87.2708 89.6328 87.7344C89.987 88.1979 90.4896 88.4297 91.1406 88.4297ZM95.5 85.7578C95.5 87.0078 95.1406 88.0781 94.4219 88.9688C93.7031 89.8542 92.612 90.2969 91.1484 90.2969C89.6849 90.2969 88.5938 89.8542 87.875 88.9688C87.1562 88.0781 86.7969 87.0078 86.7969 85.7578C86.7969 84.5286 87.1562 83.4635 87.875 82.5625C88.5938 81.6615 89.6849 81.2109 91.1484 81.2109C92.612 81.2109 93.7031 81.6615 94.4219 82.5625C95.1406 83.4635 95.5 84.5286 95.5 85.7578ZM100.242 78.3672C100.383 78.3672 100.51 78.3724 100.625 78.3828C100.74 78.388 100.896 78.3984 101.094 78.4141V80.2266C100.969 80.2109 100.758 80.2005 100.461 80.1953C100.169 80.1849 99.9661 80.25 99.8516 80.3906C99.7422 80.526 99.6875 80.6771 99.6875 80.8438C99.6875 81.0104 99.6875 81.25 99.6875 81.5625H101.148V83.1328H99.6875V90H97.4688V83.1328H96.2266V81.5625H97.4453V81.0156C97.4453 80.1042 97.599 79.4766 97.9062 79.1328C98.2292 78.6224 99.0078 78.3672 100.242 78.3672ZM105.789 83.0938C105.273 83.0938 104.872 83.2552 104.586 83.5781C104.305 83.901 104.128 84.3385 104.055 84.8906H107.516C107.479 84.3021 107.299 83.8568 106.977 83.5547C106.659 83.2474 106.263 83.0938 105.789 83.0938ZM105.789 81.2578C106.497 81.2578 107.135 81.3906 107.703 81.6562C108.271 81.9219 108.74 82.3411 109.109 82.9141C109.443 83.4193 109.659 84.0052 109.758 84.6719C109.815 85.0625 109.839 85.625 109.828 86.3594H104C104.031 87.2135 104.299 87.8125 104.805 88.1562C105.112 88.3698 105.482 88.4766 105.914 88.4766C106.372 88.4766 106.745 88.3464 107.031 88.0859C107.188 87.9453 107.326 87.75 107.445 87.5H109.719C109.661 88.0052 109.398 88.5182 108.93 89.0391C108.201 89.8672 107.18 90.2812 105.867 90.2812C104.784 90.2812 103.828 89.9323 103 89.2344C102.172 88.5365 101.758 87.401 101.758 85.8281C101.758 84.3542 102.13 83.224 102.875 82.4375C103.625 81.651 104.596 81.2578 105.789 81.2578ZM113.07 87.2812C113.117 87.6771 113.219 87.9583 113.375 88.125C113.651 88.4219 114.161 88.5703 114.906 88.5703C115.344 88.5703 115.69 88.5052 115.945 88.375C116.206 88.2448 116.336 88.0495 116.336 87.7891C116.336 87.5391 116.232 87.349 116.023 87.2188C115.815 87.0885 115.042 86.8646 113.703 86.5469C112.74 86.3073 112.06 86.0078 111.664 85.6484C111.268 85.2943 111.07 84.7839 111.07 84.1172C111.07 83.3307 111.378 82.6562 111.992 82.0938C112.612 81.526 113.482 81.2422 114.602 81.2422C115.664 81.2422 116.529 81.4557 117.195 81.8828C117.867 82.3047 118.253 83.0365 118.352 84.0781H116.125C116.094 83.7917 116.013 83.5651 115.883 83.3984C115.638 83.0964 115.221 82.9453 114.633 82.9453C114.148 82.9453 113.802 83.0208 113.594 83.1719C113.391 83.3229 113.289 83.5 113.289 83.7031C113.289 83.9583 113.398 84.1432 113.617 84.2578C113.836 84.3776 114.609 84.5833 115.938 84.875C116.823 85.0833 117.487 85.3984 117.93 85.8203C118.367 86.2474 118.586 86.7812 118.586 87.4219C118.586 88.2656 118.271 88.9557 117.641 89.4922C117.016 90.0234 116.047 90.2891 114.734 90.2891C113.396 90.2891 112.406 90.0078 111.766 89.4453C111.13 88.8776 110.812 88.1562 110.812 87.2812H113.07ZM122.531 80.4688H120.273V78.4141H122.531V80.4688ZM120.273 81.4844H122.531V90H120.273V81.4844ZM128.516 88.4297C129.167 88.4297 129.667 88.1979 130.016 87.7344C130.365 87.2708 130.539 86.612 130.539 85.7578C130.539 84.9036 130.365 84.2474 130.016 83.7891C129.667 83.3255 129.167 83.0938 128.516 83.0938C127.865 83.0938 127.362 83.3255 127.008 83.7891C126.659 84.2474 126.484 84.9036 126.484 85.7578C126.484 86.612 126.659 87.2708 127.008 87.7344C127.362 88.1979 127.865 88.4297 128.516 88.4297ZM132.875 85.7578C132.875 87.0078 132.516 88.0781 131.797 88.9688C131.078 89.8542 129.987 90.2969 128.523 90.2969C127.06 90.2969 125.969 89.8542 125.25 88.9688C124.531 88.0781 124.172 87.0078 124.172 85.7578C124.172 84.5286 124.531 83.4635 125.25 82.5625C125.969 81.6615 127.06 81.2109 128.523 81.2109C129.987 81.2109 131.078 81.6615 131.797 82.5625C132.516 83.4635 132.875 84.5286 132.875 85.7578ZM139.195 81.2812C140.076 81.2812 140.794 81.513 141.352 81.9766C141.914 82.4349 142.195 83.1979 142.195 84.2656V90H139.914V84.8203C139.914 84.3724 139.854 84.0286 139.734 83.7891C139.516 83.3516 139.099 83.1328 138.484 83.1328C137.729 83.1328 137.211 83.4531 136.93 84.0938C136.784 84.4323 136.711 84.8646 136.711 85.3906V90H134.492V81.5H136.641V82.7422C136.927 82.3047 137.198 81.9896 137.453 81.7969C137.911 81.4531 138.492 81.2812 139.195 81.2812ZM148.953 85.8594C148.812 85.9479 148.669 86.0208 148.523 86.0781C148.383 86.1302 148.188 86.1797 147.938 86.2266L147.438 86.3203C146.969 86.4036 146.633 86.5052 146.43 86.625C146.086 86.8281 145.914 87.1432 145.914 87.5703C145.914 87.9505 146.018 88.2266 146.227 88.3984C146.44 88.5651 146.698 88.6484 147 88.6484C147.479 88.6484 147.919 88.5078 148.32 88.2266C148.727 87.9453 148.938 87.4323 148.953 86.6875V85.8594ZM147.602 84.8203C148.013 84.7682 148.307 84.7031 148.484 84.625C148.802 84.4896 148.961 84.2786 148.961 83.9922C148.961 83.6432 148.839 83.4036 148.594 83.2734C148.354 83.138 148 83.0703 147.531 83.0703C147.005 83.0703 146.633 83.2005 146.414 83.4609C146.258 83.6536 146.154 83.9141 146.102 84.2422H143.953C144 83.4974 144.208 82.8854 144.578 82.4062C145.167 81.6562 146.177 81.2812 147.609 81.2812C148.542 81.2812 149.37 81.4661 150.094 81.8359C150.818 82.2057 151.18 82.9036 151.18 83.9297V87.8359C151.18 88.1068 151.185 88.4349 151.195 88.8203C151.211 89.112 151.255 89.3099 151.328 89.4141C151.401 89.5182 151.51 89.6042 151.656 89.6719V90H149.234C149.167 89.8281 149.12 89.6667 149.094 89.5156C149.068 89.3646 149.047 89.1927 149.031 89C148.724 89.3333 148.37 89.6172 147.969 89.8516C147.49 90.1276 146.948 90.2656 146.344 90.2656C145.573 90.2656 144.935 90.0469 144.43 89.6094C143.93 89.1667 143.68 88.5417 143.68 87.7344C143.68 86.6875 144.083 85.9297 144.891 85.4609C145.333 85.2057 145.984 85.0234 146.844 84.9141L147.602 84.8203ZM155.438 90H153.211V78.4844H155.438V90Z" fill="black"/>
<path d="M25.526 123.99C25.5633 124.438 25.6613 124.821 25.82 125.138C25.988 125.446 26.198 125.698 26.45 125.894C26.7113 126.09 27.01 126.235 27.346 126.328C27.682 126.412 28.0413 126.454 28.424 126.454C28.872 126.454 29.2593 126.398 29.586 126.286C29.9127 126.174 30.1787 126.025 30.384 125.838C30.5893 125.642 30.7387 125.418 30.832 125.166C30.9347 124.914 30.986 124.648 30.986 124.368C30.986 123.976 30.8973 123.659 30.72 123.416C30.5427 123.173 30.3093 122.977 30.02 122.828C29.74 122.669 29.4133 122.543 29.04 122.45C28.676 122.357 28.298 122.268 27.906 122.184C27.5233 122.091 27.1453 121.983 26.772 121.862C26.408 121.741 26.0813 121.577 25.792 121.372C25.512 121.167 25.2833 120.905 25.106 120.588C24.9287 120.261 24.84 119.851 24.84 119.356C24.84 119.011 24.91 118.675 25.05 118.348C25.1993 118.021 25.414 117.732 25.694 117.48C25.9833 117.228 26.3427 117.027 26.772 116.878C27.2013 116.729 27.696 116.654 28.256 116.654C28.8253 116.654 29.32 116.733 29.74 116.892C30.1693 117.051 30.524 117.27 30.804 117.55C31.084 117.821 31.294 118.138 31.434 118.502C31.574 118.866 31.644 119.253 31.644 119.664H30.734C30.734 119.281 30.664 118.95 30.524 118.67C30.3933 118.39 30.2113 118.161 29.978 117.984C29.7447 117.807 29.4787 117.676 29.18 117.592C28.8813 117.508 28.5733 117.466 28.256 117.466C27.7707 117.466 27.36 117.536 27.024 117.676C26.6973 117.807 26.436 117.979 26.24 118.194C26.044 118.409 25.9087 118.647 25.834 118.908C25.7593 119.169 25.7453 119.431 25.792 119.692C25.848 120.019 25.9787 120.28 26.184 120.476C26.3893 120.672 26.6413 120.835 26.94 120.966C27.2387 121.087 27.5653 121.19 27.92 121.274C28.284 121.349 28.6527 121.433 29.026 121.526C29.3993 121.61 29.7587 121.713 30.104 121.834C30.4587 121.955 30.7713 122.119 31.042 122.324C31.3127 122.529 31.5273 122.795 31.686 123.122C31.854 123.439 31.938 123.841 31.938 124.326C31.938 125.259 31.616 125.983 30.972 126.496C30.328 127.009 29.4227 127.266 28.256 127.266C27.7333 127.266 27.248 127.196 26.8 127.056C26.352 126.925 25.9647 126.725 25.638 126.454C25.3113 126.174 25.0547 125.833 24.868 125.432C24.6907 125.021 24.602 124.541 24.602 123.99H25.526ZM36.4506 127.196C35.9839 127.187 35.5453 127.103 35.1346 126.944C34.7333 126.785 34.3786 126.547 34.0706 126.23C33.7719 125.913 33.5339 125.516 33.3566 125.04C33.1793 124.564 33.0906 124.009 33.0906 123.374C33.0906 122.842 33.1606 122.347 33.3006 121.89C33.4406 121.423 33.6506 121.017 33.9306 120.672C34.2106 120.327 34.5606 120.056 34.9806 119.86C35.4006 119.655 35.8906 119.552 36.4506 119.552C37.0199 119.552 37.5146 119.655 37.9346 119.86C38.3546 120.056 38.7046 120.327 38.9846 120.672C39.2646 121.008 39.4699 121.409 39.6006 121.876C39.7406 122.343 39.8106 122.842 39.8106 123.374C39.8106 123.953 39.7313 124.475 39.5726 124.942C39.4139 125.409 39.1853 125.81 38.8866 126.146C38.5973 126.482 38.2426 126.743 37.8226 126.93C37.4119 127.107 36.9546 127.196 36.4506 127.196ZM38.9146 123.374C38.9146 122.945 38.8679 122.543 38.7746 122.17C38.6813 121.797 38.5366 121.475 38.3406 121.204C38.1446 120.924 37.8926 120.705 37.5846 120.546C37.2766 120.387 36.8986 120.308 36.4506 120.308C36.0119 120.308 35.6339 120.397 35.3166 120.574C35.0086 120.742 34.7566 120.971 34.5606 121.26C34.3646 121.54 34.2199 121.867 34.1266 122.24C34.0333 122.604 33.9866 122.982 33.9866 123.374C33.9866 123.822 34.0379 124.237 34.1406 124.62C34.2526 124.993 34.4113 125.315 34.6166 125.586C34.8219 125.857 35.0786 126.067 35.3866 126.216C35.6946 126.365 36.0493 126.44 36.4506 126.44C36.8893 126.44 37.2626 126.356 37.5706 126.188C37.8879 126.011 38.1446 125.777 38.3406 125.488C38.5366 125.199 38.6813 124.872 38.7746 124.508C38.8679 124.144 38.9146 123.766 38.9146 123.374ZM42.2839 123.402C42.2839 123.813 42.3399 124.205 42.4519 124.578C42.5639 124.942 42.7226 125.264 42.9279 125.544C43.1426 125.815 43.3992 126.034 43.6979 126.202C44.0059 126.361 44.3512 126.44 44.7339 126.44C45.1632 126.44 45.5366 126.356 45.8539 126.188C46.1806 126.011 46.4466 125.773 46.6519 125.474C46.8572 125.175 47.0066 124.83 47.0999 124.438C47.1932 124.037 47.2306 123.607 47.2119 123.15C47.2119 122.693 47.1466 122.291 47.0159 121.946C46.8946 121.591 46.7219 121.293 46.4979 121.05C46.2739 120.807 46.0126 120.625 45.7139 120.504C45.4152 120.373 45.0886 120.308 44.7339 120.308C44.3419 120.308 43.9919 120.387 43.6839 120.546C43.3759 120.705 43.1192 120.924 42.9139 121.204C42.7086 121.475 42.5499 121.801 42.4379 122.184C42.3352 122.557 42.2839 122.963 42.2839 123.402ZM42.2839 129.856H41.4439V119.748H42.2839V121.022H42.3119C42.4332 120.789 42.5872 120.579 42.7739 120.392C42.9699 120.205 43.1799 120.051 43.4039 119.93C43.6372 119.809 43.8752 119.715 44.1179 119.65C44.3606 119.585 44.5986 119.552 44.8319 119.552C45.4199 119.552 45.9192 119.65 46.3299 119.846C46.7406 120.042 47.0766 120.313 47.3379 120.658C47.6086 120.994 47.8046 121.395 47.9259 121.862C48.0472 122.329 48.1079 122.828 48.1079 123.36C48.1079 123.864 48.0426 124.349 47.9119 124.816C47.7812 125.283 47.5806 125.693 47.3099 126.048C47.0486 126.393 46.7126 126.673 46.3019 126.888C45.9006 127.093 45.4246 127.196 44.8739 127.196C44.3606 127.196 43.8659 127.084 43.3899 126.86C42.9232 126.627 42.5546 126.286 42.2839 125.838V129.856ZM49.7844 127V119.748H50.6244V127H49.7844ZM49.7424 118.166V116.92H50.6664V118.166H49.7424ZM53.6439 127H52.8039V119.748H53.6439V121.106H53.6719C53.9052 120.527 54.2039 120.126 54.5679 119.902C54.9412 119.669 55.4312 119.552 56.0379 119.552V120.462C55.5619 120.453 55.1699 120.527 54.8619 120.686C54.5539 120.845 54.3066 121.059 54.1199 121.33C53.9426 121.601 53.8166 121.923 53.7419 122.296C53.6766 122.66 53.6439 123.043 53.6439 123.444V127ZM61.2645 128.974C61.3765 128.993 61.4885 129.011 61.6005 129.03C61.7218 129.049 61.8432 129.058 61.9645 129.058C62.1978 129.058 62.3892 128.983 62.5385 128.834C62.6878 128.685 62.8092 128.503 62.9025 128.288C63.0052 128.083 63.0892 127.863 63.1545 127.63C63.2198 127.406 63.2945 127.215 63.3785 127.056L60.5645 119.748H61.5025L63.8265 125.978L66.1505 119.748H67.0605L64.3585 126.902C64.1905 127.359 64.0272 127.77 63.8685 128.134C63.7192 128.498 63.5558 128.806 63.3785 129.058C63.2105 129.319 63.0192 129.515 62.8045 129.646C62.5992 129.786 62.3518 129.856 62.0625 129.856C61.9132 129.856 61.7685 129.847 61.6285 129.828C61.4978 129.809 61.3765 129.786 61.2645 129.758V128.974ZM73.0665 123.192C72.7118 123.341 72.3525 123.439 71.9885 123.486C71.6245 123.533 71.2605 123.57 70.8965 123.598C70.2525 123.645 69.7485 123.789 69.3845 124.032C69.0298 124.275 68.8525 124.643 68.8525 125.138C68.8525 125.362 68.8945 125.558 68.9785 125.726C69.0718 125.885 69.1885 126.02 69.3285 126.132C69.4778 126.235 69.6458 126.314 69.8325 126.37C70.0285 126.417 70.2245 126.44 70.4205 126.44C70.7565 126.44 71.0832 126.398 71.4005 126.314C71.7178 126.23 71.9978 126.104 72.2405 125.936C72.4925 125.759 72.6932 125.539 72.8425 125.278C72.9918 125.007 73.0665 124.69 73.0665 124.326V123.192ZM71.6525 122.772C71.8112 122.753 71.9978 122.725 72.2125 122.688C72.4365 122.651 72.6185 122.599 72.7585 122.534C72.8985 122.469 72.9825 122.361 73.0105 122.212C73.0478 122.053 73.0665 121.909 73.0665 121.778C73.0665 121.349 72.9265 120.999 72.6465 120.728C72.3758 120.448 71.9138 120.308 71.2605 120.308C70.9712 120.308 70.7052 120.336 70.4625 120.392C70.2198 120.439 70.0052 120.527 69.8185 120.658C69.6412 120.779 69.4918 120.947 69.3705 121.162C69.2585 121.367 69.1838 121.629 69.1465 121.946H68.2925C68.3205 121.517 68.4185 121.153 68.5865 120.854C68.7545 120.546 68.9692 120.299 69.2305 120.112C69.5012 119.916 69.8092 119.776 70.1545 119.692C70.5092 119.599 70.8825 119.552 71.2745 119.552C71.6385 119.552 71.9792 119.594 72.2965 119.678C72.6232 119.753 72.9032 119.879 73.1365 120.056C73.3792 120.224 73.5658 120.453 73.6965 120.742C73.8365 121.031 73.9065 121.386 73.9065 121.806V125.754C73.9065 126.081 73.9625 126.291 74.0745 126.384C74.1958 126.468 74.4338 126.445 74.7885 126.314V126.972C74.7232 126.991 74.6252 127.019 74.4945 127.056C74.3732 127.093 74.2518 127.112 74.1305 127.112C73.9998 127.112 73.8738 127.098 73.7525 127.07C73.6125 127.051 73.5005 127.009 73.4165 126.944C73.3325 126.869 73.2625 126.785 73.2065 126.692C73.1598 126.589 73.1272 126.482 73.1085 126.37C73.0898 126.249 73.0805 126.123 73.0805 125.992C72.7258 126.384 72.3198 126.683 71.8625 126.888C71.4052 127.093 70.9105 127.196 70.3785 127.196C70.0612 127.196 69.7532 127.154 69.4545 127.07C69.1652 126.986 68.9085 126.855 68.6845 126.678C68.4605 126.501 68.2832 126.286 68.1525 126.034C68.0218 125.773 67.9565 125.465 67.9565 125.11C67.9565 123.878 68.8012 123.15 70.4905 122.926L71.6525 122.772ZM76.9398 127H76.0998V119.748H76.9398V120.756C77.2758 120.401 77.6211 120.112 77.9758 119.888C78.3398 119.664 78.7738 119.552 79.2778 119.552C79.7258 119.552 80.1411 119.631 80.5238 119.79C80.9065 119.939 81.2285 120.205 81.4898 120.588C81.6671 120.849 81.7698 121.12 81.7978 121.4C81.8351 121.671 81.8538 121.955 81.8538 122.254V127H81.0138V122.268C81.0138 121.615 80.8691 121.125 80.5798 120.798C80.2905 120.471 79.8098 120.308 79.1378 120.308C78.8765 120.308 78.6385 120.35 78.4238 120.434C78.2091 120.509 78.0131 120.611 77.8358 120.742C77.6678 120.873 77.5231 121.022 77.4018 121.19C77.2805 121.358 77.1871 121.535 77.1218 121.722C77.0378 121.955 76.9865 122.179 76.9678 122.394C76.9491 122.609 76.9398 122.842 76.9398 123.094V127ZM89.4791 123.402C89.4791 122.963 89.4231 122.557 89.3111 122.184C89.2084 121.801 89.0544 121.475 88.8491 121.204C88.6438 120.924 88.3871 120.705 88.0791 120.546C87.7711 120.387 87.4211 120.308 87.0291 120.308C86.6744 120.308 86.3478 120.373 86.0491 120.504C85.7504 120.625 85.4891 120.807 85.2651 121.05C85.0411 121.293 84.8638 121.591 84.7331 121.946C84.6118 122.291 84.5511 122.693 84.5511 123.15C84.5324 123.607 84.5698 124.037 84.6631 124.438C84.7564 124.83 84.9058 125.175 85.1111 125.474C85.3164 125.773 85.5778 126.011 85.8951 126.188C86.2124 126.356 86.5904 126.44 87.0291 126.44C87.4118 126.44 87.7524 126.361 88.0511 126.202C88.3591 126.034 88.6158 125.815 88.8211 125.544C89.0358 125.264 89.1991 124.942 89.3111 124.578C89.4231 124.205 89.4791 123.813 89.4791 123.402ZM89.4791 119.748H90.3191V126.3C90.3191 126.785 90.2678 127.247 90.1651 127.686C90.0718 128.134 89.8991 128.526 89.6471 128.862C89.3951 129.198 89.0498 129.464 88.6111 129.66C88.1724 129.865 87.6078 129.968 86.9171 129.968C86.3851 129.968 85.9278 129.898 85.5451 129.758C85.1624 129.627 84.8498 129.459 84.6071 129.254C84.3644 129.049 84.1778 128.82 84.0471 128.568C83.9258 128.325 83.8604 128.097 83.8511 127.882H84.7471C84.8124 128.153 84.9151 128.372 85.0551 128.54C85.1951 128.717 85.3584 128.853 85.5451 128.946C85.7411 129.049 85.9558 129.119 86.1891 129.156C86.4224 129.193 86.6651 129.212 86.9171 129.212C87.4864 129.212 87.9438 129.114 88.2891 128.918C88.6344 128.722 88.8958 128.465 89.0731 128.148C89.2504 127.831 89.3624 127.471 89.4091 127.07C89.4651 126.669 89.4884 126.258 89.4791 125.838C89.2084 126.286 88.8351 126.627 88.3591 126.86C87.8924 127.084 87.4024 127.196 86.8891 127.196C86.3384 127.196 85.8578 127.093 85.4471 126.888C85.0458 126.673 84.7098 126.393 84.4391 126.048C84.1778 125.693 83.9818 125.283 83.8511 124.816C83.7204 124.349 83.6551 123.864 83.6551 123.36C83.6551 122.828 83.7158 122.329 83.8371 121.862C83.9584 121.395 84.1498 120.994 84.4111 120.658C84.6818 120.313 85.0224 120.042 85.4331 119.846C85.8438 119.65 86.3431 119.552 86.9311 119.552C87.1644 119.552 87.4024 119.585 87.6451 119.65C87.8878 119.715 88.1211 119.809 88.3451 119.93C88.5784 120.051 88.7884 120.205 88.9751 120.392C89.1711 120.579 89.3298 120.789 89.4511 121.022H89.4791V119.748ZM97.2722 123.402C97.2722 123.813 97.3282 124.205 97.4402 124.578C97.5522 124.942 97.7108 125.264 97.9162 125.544C98.1308 125.815 98.3875 126.034 98.6862 126.202C98.9942 126.361 99.3395 126.44 99.7222 126.44C100.152 126.44 100.525 126.356 100.842 126.188C101.169 126.011 101.435 125.773 101.64 125.474C101.846 125.175 101.995 124.83 102.088 124.438C102.182 124.037 102.219 123.607 102.2 123.15C102.2 122.693 102.135 122.291 102.004 121.946C101.883 121.591 101.71 121.293 101.486 121.05C101.262 120.807 101.001 120.625 100.702 120.504C100.404 120.373 100.077 120.308 99.7222 120.308C99.3302 120.308 98.9802 120.387 98.6722 120.546C98.3642 120.705 98.1075 120.924 97.9022 121.204C97.6968 121.475 97.5382 121.801 97.4262 122.184C97.3235 122.557 97.2722 122.963 97.2722 123.402ZM97.2722 129.856H96.4322V119.748H97.2722V121.022H97.3002C97.4215 120.789 97.5755 120.579 97.7622 120.392C97.9582 120.205 98.1682 120.051 98.3922 119.93C98.6255 119.809 98.8635 119.715 99.1062 119.65C99.3488 119.585 99.5868 119.552 99.8202 119.552C100.408 119.552 100.908 119.65 101.318 119.846C101.729 120.042 102.065 120.313 102.326 120.658C102.597 120.994 102.793 121.395 102.914 121.862C103.036 122.329 103.096 122.828 103.096 123.36C103.096 123.864 103.031 124.349 102.9 124.816C102.77 125.283 102.569 125.693 102.298 126.048C102.037 126.393 101.701 126.673 101.29 126.888C100.889 127.093 100.413 127.196 99.8622 127.196C99.3488 127.196 98.8542 127.084 98.3782 126.86C97.9115 126.627 97.5428 126.286 97.2722 125.838V129.856ZM105.775 127H104.935V119.748H105.775V121.106H105.803C106.036 120.527 106.335 120.126 106.699 119.902C107.072 119.669 107.562 119.552 108.169 119.552V120.462C107.693 120.453 107.301 120.527 106.993 120.686C106.685 120.845 106.437 121.059 106.251 121.33C106.073 121.601 105.947 121.923 105.873 122.296C105.807 122.66 105.775 123.043 105.775 123.444V127ZM112.193 127.196C111.726 127.187 111.287 127.103 110.877 126.944C110.475 126.785 110.121 126.547 109.813 126.23C109.514 125.913 109.276 125.516 109.099 125.04C108.921 124.564 108.833 124.009 108.833 123.374C108.833 122.842 108.903 122.347 109.043 121.89C109.183 121.423 109.393 121.017 109.673 120.672C109.953 120.327 110.303 120.056 110.723 119.86C111.143 119.655 111.633 119.552 112.193 119.552C112.762 119.552 113.257 119.655 113.677 119.86C114.097 120.056 114.447 120.327 114.727 120.672C115.007 121.008 115.212 121.409 115.343 121.876C115.483 122.343 115.553 122.842 115.553 123.374C115.553 123.953 115.473 124.475 115.315 124.942C115.156 125.409 114.927 125.81 114.629 126.146C114.339 126.482 113.985 126.743 113.565 126.93C113.154 127.107 112.697 127.196 112.193 127.196ZM114.657 123.374C114.657 122.945 114.61 122.543 114.517 122.17C114.423 121.797 114.279 121.475 114.083 121.204C113.887 120.924 113.635 120.705 113.327 120.546C113.019 120.387 112.641 120.308 112.193 120.308C111.754 120.308 111.376 120.397 111.059 120.574C110.751 120.742 110.499 120.971 110.303 121.26C110.107 121.54 109.962 121.867 109.869 122.24C109.775 122.604 109.729 122.982 109.729 123.374C109.729 123.822 109.78 124.237 109.883 124.62C109.995 124.993 110.153 125.315 110.359 125.586C110.564 125.857 110.821 126.067 111.129 126.216C111.437 126.365 111.791 126.44 112.193 126.44C112.631 126.44 113.005 126.356 113.313 126.188C113.63 126.011 113.887 125.777 114.083 125.488C114.279 125.199 114.423 124.872 114.517 124.508C114.61 124.144 114.657 123.766 114.657 123.374ZM116.36 120.448V119.748H117.438V118.6C117.438 118.021 117.555 117.564 117.788 117.228C118.021 116.892 118.418 116.724 118.978 116.724C119.109 116.724 119.23 116.729 119.342 116.738C119.454 116.747 119.566 116.761 119.678 116.78V117.55C119.491 117.503 119.323 117.48 119.174 117.48C118.959 117.48 118.791 117.522 118.67 117.606C118.549 117.681 118.46 117.783 118.404 117.914C118.348 118.045 118.311 118.194 118.292 118.362C118.283 118.521 118.278 118.684 118.278 118.852V119.748H119.678V120.448H118.278V127H117.438V120.448H116.36ZM126.235 122.87C126.235 122.515 126.183 122.184 126.081 121.876C125.987 121.559 125.843 121.288 125.647 121.064C125.46 120.831 125.222 120.649 124.933 120.518C124.643 120.378 124.312 120.308 123.939 120.308C123.565 120.308 123.234 120.378 122.945 120.518C122.665 120.658 122.422 120.845 122.217 121.078C122.021 121.311 121.862 121.582 121.741 121.89C121.619 122.198 121.54 122.525 121.503 122.87H126.235ZM121.503 123.57C121.503 123.962 121.554 124.335 121.657 124.69C121.759 125.035 121.909 125.339 122.105 125.6C122.31 125.852 122.567 126.057 122.875 126.216C123.183 126.365 123.537 126.44 123.939 126.44C124.489 126.44 124.961 126.295 125.353 126.006C125.745 125.717 126.006 125.306 126.137 124.774H127.075C126.972 125.119 126.837 125.441 126.669 125.74C126.501 126.029 126.291 126.286 126.039 126.51C125.787 126.725 125.488 126.893 125.143 127.014C124.797 127.135 124.396 127.196 123.939 127.196C123.36 127.196 122.861 127.098 122.441 126.902C122.021 126.706 121.675 126.44 121.405 126.104C121.134 125.759 120.933 125.357 120.803 124.9C120.672 124.433 120.607 123.934 120.607 123.402C120.607 122.87 120.681 122.371 120.831 121.904C120.989 121.437 121.209 121.031 121.489 120.686C121.778 120.331 122.128 120.056 122.539 119.86C122.949 119.655 123.416 119.552 123.939 119.552C124.937 119.552 125.721 119.897 126.291 120.588C126.86 121.269 127.14 122.263 127.131 123.57H121.503ZM129.254 124.732C129.385 125.357 129.618 125.801 129.954 126.062C130.299 126.314 130.789 126.44 131.424 126.44C131.732 126.44 131.998 126.403 132.222 126.328C132.446 126.253 132.628 126.155 132.768 126.034C132.917 125.903 133.029 125.759 133.104 125.6C133.179 125.441 133.216 125.273 133.216 125.096C133.216 124.741 133.099 124.48 132.866 124.312C132.642 124.135 132.357 123.999 132.012 123.906C131.667 123.803 131.293 123.719 130.892 123.654C130.491 123.579 130.117 123.472 129.772 123.332C129.427 123.192 129.137 122.991 128.904 122.73C128.68 122.469 128.568 122.1 128.568 121.624C128.568 121.017 128.787 120.523 129.226 120.14C129.674 119.748 130.304 119.552 131.116 119.552C131.9 119.552 132.535 119.729 133.02 120.084C133.515 120.429 133.813 121.013 133.916 121.834H133.062C132.987 121.274 132.773 120.882 132.418 120.658C132.073 120.425 131.634 120.308 131.102 120.308C130.57 120.308 130.164 120.425 129.884 120.658C129.604 120.882 129.464 121.181 129.464 121.554C129.464 121.881 129.576 122.133 129.8 122.31C130.033 122.478 130.323 122.618 130.668 122.73C131.013 122.833 131.387 122.926 131.788 123.01C132.189 123.094 132.563 123.215 132.908 123.374C133.253 123.523 133.538 123.729 133.762 123.99C133.995 124.251 134.112 124.615 134.112 125.082C134.112 125.427 134.037 125.735 133.888 126.006C133.739 126.267 133.533 126.487 133.272 126.664C133.011 126.841 132.698 126.972 132.334 127.056C131.979 127.149 131.587 127.196 131.158 127.196C130.729 127.196 130.346 127.131 130.01 127C129.683 126.879 129.403 126.706 129.17 126.482C128.937 126.258 128.755 125.997 128.624 125.698C128.493 125.399 128.419 125.077 128.4 124.732H129.254ZM135.644 127V119.748H136.484V127H135.644ZM135.602 118.166V116.92H136.526V118.166H135.602ZM141.505 127.196C141.039 127.187 140.6 127.103 140.189 126.944C139.788 126.785 139.433 126.547 139.125 126.23C138.827 125.913 138.589 125.516 138.411 125.04C138.234 124.564 138.145 124.009 138.145 123.374C138.145 122.842 138.215 122.347 138.355 121.89C138.495 121.423 138.705 121.017 138.985 120.672C139.265 120.327 139.615 120.056 140.035 119.86C140.455 119.655 140.945 119.552 141.505 119.552C142.075 119.552 142.569 119.655 142.989 119.86C143.409 120.056 143.759 120.327 144.039 120.672C144.319 121.008 144.525 121.409 144.655 121.876C144.795 122.343 144.865 122.842 144.865 123.374C144.865 123.953 144.786 124.475 144.627 124.942C144.469 125.409 144.24 125.81 143.941 126.146C143.652 126.482 143.297 126.743 142.877 126.93C142.467 127.107 142.009 127.196 141.505 127.196ZM143.969 123.374C143.969 122.945 143.923 122.543 143.829 122.17C143.736 121.797 143.591 121.475 143.395 121.204C143.199 120.924 142.947 120.705 142.639 120.546C142.331 120.387 141.953 120.308 141.505 120.308C141.067 120.308 140.689 120.397 140.371 120.574C140.063 120.742 139.811 120.971 139.615 121.26C139.419 121.54 139.275 121.867 139.181 122.24C139.088 122.604 139.041 122.982 139.041 123.374C139.041 123.822 139.093 124.237 139.195 124.62C139.307 124.993 139.466 125.315 139.671 125.586C139.877 125.857 140.133 126.067 140.441 126.216C140.749 126.365 141.104 126.44 141.505 126.44C141.944 126.44 142.317 126.356 142.625 126.188C142.943 126.011 143.199 125.777 143.395 125.488C143.591 125.199 143.736 124.872 143.829 124.508C143.923 124.144 143.969 123.766 143.969 123.374ZM147.241 127H146.401V119.748H147.241V120.756C147.577 120.401 147.922 120.112 148.277 119.888C148.641 119.664 149.075 119.552 149.579 119.552C150.027 119.552 150.442 119.631 150.825 119.79C151.207 119.939 151.529 120.205 151.791 120.588C151.968 120.849 152.071 121.12 152.099 121.4C152.136 121.671 152.155 121.955 152.155 122.254V127H151.315V122.268C151.315 121.615 151.17 121.125 150.881 120.798C150.591 120.471 150.111 120.308 149.439 120.308C149.177 120.308 148.939 120.35 148.725 120.434C148.51 120.509 148.314 120.611 148.137 120.742C147.969 120.873 147.824 121.022 147.703 121.19C147.581 121.358 147.488 121.535 147.423 121.722C147.339 121.955 147.287 122.179 147.269 122.394C147.25 122.609 147.241 122.842 147.241 123.094V127ZM158.926 123.192C158.571 123.341 158.212 123.439 157.848 123.486C157.484 123.533 157.12 123.57 156.756 123.598C156.112 123.645 155.608 123.789 155.244 124.032C154.889 124.275 154.712 124.643 154.712 125.138C154.712 125.362 154.754 125.558 154.838 125.726C154.931 125.885 155.048 126.02 155.188 126.132C155.337 126.235 155.505 126.314 155.692 126.37C155.888 126.417 156.084 126.44 156.28 126.44C156.616 126.44 156.943 126.398 157.26 126.314C157.577 126.23 157.857 126.104 158.1 125.936C158.352 125.759 158.553 125.539 158.702 125.278C158.851 125.007 158.926 124.69 158.926 124.326V123.192ZM157.512 122.772C157.671 122.753 157.857 122.725 158.072 122.688C158.296 122.651 158.478 122.599 158.618 122.534C158.758 122.469 158.842 122.361 158.87 122.212C158.907 122.053 158.926 121.909 158.926 121.778C158.926 121.349 158.786 120.999 158.506 120.728C158.235 120.448 157.773 120.308 157.12 120.308C156.831 120.308 156.565 120.336 156.322 120.392C156.079 120.439 155.865 120.527 155.678 120.658C155.501 120.779 155.351 120.947 155.23 121.162C155.118 121.367 155.043 121.629 155.006 121.946H154.152C154.18 121.517 154.278 121.153 154.446 120.854C154.614 120.546 154.829 120.299 155.09 120.112C155.361 119.916 155.669 119.776 156.014 119.692C156.369 119.599 156.742 119.552 157.134 119.552C157.498 119.552 157.839 119.594 158.156 119.678C158.483 119.753 158.763 119.879 158.996 120.056C159.239 120.224 159.425 120.453 159.556 120.742C159.696 121.031 159.766 121.386 159.766 121.806V125.754C159.766 126.081 159.822 126.291 159.934 126.384C160.055 126.468 160.293 126.445 160.648 126.314V126.972C160.583 126.991 160.485 127.019 160.354 127.056C160.233 127.093 160.111 127.112 159.99 127.112C159.859 127.112 159.733 127.098 159.612 127.07C159.472 127.051 159.36 127.009 159.276 126.944C159.192 126.869 159.122 126.785 159.066 126.692C159.019 126.589 158.987 126.482 158.968 126.37C158.949 126.249 158.94 126.123 158.94 125.992C158.585 126.384 158.179 126.683 157.722 126.888C157.265 127.093 156.77 127.196 156.238 127.196C155.921 127.196 155.613 127.154 155.314 127.07C155.025 126.986 154.768 126.855 154.544 126.678C154.32 126.501 154.143 126.286 154.012 126.034C153.881 125.773 153.816 125.465 153.816 125.11C153.816 123.878 154.661 123.15 156.35 122.926L157.512 122.772ZM162.085 127V116.92H162.925V127H162.085ZM166.505 127.42C166.505 127.831 166.407 128.157 166.211 128.4C166.024 128.652 165.781 128.825 165.483 128.918V128.4C165.595 128.325 165.702 128.223 165.805 128.092C165.907 127.961 165.959 127.756 165.959 127.476V127H165.483V125.768H166.505V127.42ZM25.946 143.346C25.946 143.785 25.9973 144.195 26.1 144.578C26.212 144.951 26.3707 145.278 26.576 145.558C26.7813 145.829 27.038 146.043 27.346 146.202C27.654 146.361 28.004 146.44 28.396 146.44C28.7507 146.44 29.0773 146.379 29.376 146.258C29.6747 146.127 29.936 145.941 30.16 145.698C30.384 145.455 30.5567 145.161 30.678 144.816C30.8087 144.461 30.874 144.055 30.874 143.598C30.8927 143.141 30.8553 142.716 30.762 142.324C30.6687 141.923 30.5193 141.573 30.314 141.274C30.1087 140.975 29.8427 140.742 29.516 140.574C29.1987 140.397 28.8253 140.308 28.396 140.308C28.0133 140.308 27.668 140.392 27.36 140.56C27.0613 140.719 26.8047 140.938 26.59 141.218C26.3847 141.489 26.226 141.811 26.114 142.184C26.002 142.548 25.946 142.935 25.946 143.346ZM25.946 147H25.106V136.92H25.946V140.91C26.2167 140.462 26.5853 140.126 27.052 139.902C27.528 139.669 28.0227 139.552 28.536 139.552C29.0867 139.552 29.5627 139.659 29.964 139.874C30.3747 140.079 30.7107 140.359 30.972 140.714C31.2427 141.059 31.4433 141.465 31.574 141.932C31.7047 142.399 31.77 142.884 31.77 143.388C31.77 143.92 31.7093 144.419 31.588 144.886C31.4667 145.353 31.2707 145.759 31 146.104C30.7387 146.44 30.4027 146.706 29.992 146.902C29.5813 147.098 29.082 147.196 28.494 147.196C28.2607 147.196 28.0227 147.163 27.78 147.098C27.5373 147.033 27.2993 146.939 27.066 146.818C26.842 146.697 26.632 146.547 26.436 146.37C26.2493 146.183 26.0953 145.969 25.974 145.726H25.946V147ZM38.8166 142.87C38.8166 142.515 38.7653 142.184 38.6626 141.876C38.5693 141.559 38.4246 141.288 38.2286 141.064C38.0419 140.831 37.8039 140.649 37.5146 140.518C37.2253 140.378 36.8939 140.308 36.5206 140.308C36.1473 140.308 35.8159 140.378 35.5266 140.518C35.2466 140.658 35.0039 140.845 34.7986 141.078C34.6026 141.311 34.4439 141.582 34.3226 141.89C34.2013 142.198 34.1219 142.525 34.0846 142.87H38.8166ZM34.0846 143.57C34.0846 143.962 34.1359 144.335 34.2386 144.69C34.3413 145.035 34.4906 145.339 34.6866 145.6C34.8919 145.852 35.1486 146.057 35.4566 146.216C35.7646 146.365 36.1193 146.44 36.5206 146.44C37.0713 146.44 37.5426 146.295 37.9346 146.006C38.3266 145.717 38.5879 145.306 38.7186 144.774H39.6566C39.5539 145.119 39.4186 145.441 39.2506 145.74C39.0826 146.029 38.8726 146.286 38.6206 146.51C38.3686 146.725 38.0699 146.893 37.7246 147.014C37.3793 147.135 36.9779 147.196 36.5206 147.196C35.9419 147.196 35.4426 147.098 35.0226 146.902C34.6026 146.706 34.2573 146.44 33.9866 146.104C33.7159 145.759 33.5153 145.357 33.3846 144.9C33.2539 144.433 33.1886 143.934 33.1886 143.402C33.1886 142.87 33.2633 142.371 33.4126 141.904C33.5713 141.437 33.7906 141.031 34.0706 140.686C34.3599 140.331 34.7099 140.056 35.1206 139.86C35.5313 139.655 35.9979 139.552 36.5206 139.552C37.5193 139.552 38.3033 139.897 38.8726 140.588C39.4419 141.269 39.7219 142.263 39.7126 143.57H34.0846ZM42.2279 147H41.3879V139.748H42.2279V141.106H42.2559C42.4892 140.527 42.7879 140.126 43.1519 139.902C43.5252 139.669 44.0152 139.552 44.6219 139.552V140.462C44.1459 140.453 43.7539 140.527 43.4459 140.686C43.1379 140.845 42.8906 141.059 42.7039 141.33C42.5266 141.601 42.4006 141.923 42.3259 142.296C42.2606 142.66 42.2279 143.043 42.2279 143.444V147ZM46.946 143.402C46.946 143.813 47.002 144.205 47.114 144.578C47.226 144.942 47.3847 145.264 47.59 145.544C47.8047 145.815 48.0613 146.034 48.36 146.202C48.668 146.361 49.0133 146.44 49.396 146.44C49.8253 146.44 50.1987 146.356 50.516 146.188C50.8427 146.011 51.1087 145.773 51.314 145.474C51.5193 145.175 51.6687 144.83 51.762 144.438C51.8553 144.037 51.8927 143.607 51.874 143.15C51.874 142.693 51.8087 142.291 51.678 141.946C51.5567 141.591 51.384 141.293 51.16 141.05C50.936 140.807 50.6747 140.625 50.376 140.504C50.0773 140.373 49.7507 140.308 49.396 140.308C49.004 140.308 48.654 140.387 48.346 140.546C48.038 140.705 47.7813 140.924 47.576 141.204C47.3707 141.475 47.212 141.801 47.1 142.184C46.9973 142.557 46.946 142.963 46.946 143.402ZM46.946 149.856H46.106V139.748H46.946V141.022H46.974C47.0953 140.789 47.2493 140.579 47.436 140.392C47.632 140.205 47.842 140.051 48.066 139.93C48.2993 139.809 48.5373 139.715 48.78 139.65C49.0227 139.585 49.2607 139.552 49.494 139.552C50.082 139.552 50.5813 139.65 50.992 139.846C51.4027 140.042 51.7387 140.313 52 140.658C52.2707 140.994 52.4667 141.395 52.588 141.862C52.7093 142.329 52.77 142.828 52.77 143.36C52.77 143.864 52.7047 144.349 52.574 144.816C52.4433 145.283 52.2427 145.693 51.972 146.048C51.7107 146.393 51.3747 146.673 50.964 146.888C50.5627 147.093 50.0867 147.196 49.536 147.196C49.0227 147.196 48.528 147.084 48.052 146.86C47.5853 146.627 47.2167 146.286 46.946 145.838V149.856ZM59.8166 142.87C59.8166 142.515 59.7653 142.184 59.6626 141.876C59.5693 141.559 59.4246 141.288 59.2286 141.064C59.0419 140.831 58.8039 140.649 58.5146 140.518C58.2253 140.378 57.8939 140.308 57.5206 140.308C57.1473 140.308 56.8159 140.378 56.5266 140.518C56.2466 140.658 56.0039 140.845 55.7986 141.078C55.6026 141.311 55.4439 141.582 55.3226 141.89C55.2013 142.198 55.1219 142.525 55.0846 142.87H59.8166ZM55.0846 143.57C55.0846 143.962 55.1359 144.335 55.2386 144.69C55.3413 145.035 55.4906 145.339 55.6866 145.6C55.8919 145.852 56.1486 146.057 56.4566 146.216C56.7646 146.365 57.1193 146.44 57.5206 146.44C58.0713 146.44 58.5426 146.295 58.9346 146.006C59.3266 145.717 59.5879 145.306 59.7186 144.774H60.6566C60.5539 145.119 60.4186 145.441 60.2506 145.74C60.0826 146.029 59.8726 146.286 59.6206 146.51C59.3686 146.725 59.0699 146.893 58.7246 147.014C58.3793 147.135 57.9779 147.196 57.5206 147.196C56.9419 147.196 56.4426 147.098 56.0226 146.902C55.6026 146.706 55.2573 146.44 54.9866 146.104C54.7159 145.759 54.5153 145.357 54.3846 144.9C54.2539 144.433 54.1886 143.934 54.1886 143.402C54.1886 142.87 54.2633 142.371 54.4126 141.904C54.5713 141.437 54.7906 141.031 55.0706 140.686C55.3599 140.331 55.7099 140.056 56.1206 139.86C56.5313 139.655 56.9979 139.552 57.5206 139.552C58.5193 139.552 59.3033 139.897 59.8726 140.588C60.4419 141.269 60.7219 142.263 60.7126 143.57H55.0846ZM63.1859 147H62.3459V139.748H63.1859V140.756C63.5219 140.401 63.8672 140.112 64.2219 139.888C64.5859 139.664 65.0199 139.552 65.5239 139.552C65.9719 139.552 66.3872 139.631 66.7699 139.79C67.1526 139.939 67.4746 140.205 67.7359 140.588C67.9132 140.849 68.0159 141.12 68.0439 141.4C68.0812 141.671 68.0999 141.955 68.0999 142.254V147H67.2599V142.268C67.2599 141.615 67.1152 141.125 66.8259 140.798C66.5366 140.471 66.0559 140.308 65.3839 140.308C65.1226 140.308 64.8846 140.35 64.6699 140.434C64.4552 140.509 64.2592 140.611 64.0819 140.742C63.9139 140.873 63.7692 141.022 63.6479 141.19C63.5266 141.358 63.4332 141.535 63.3679 141.722C63.2839 141.955 63.2326 142.179 63.2139 142.394C63.1952 142.609 63.1859 142.842 63.1859 143.094V147ZM75.7252 143.402C75.7252 142.963 75.6692 142.557 75.5572 142.184C75.4545 141.801 75.3005 141.475 75.0952 141.204C74.8899 140.924 74.6332 140.705 74.3252 140.546C74.0172 140.387 73.6672 140.308 73.2752 140.308C72.9205 140.308 72.5939 140.373 72.2952 140.504C71.9965 140.625 71.7352 140.807 71.5112 141.05C71.2872 141.293 71.1099 141.591 70.9792 141.946C70.8579 142.291 70.7972 142.693 70.7972 143.15C70.7785 143.607 70.8159 144.037 70.9092 144.438C71.0025 144.83 71.1519 145.175 71.3572 145.474C71.5625 145.773 71.8239 146.011 72.1412 146.188C72.4585 146.356 72.8365 146.44 73.2752 146.44C73.6579 146.44 73.9985 146.361 74.2972 146.202C74.6052 146.034 74.8619 145.815 75.0672 145.544C75.2819 145.264 75.4452 144.942 75.5572 144.578C75.6692 144.205 75.7252 143.813 75.7252 143.402ZM75.7252 139.748H76.5652V146.3C76.5652 146.785 76.5139 147.247 76.4112 147.686C76.3179 148.134 76.1452 148.526 75.8932 148.862C75.6412 149.198 75.2959 149.464 74.8572 149.66C74.4185 149.865 73.8539 149.968 73.1632 149.968C72.6312 149.968 72.1739 149.898 71.7912 149.758C71.4085 149.627 71.0959 149.459 70.8532 149.254C70.6105 149.049 70.4239 148.82 70.2932 148.568C70.1719 148.325 70.1065 148.097 70.0972 147.882H70.9932C71.0585 148.153 71.1612 148.372 71.3012 148.54C71.4412 148.717 71.6045 148.853 71.7912 148.946C71.9872 149.049 72.2019 149.119 72.4352 149.156C72.6685 149.193 72.9112 149.212 73.1632 149.212C73.7325 149.212 74.1899 149.114 74.5352 148.918C74.8805 148.722 75.1419 148.465 75.3192 148.148C75.4965 147.831 75.6085 147.471 75.6552 147.07C75.7112 146.669 75.7345 146.258 75.7252 145.838C75.4545 146.286 75.0812 146.627 74.6052 146.86C74.1385 147.084 73.6485 147.196 73.1352 147.196C72.5845 147.196 72.1039 147.093 71.6932 146.888C71.2919 146.673 70.9559 146.393 70.6852 146.048C70.4239 145.693 70.2279 145.283 70.0972 144.816C69.9665 144.349 69.9012 143.864 69.9012 143.36C69.9012 142.828 69.9619 142.329 70.0832 141.862C70.2045 141.395 70.3959 140.994 70.6572 140.658C70.9279 140.313 71.2685 140.042 71.6792 139.846C72.0899 139.65 72.5892 139.552 73.1772 139.552C73.4105 139.552 73.6485 139.585 73.8912 139.65C74.1339 139.715 74.3672 139.809 74.5912 139.93C74.8245 140.051 75.0345 140.205 75.2212 140.392C75.4172 140.579 75.5759 140.789 75.6972 141.022H75.7252V139.748ZM83.4298 143.192C83.0751 143.341 82.7158 143.439 82.3518 143.486C81.9878 143.533 81.6238 143.57 81.2598 143.598C80.6158 143.645 80.1118 143.789 79.7478 144.032C79.3931 144.275 79.2158 144.643 79.2158 145.138C79.2158 145.362 79.2578 145.558 79.3418 145.726C79.4351 145.885 79.5518 146.02 79.6918 146.132C79.8411 146.235 80.0091 146.314 80.1958 146.37C80.3918 146.417 80.5878 146.44 80.7838 146.44C81.1198 146.44 81.4464 146.398 81.7638 146.314C82.0811 146.23 82.3611 146.104 82.6038 145.936C82.8558 145.759 83.0564 145.539 83.2058 145.278C83.3551 145.007 83.4298 144.69 83.4298 144.326V143.192ZM82.0158 142.772C82.1744 142.753 82.3611 142.725 82.5758 142.688C82.7998 142.651 82.9818 142.599 83.1218 142.534C83.2618 142.469 83.3458 142.361 83.3738 142.212C83.4111 142.053 83.4298 141.909 83.4298 141.778C83.4298 141.349 83.2898 140.999 83.0098 140.728C82.7391 140.448 82.2771 140.308 81.6238 140.308C81.3344 140.308 81.0684 140.336 80.8258 140.392C80.5831 140.439 80.3684 140.527 80.1818 140.658C80.0044 140.779 79.8551 140.947 79.7338 141.162C79.6218 141.367 79.5471 141.629 79.5098 141.946H78.6558C78.6838 141.517 78.7818 141.153 78.9498 140.854C79.1178 140.546 79.3324 140.299 79.5938 140.112C79.8644 139.916 80.1724 139.776 80.5178 139.692C80.8724 139.599 81.2458 139.552 81.6378 139.552C82.0018 139.552 82.3424 139.594 82.6598 139.678C82.9864 139.753 83.2664 139.879 83.4998 140.056C83.7424 140.224 83.9291 140.453 84.0598 140.742C84.1998 141.031 84.2698 141.386 84.2698 141.806V145.754C84.2698 146.081 84.3258 146.291 84.4378 146.384C84.5591 146.468 84.7971 146.445 85.1518 146.314V146.972C85.0864 146.991 84.9884 147.019 84.8578 147.056C84.7364 147.093 84.6151 147.112 84.4938 147.112C84.3631 147.112 84.2371 147.098 84.1158 147.07C83.9758 147.051 83.8638 147.009 83.7798 146.944C83.6958 146.869 83.6258 146.785 83.5698 146.692C83.5231 146.589 83.4904 146.482 83.4718 146.37C83.4531 146.249 83.4438 146.123 83.4438 145.992C83.0891 146.384 82.6831 146.683 82.2258 146.888C81.7684 147.093 81.2738 147.196 80.7418 147.196C80.4244 147.196 80.1164 147.154 79.8178 147.07C79.5284 146.986 79.2718 146.855 79.0478 146.678C78.8238 146.501 78.6464 146.286 78.5158 146.034C78.3851 145.773 78.3198 145.465 78.3198 145.11C78.3198 143.878 79.1644 143.15 80.8538 142.926L82.0158 142.772ZM86.5891 147V136.92H87.4291V147H86.5891ZM94.3126 143.192C93.9579 143.341 93.5986 143.439 93.2346 143.486C92.8706 143.533 92.5066 143.57 92.1426 143.598C91.4986 143.645 90.9946 143.789 90.6306 144.032C90.2759 144.275 90.0986 144.643 90.0986 145.138C90.0986 145.362 90.1406 145.558 90.2246 145.726C90.3179 145.885 90.4346 146.02 90.5746 146.132C90.7239 146.235 90.8919 146.314 91.0786 146.37C91.2746 146.417 91.4706 146.44 91.6666 146.44C92.0026 146.44 92.3293 146.398 92.6466 146.314C92.9639 146.23 93.2439 146.104 93.4866 145.936C93.7386 145.759 93.9393 145.539 94.0886 145.278C94.2379 145.007 94.3126 144.69 94.3126 144.326V143.192ZM92.8986 142.772C93.0573 142.753 93.2439 142.725 93.4586 142.688C93.6826 142.651 93.8646 142.599 94.0046 142.534C94.1446 142.469 94.2286 142.361 94.2566 142.212C94.2939 142.053 94.3126 141.909 94.3126 141.778C94.3126 141.349 94.1726 140.999 93.8926 140.728C93.6219 140.448 93.1599 140.308 92.5066 140.308C92.2173 140.308 91.9513 140.336 91.7086 140.392C91.4659 140.439 91.2513 140.527 91.0646 140.658C90.8873 140.779 90.7379 140.947 90.6166 141.162C90.5046 141.367 90.4299 141.629 90.3926 141.946H89.5386C89.5666 141.517 89.6646 141.153 89.8326 140.854C90.0006 140.546 90.2153 140.299 90.4766 140.112C90.7473 139.916 91.0553 139.776 91.4006 139.692C91.7553 139.599 92.1286 139.552 92.5206 139.552C92.8846 139.552 93.2253 139.594 93.5426 139.678C93.8693 139.753 94.1493 139.879 94.3826 140.056C94.6253 140.224 94.8119 140.453 94.9426 140.742C95.0826 141.031 95.1526 141.386 95.1526 141.806V145.754C95.1526 146.081 95.2086 146.291 95.3206 146.384C95.4419 146.468 95.6799 146.445 96.0346 146.314V146.972C95.9693 146.991 95.8713 147.019 95.7406 147.056C95.6193 147.093 95.4979 147.112 95.3766 147.112C95.2459 147.112 95.1199 147.098 94.9986 147.07C94.8586 147.051 94.7466 147.009 94.6626 146.944C94.5786 146.869 94.5086 146.785 94.4526 146.692C94.4059 146.589 94.3733 146.482 94.3546 146.37C94.3359 146.249 94.3266 146.123 94.3266 145.992C93.9719 146.384 93.5659 146.683 93.1086 146.888C92.6513 147.093 92.1566 147.196 91.6246 147.196C91.3073 147.196 90.9993 147.154 90.7006 147.07C90.4113 146.986 90.1546 146.855 89.9306 146.678C89.7066 146.501 89.5293 146.286 89.3986 146.034C89.2679 145.773 89.2026 145.465 89.2026 145.11C89.2026 143.878 90.0473 143.15 91.7366 142.926L92.8986 142.772ZM98.0739 147H97.2339V139.748H98.0739V140.84H98.1019C98.3166 140.42 98.6246 140.103 99.0259 139.888C99.4272 139.664 99.8659 139.552 100.342 139.552C100.678 139.552 100.963 139.589 101.196 139.664C101.429 139.739 101.625 139.841 101.784 139.972C101.952 140.093 102.087 140.238 102.19 140.406C102.302 140.574 102.395 140.756 102.47 140.952C102.713 140.476 103.035 140.126 103.436 139.902C103.847 139.669 104.313 139.552 104.836 139.552C105.331 139.552 105.723 139.636 106.012 139.804C106.311 139.963 106.539 140.177 106.698 140.448C106.857 140.709 106.959 141.013 107.006 141.358C107.062 141.703 107.09 142.058 107.09 142.422V147H106.25V141.988C106.25 141.465 106.138 141.055 105.914 140.756C105.699 140.457 105.293 140.308 104.696 140.308C104.388 140.308 104.089 140.378 103.8 140.518C103.52 140.649 103.273 140.854 103.058 141.134C102.965 141.255 102.885 141.4 102.82 141.568C102.764 141.727 102.717 141.895 102.68 142.072C102.643 142.249 102.615 142.427 102.596 142.604C102.587 142.781 102.582 142.945 102.582 143.094V147H101.742V141.988C101.742 141.465 101.63 141.055 101.406 140.756C101.191 140.457 100.785 140.308 100.188 140.308C99.8799 140.308 99.5812 140.378 99.2919 140.518C99.0119 140.649 98.7646 140.854 98.5499 141.134C98.4566 141.255 98.3772 141.4 98.3119 141.568C98.2559 141.727 98.2092 141.895 98.1719 142.072C98.1346 142.249 98.1066 142.427 98.0879 142.604C98.0786 142.781 98.0739 142.945 98.0739 143.094V147ZM113.754 143.192C113.399 143.341 113.04 143.439 112.676 143.486C112.312 143.533 111.948 143.57 111.584 143.598C110.94 143.645 110.436 143.789 110.072 144.032C109.717 144.275 109.54 144.643 109.54 145.138C109.54 145.362 109.582 145.558 109.666 145.726C109.759 145.885 109.876 146.02 110.016 146.132C110.165 146.235 110.333 146.314 110.52 146.37C110.716 146.417 110.912 146.44 111.108 146.44C111.444 146.44 111.771 146.398 112.088 146.314C112.405 146.23 112.685 146.104 112.928 145.936C113.18 145.759 113.381 145.539 113.53 145.278C113.679 145.007 113.754 144.69 113.754 144.326V143.192ZM112.34 142.772C112.499 142.753 112.685 142.725 112.9 142.688C113.124 142.651 113.306 142.599 113.446 142.534C113.586 142.469 113.67 142.361 113.698 142.212C113.735 142.053 113.754 141.909 113.754 141.778C113.754 141.349 113.614 140.999 113.334 140.728C113.063 140.448 112.601 140.308 111.948 140.308C111.659 140.308 111.393 140.336 111.15 140.392C110.907 140.439 110.693 140.527 110.506 140.658C110.329 140.779 110.179 140.947 110.058 141.162C109.946 141.367 109.871 141.629 109.834 141.946H108.98C109.008 141.517 109.106 141.153 109.274 140.854C109.442 140.546 109.657 140.299 109.918 140.112C110.189 139.916 110.497 139.776 110.842 139.692C111.197 139.599 111.57 139.552 111.962 139.552C112.326 139.552 112.667 139.594 112.984 139.678C113.311 139.753 113.591 139.879 113.824 140.056C114.067 140.224 114.253 140.453 114.384 140.742C114.524 141.031 114.594 141.386 114.594 141.806V145.754C114.594 146.081 114.65 146.291 114.762 146.384C114.883 146.468 115.121 146.445 115.476 146.314V146.972C115.411 146.991 115.313 147.019 115.182 147.056C115.061 147.093 114.939 147.112 114.818 147.112C114.687 147.112 114.561 147.098 114.44 147.07C114.3 147.051 114.188 147.009 114.104 146.944C114.02 146.869 113.95 146.785 113.894 146.692C113.847 146.589 113.815 146.482 113.796 146.37C113.777 146.249 113.768 146.123 113.768 145.992C113.413 146.384 113.007 146.683 112.55 146.888C112.093 147.093 111.598 147.196 111.066 147.196C110.749 147.196 110.441 147.154 110.142 147.07C109.853 146.986 109.596 146.855 109.372 146.678C109.148 146.501 108.971 146.286 108.84 146.034C108.709 145.773 108.644 145.465 108.644 145.11C108.644 143.878 109.489 143.15 111.178 142.926L112.34 142.772ZM117.627 147H116.787V139.748H117.627V140.756C117.963 140.401 118.309 140.112 118.663 139.888C119.027 139.664 119.461 139.552 119.965 139.552C120.413 139.552 120.829 139.631 121.211 139.79C121.594 139.939 121.916 140.205 122.177 140.588C122.355 140.849 122.457 141.12 122.485 141.4C122.523 141.671 122.541 141.955 122.541 142.254V147H121.701V142.268C121.701 141.615 121.557 141.125 121.267 140.798C120.978 140.471 120.497 140.308 119.825 140.308C119.564 140.308 119.326 140.35 119.111 140.434C118.897 140.509 118.701 140.611 118.523 140.742C118.355 140.873 118.211 141.022 118.089 141.19C117.968 141.358 117.875 141.535 117.809 141.722C117.725 141.955 117.674 142.179 117.655 142.394C117.637 142.609 117.627 142.842 117.627 143.094V147ZM126.009 147.42C126.009 147.831 125.911 148.157 125.715 148.4C125.528 148.652 125.285 148.825 124.987 148.918V148.4C125.099 148.325 125.206 148.223 125.309 148.092C125.411 147.961 125.463 147.756 125.463 147.476V147H124.987V145.768H126.009V147.42ZM133.424 139.748V147.966C133.424 148.274 133.41 148.545 133.382 148.778C133.354 149.011 133.288 149.207 133.186 149.366C133.092 149.534 132.948 149.655 132.752 149.73C132.565 149.814 132.304 149.856 131.968 149.856C131.762 149.856 131.58 149.837 131.422 149.8V149.058C131.664 149.086 131.86 149.086 132.01 149.058C132.159 149.039 132.276 148.988 132.36 148.904C132.444 148.82 132.5 148.708 132.528 148.568C132.565 148.428 132.584 148.265 132.584 148.078V139.748H133.424ZM133.466 138.166H132.542V136.92H133.466V138.166ZM140.377 139.748H141.217V147H140.377V145.992C140.265 146.123 140.139 146.258 139.999 146.398C139.859 146.538 139.696 146.669 139.509 146.79C139.332 146.902 139.122 146.995 138.879 147.07C138.636 147.154 138.356 147.196 138.039 147.196C137.554 147.196 137.148 147.131 136.821 147C136.494 146.86 136.228 146.669 136.023 146.426C135.827 146.183 135.682 145.903 135.589 145.586C135.505 145.259 135.463 144.905 135.463 144.522V139.748H136.303V144.508C136.303 145.133 136.448 145.614 136.737 145.95C137.026 146.277 137.502 146.44 138.165 146.44C138.51 146.44 138.818 146.375 139.089 146.244C139.369 146.104 139.602 145.913 139.789 145.67C139.976 145.427 140.12 145.138 140.223 144.802C140.326 144.466 140.377 144.097 140.377 143.696V139.748ZM144.306 139.748V147.966C144.306 148.274 144.292 148.545 144.264 148.778C144.236 149.011 144.171 149.207 144.068 149.366C143.975 149.534 143.83 149.655 143.634 149.73C143.448 149.814 143.186 149.856 142.85 149.856C142.645 149.856 142.463 149.837 142.304 149.8V149.058C142.547 149.086 142.743 149.086 142.892 149.058C143.042 149.039 143.158 148.988 143.242 148.904C143.326 148.82 143.382 148.708 143.41 148.568C143.448 148.428 143.466 148.265 143.466 148.078V139.748H144.306ZM144.348 138.166H143.424V136.92H144.348V138.166ZM151.26 139.748H152.1V147H151.26V145.992C151.148 146.123 151.022 146.258 150.882 146.398C150.742 146.538 150.579 146.669 150.392 146.79C150.215 146.902 150.005 146.995 149.762 147.07C149.519 147.154 149.239 147.196 148.922 147.196C148.437 147.196 148.031 147.131 147.704 147C147.377 146.86 147.111 146.669 146.906 146.426C146.71 146.183 146.565 145.903 146.472 145.586C146.388 145.259 146.346 144.905 146.346 144.522V139.748H147.186V144.508C147.186 145.133 147.331 145.614 147.62 145.95C147.909 146.277 148.385 146.44 149.048 146.44C149.393 146.44 149.701 146.375 149.972 146.244C150.252 146.104 150.485 145.913 150.672 145.67C150.859 145.427 151.003 145.138 151.106 144.802C151.209 144.466 151.26 144.097 151.26 143.696V139.748ZM155.007 147H154.167V139.748H155.007V141.106H155.035C155.269 140.527 155.567 140.126 155.931 139.902C156.305 139.669 156.795 139.552 157.401 139.552V140.462C156.925 140.453 156.533 140.527 156.225 140.686C155.917 140.845 155.67 141.059 155.483 141.33C155.306 141.601 155.18 141.923 155.105 142.296C155.04 142.66 155.007 143.043 155.007 143.444V147ZM158.944 147.42C158.944 147.831 158.846 148.157 158.65 148.4C158.463 148.652 158.221 148.825 157.922 148.918V148.4C158.034 148.325 158.141 148.223 158.244 148.092C158.347 147.961 158.398 147.756 158.398 147.476V147H157.922V145.768H158.944V147.42ZM166.177 147H165.337V139.748H166.177V141.106H166.205C166.438 140.527 166.737 140.126 167.101 139.902C167.474 139.669 167.964 139.552 168.571 139.552V140.462C168.095 140.453 167.703 140.527 167.395 140.686C167.087 140.845 166.84 141.059 166.653 141.33C166.476 141.601 166.35 141.923 166.275 142.296C166.21 142.66 166.177 143.043 166.177 143.444V147ZM174.703 143.192C174.349 143.341 173.989 143.439 173.625 143.486C173.261 143.533 172.897 143.57 172.533 143.598C171.889 143.645 171.385 143.789 171.021 144.032C170.667 144.275 170.489 144.643 170.489 145.138C170.489 145.362 170.531 145.558 170.615 145.726C170.709 145.885 170.825 146.02 170.965 146.132C171.115 146.235 171.283 146.314 171.469 146.37C171.665 146.417 171.861 146.44 172.057 146.44C172.393 146.44 172.72 146.398 173.037 146.314C173.355 146.23 173.635 146.104 173.877 145.936C174.129 145.759 174.33 145.539 174.479 145.278C174.629 145.007 174.703 144.69 174.703 144.326V143.192ZM173.289 142.772C173.448 142.753 173.635 142.725 173.849 142.688C174.073 142.651 174.255 142.599 174.395 142.534C174.535 142.469 174.619 142.361 174.647 142.212C174.685 142.053 174.703 141.909 174.703 141.778C174.703 141.349 174.563 140.999 174.283 140.728C174.013 140.448 173.551 140.308 172.897 140.308C172.608 140.308 172.342 140.336 172.099 140.392C171.857 140.439 171.642 140.527 171.455 140.658C171.278 140.779 171.129 140.947 171.007 141.162C170.895 141.367 170.821 141.629 170.783 141.946H169.929C169.957 141.517 170.055 141.153 170.223 140.854C170.391 140.546 170.606 140.299 170.867 140.112C171.138 139.916 171.446 139.776 171.791 139.692C172.146 139.599 172.519 139.552 172.911 139.552C173.275 139.552 173.616 139.594 173.933 139.678C174.26 139.753 174.54 139.879 174.773 140.056C175.016 140.224 175.203 140.453 175.333 140.742C175.473 141.031 175.543 141.386 175.543 141.806V145.754C175.543 146.081 175.599 146.291 175.711 146.384C175.833 146.468 176.071 146.445 176.425 146.314V146.972C176.36 146.991 176.262 147.019 176.131 147.056C176.01 147.093 175.889 147.112 175.767 147.112C175.637 147.112 175.511 147.098 175.389 147.07C175.249 147.051 175.137 147.009 175.053 146.944C174.969 146.869 174.899 146.785 174.843 146.692C174.797 146.589 174.764 146.482 174.745 146.37C174.727 146.249 174.717 146.123 174.717 145.992C174.363 146.384 173.957 146.683 173.499 146.888C173.042 147.093 172.547 147.196 172.015 147.196C171.698 147.196 171.39 147.154 171.091 147.07C170.802 146.986 170.545 146.855 170.321 146.678C170.097 146.501 169.92 146.286 169.789 146.034C169.659 145.773 169.593 145.465 169.593 145.11C169.593 143.878 170.438 143.15 172.127 142.926L173.289 142.772ZM178.465 147H177.625V139.748H178.465V140.84H178.493C178.707 140.42 179.015 140.103 179.417 139.888C179.818 139.664 180.257 139.552 180.733 139.552C181.069 139.552 181.353 139.589 181.587 139.664C181.82 139.739 182.016 139.841 182.175 139.972C182.343 140.093 182.478 140.238 182.581 140.406C182.693 140.574 182.786 140.756 182.861 140.952C183.103 140.476 183.425 140.126 183.827 139.902C184.237 139.669 184.704 139.552 185.227 139.552C185.721 139.552 186.113 139.636 186.403 139.804C186.701 139.963 186.93 140.177 187.089 140.448C187.247 140.709 187.35 141.013 187.397 141.358C187.453 141.703 187.481 142.058 187.481 142.422V147H186.641V141.988C186.641 141.465 186.529 141.055 186.305 140.756C186.09 140.457 185.684 140.308 185.087 140.308C184.779 140.308 184.48 140.378 184.191 140.518C183.911 140.649 183.663 140.854 183.449 141.134C183.355 141.255 183.276 141.4 183.211 141.568C183.155 141.727 183.108 141.895 183.071 142.072C183.033 142.249 183.005 142.427 182.987 142.604C182.977 142.781 182.973 142.945 182.973 143.094V147H182.133V141.988C182.133 141.465 182.021 141.055 181.797 140.756C181.582 140.457 181.176 140.308 180.579 140.308C180.271 140.308 179.972 140.378 179.683 140.518C179.403 140.649 179.155 140.854 178.941 141.134C178.847 141.255 178.768 141.4 178.703 141.568C178.647 141.727 178.6 141.895 178.563 142.072C178.525 142.249 178.497 142.427 178.479 142.604C178.469 142.781 178.465 142.945 178.465 143.094V147ZM194.145 143.192C193.79 143.341 193.431 143.439 193.067 143.486C192.703 143.533 192.339 143.57 191.975 143.598C191.331 143.645 190.827 143.789 190.463 144.032C190.108 144.275 189.931 144.643 189.931 145.138C189.931 145.362 189.973 145.558 190.057 145.726C190.15 145.885 190.267 146.02 190.407 146.132C190.556 146.235 190.724 146.314 190.911 146.37C191.107 146.417 191.303 146.44 191.499 146.44C191.835 146.44 192.161 146.398 192.479 146.314C192.796 146.23 193.076 146.104 193.319 145.936C193.571 145.759 193.771 145.539 193.921 145.278C194.07 145.007 194.145 144.69 194.145 144.326V143.192ZM192.731 142.772C192.889 142.753 193.076 142.725 193.291 142.688C193.515 142.651 193.697 142.599 193.837 142.534C193.977 142.469 194.061 142.361 194.089 142.212C194.126 142.053 194.145 141.909 194.145 141.778C194.145 141.349 194.005 140.999 193.725 140.728C193.454 140.448 192.992 140.308 192.339 140.308C192.049 140.308 191.783 140.336 191.541 140.392C191.298 140.439 191.083 140.527 190.897 140.658C190.719 140.779 190.57 140.947 190.449 141.162C190.337 141.367 190.262 141.629 190.225 141.946H189.371C189.399 141.517 189.497 141.153 189.665 140.854C189.833 140.546 190.047 140.299 190.309 140.112C190.579 139.916 190.887 139.776 191.233 139.692C191.587 139.599 191.961 139.552 192.353 139.552C192.717 139.552 193.057 139.594 193.375 139.678C193.701 139.753 193.981 139.879 194.215 140.056C194.457 140.224 194.644 140.453 194.775 140.742C194.915 141.031 194.985 141.386 194.985 141.806V145.754C194.985 146.081 195.041 146.291 195.153 146.384C195.274 146.468 195.512 146.445 195.867 146.314V146.972C195.801 146.991 195.703 147.019 195.573 147.056C195.451 147.093 195.33 147.112 195.209 147.112C195.078 147.112 194.952 147.098 194.831 147.07C194.691 147.051 194.579 147.009 194.495 146.944C194.411 146.869 194.341 146.785 194.285 146.692C194.238 146.589 194.205 146.482 194.187 146.37C194.168 146.249 194.159 146.123 194.159 145.992C193.804 146.384 193.398 146.683 192.941 146.888C192.483 147.093 191.989 147.196 191.457 147.196C191.139 147.196 190.831 147.154 190.533 147.07C190.243 146.986 189.987 146.855 189.763 146.678C189.539 146.501 189.361 146.286 189.231 146.034C189.1 145.773 189.035 145.465 189.035 145.11C189.035 143.878 189.879 143.15 191.569 142.926L192.731 142.772ZM197.178 147V136.92H198.018V140.756C198.354 140.401 198.699 140.112 199.054 139.888C199.418 139.664 199.852 139.552 200.356 139.552C200.804 139.552 201.219 139.631 201.602 139.79C201.985 139.939 202.307 140.205 202.568 140.588C202.745 140.849 202.848 141.12 202.876 141.4C202.913 141.671 202.932 141.955 202.932 142.254V147H202.092V142.268C202.092 141.615 201.947 141.125 201.658 140.798C201.369 140.471 200.888 140.308 200.216 140.308C199.955 140.308 199.717 140.35 199.502 140.434C199.287 140.509 199.091 140.611 198.914 140.742C198.746 140.873 198.601 141.022 198.48 141.19C198.359 141.358 198.265 141.535 198.2 141.722C198.116 141.955 198.065 142.179 198.046 142.394C198.027 142.609 198.018 142.842 198.018 143.094V147H197.178ZM214.454 143.346C214.454 142.935 214.398 142.548 214.286 142.184C214.174 141.811 214.01 141.489 213.796 141.218C213.59 140.938 213.334 140.719 213.026 140.56C212.727 140.392 212.386 140.308 212.004 140.308C211.565 140.308 211.187 140.397 210.87 140.574C210.552 140.742 210.291 140.975 210.086 141.274C209.88 141.573 209.731 141.923 209.638 142.324C209.544 142.716 209.507 143.141 209.526 143.598C209.526 144.055 209.586 144.461 209.708 144.816C209.838 145.161 210.016 145.455 210.24 145.698C210.464 145.941 210.725 146.127 211.024 146.258C211.322 146.379 211.649 146.44 212.004 146.44C212.396 146.44 212.746 146.361 213.054 146.202C213.362 146.043 213.618 145.829 213.824 145.558C214.029 145.278 214.183 144.951 214.286 144.578C214.398 144.195 214.454 143.785 214.454 143.346ZM214.454 136.92H215.294V147H214.454V145.726H214.426C214.304 145.969 214.146 146.183 213.95 146.37C213.763 146.547 213.553 146.697 213.32 146.818C213.096 146.939 212.862 147.033 212.62 147.098C212.377 147.163 212.139 147.196 211.906 147.196C211.318 147.196 210.818 147.098 210.408 146.902C209.997 146.706 209.656 146.44 209.386 146.104C209.124 145.759 208.933 145.353 208.812 144.886C208.69 144.419 208.63 143.92 208.63 143.388C208.63 142.884 208.695 142.399 208.826 141.932C208.956 141.465 209.152 141.059 209.414 140.714C209.684 140.359 210.02 140.079 210.422 139.874C210.832 139.659 211.313 139.552 211.864 139.552C212.377 139.552 212.867 139.669 213.334 139.902C213.81 140.126 214.183 140.462 214.454 140.91V136.92ZM222.158 143.192C221.804 143.341 221.444 143.439 221.08 143.486C220.716 143.533 220.352 143.57 219.988 143.598C219.344 143.645 218.84 143.789 218.476 144.032C218.122 144.275 217.944 144.643 217.944 145.138C217.944 145.362 217.986 145.558 218.07 145.726C218.164 145.885 218.28 146.02 218.42 146.132C218.57 146.235 218.738 146.314 218.924 146.37C219.12 146.417 219.316 146.44 219.512 146.44C219.848 146.44 220.175 146.398 220.492 146.314C220.81 146.23 221.09 146.104 221.332 145.936C221.584 145.759 221.785 145.539 221.934 145.278C222.084 145.007 222.158 144.69 222.158 144.326V143.192ZM220.744 142.772C220.903 142.753 221.09 142.725 221.304 142.688C221.528 142.651 221.71 142.599 221.85 142.534C221.99 142.469 222.074 142.361 222.102 142.212C222.14 142.053 222.158 141.909 222.158 141.778C222.158 141.349 222.018 140.999 221.738 140.728C221.468 140.448 221.006 140.308 220.352 140.308C220.063 140.308 219.797 140.336 219.554 140.392C219.312 140.439 219.097 140.527 218.91 140.658C218.733 140.779 218.584 140.947 218.462 141.162C218.35 141.367 218.276 141.629 218.238 141.946H217.384C217.412 141.517 217.51 141.153 217.678 140.854C217.846 140.546 218.061 140.299 218.322 140.112C218.593 139.916 218.901 139.776 219.246 139.692C219.601 139.599 219.974 139.552 220.366 139.552C220.73 139.552 221.071 139.594 221.388 139.678C221.715 139.753 221.995 139.879 222.228 140.056C222.471 140.224 222.658 140.453 222.788 140.742C222.928 141.031 222.998 141.386 222.998 141.806V145.754C222.998 146.081 223.054 146.291 223.166 146.384C223.288 146.468 223.526 146.445 223.88 146.314V146.972C223.815 146.991 223.717 147.019 223.586 147.056C223.465 147.093 223.344 147.112 223.222 147.112C223.092 147.112 222.966 147.098 222.844 147.07C222.704 147.051 222.592 147.009 222.508 146.944C222.424 146.869 222.354 146.785 222.298 146.692C222.252 146.589 222.219 146.482 222.2 146.37C222.182 146.249 222.172 146.123 222.172 145.992C221.818 146.384 221.412 146.683 220.954 146.888C220.497 147.093 220.002 147.196 219.47 147.196C219.153 147.196 218.845 147.154 218.546 147.07C218.257 146.986 218 146.855 217.776 146.678C217.552 146.501 217.375 146.286 217.244 146.034C217.114 145.773 217.048 145.465 217.048 145.11C217.048 143.878 217.893 143.15 219.582 142.926L220.744 142.772ZM226.032 147H225.192V139.748H226.032V140.756C226.368 140.401 226.713 140.112 227.068 139.888C227.432 139.664 227.866 139.552 228.37 139.552C228.818 139.552 229.233 139.631 229.616 139.79C229.998 139.939 230.32 140.205 230.582 140.588C230.759 140.849 230.862 141.12 230.89 141.4C230.927 141.671 230.946 141.955 230.946 142.254V147H230.106V142.268C230.106 141.615 229.961 141.125 229.672 140.798C229.382 140.471 228.902 140.308 228.23 140.308C227.968 140.308 227.73 140.35 227.516 140.434C227.301 140.509 227.105 140.611 226.928 140.742C226.76 140.873 226.615 141.022 226.494 141.19C226.372 141.358 226.279 141.535 226.214 141.722C226.13 141.955 226.078 142.179 226.06 142.394C226.041 142.609 226.032 142.842 226.032 143.094V147ZM25.498 164.732C25.6287 165.357 25.862 165.801 26.198 166.062C26.5433 166.314 27.0333 166.44 27.668 166.44C27.976 166.44 28.242 166.403 28.466 166.328C28.69 166.253 28.872 166.155 29.012 166.034C29.1613 165.903 29.2733 165.759 29.348 165.6C29.4227 165.441 29.46 165.273 29.46 165.096C29.46 164.741 29.3433 164.48 29.11 164.312C28.886 164.135 28.6013 163.999 28.256 163.906C27.9107 163.803 27.5373 163.719 27.136 163.654C26.7347 163.579 26.3613 163.472 26.016 163.332C25.6707 163.192 25.3813 162.991 25.148 162.73C24.924 162.469 24.812 162.1 24.812 161.624C24.812 161.017 25.0313 160.523 25.47 160.14C25.918 159.748 26.548 159.552 27.36 159.552C28.144 159.552 28.7787 159.729 29.264 160.084C29.7587 160.429 30.0573 161.013 30.16 161.834H29.306C29.2313 161.274 29.0167 160.882 28.662 160.658C28.3167 160.425 27.878 160.308 27.346 160.308C26.814 160.308 26.408 160.425 26.128 160.658C25.848 160.882 25.708 161.181 25.708 161.554C25.708 161.881 25.82 162.133 26.044 162.31C26.2773 162.478 26.5667 162.618 26.912 162.73C27.2573 162.833 27.6307 162.926 28.032 163.01C28.4333 163.094 28.8067 163.215 29.152 163.374C29.4973 163.523 29.782 163.729 30.006 163.99C30.2393 164.251 30.356 164.615 30.356 165.082C30.356 165.427 30.2813 165.735 30.132 166.006C29.9827 166.267 29.7773 166.487 29.516 166.664C29.2547 166.841 28.942 166.972 28.578 167.056C28.2233 167.149 27.8313 167.196 27.402 167.196C26.9727 167.196 26.59 167.131 26.254 167C25.9273 166.879 25.6473 166.706 25.414 166.482C25.1807 166.258 24.9987 165.997 24.868 165.698C24.7373 165.399 24.6627 165.077 24.644 164.732H25.498ZM37.258 162.87C37.258 162.515 37.2067 162.184 37.104 161.876C37.0107 161.559 36.866 161.288 36.67 161.064C36.4833 160.831 36.2453 160.649 35.956 160.518C35.6667 160.378 35.3353 160.308 34.962 160.308C34.5887 160.308 34.2573 160.378 33.968 160.518C33.688 160.658 33.4453 160.845 33.24 161.078C33.044 161.311 32.8853 161.582 32.764 161.89C32.6427 162.198 32.5633 162.525 32.526 162.87H37.258ZM32.526 163.57C32.526 163.962 32.5773 164.335 32.68 164.69C32.7827 165.035 32.932 165.339 33.128 165.6C33.3333 165.852 33.59 166.057 33.898 166.216C34.206 166.365 34.5607 166.44 34.962 166.44C35.5127 166.44 35.984 166.295 36.376 166.006C36.768 165.717 37.0293 165.306 37.16 164.774H38.098C37.9953 165.119 37.86 165.441 37.692 165.74C37.524 166.029 37.314 166.286 37.062 166.51C36.81 166.725 36.5113 166.893 36.166 167.014C35.8207 167.135 35.4193 167.196 34.962 167.196C34.3833 167.196 33.884 167.098 33.464 166.902C33.044 166.706 32.6987 166.44 32.428 166.104C32.1573 165.759 31.9567 165.357 31.826 164.9C31.6953 164.433 31.63 163.934 31.63 163.402C31.63 162.87 31.7047 162.371 31.854 161.904C32.0127 161.437 32.232 161.031 32.512 160.686C32.8013 160.331 33.1513 160.056 33.562 159.86C33.9727 159.655 34.4393 159.552 34.962 159.552C35.9607 159.552 36.7447 159.897 37.314 160.588C37.8833 161.269 38.1633 162.263 38.154 163.57H32.526ZM39.9133 167V156.92H40.7533V167H39.9133ZM47.6368 163.192C47.2821 163.341 46.9228 163.439 46.5588 163.486C46.1948 163.533 45.8308 163.57 45.4668 163.598C44.8228 163.645 44.3188 163.789 43.9548 164.032C43.6001 164.275 43.4228 164.643 43.4228 165.138C43.4228 165.362 43.4648 165.558 43.5488 165.726C43.6421 165.885 43.7588 166.02 43.8988 166.132C44.0481 166.235 44.2161 166.314 44.4028 166.37C44.5988 166.417 44.7948 166.44 44.9908 166.44C45.3268 166.44 45.6535 166.398 45.9708 166.314C46.2881 166.23 46.5681 166.104 46.8108 165.936C47.0628 165.759 47.2635 165.539 47.4128 165.278C47.5621 165.007 47.6368 164.69 47.6368 164.326V163.192ZM46.2228 162.772C46.3815 162.753 46.5681 162.725 46.7828 162.688C47.0068 162.651 47.1888 162.599 47.3288 162.534C47.4688 162.469 47.5528 162.361 47.5808 162.212C47.6181 162.053 47.6368 161.909 47.6368 161.778C47.6368 161.349 47.4968 160.999 47.2168 160.728C46.9461 160.448 46.4841 160.308 45.8308 160.308C45.5415 160.308 45.2755 160.336 45.0328 160.392C44.7901 160.439 44.5755 160.527 44.3888 160.658C44.2115 160.779 44.0621 160.947 43.9408 161.162C43.8288 161.367 43.7541 161.629 43.7168 161.946H42.8628C42.8908 161.517 42.9888 161.153 43.1568 160.854C43.3248 160.546 43.5395 160.299 43.8008 160.112C44.0715 159.916 44.3795 159.776 44.7248 159.692C45.0795 159.599 45.4528 159.552 45.8448 159.552C46.2088 159.552 46.5495 159.594 46.8668 159.678C47.1935 159.753 47.4735 159.879 47.7068 160.056C47.9495 160.224 48.1361 160.453 48.2668 160.742C48.4068 161.031 48.4768 161.386 48.4768 161.806V165.754C48.4768 166.081 48.5328 166.291 48.6448 166.384C48.7661 166.468 49.0041 166.445 49.3588 166.314V166.972C49.2935 166.991 49.1955 167.019 49.0648 167.056C48.9435 167.093 48.8221 167.112 48.7008 167.112C48.5701 167.112 48.4441 167.098 48.3228 167.07C48.1828 167.051 48.0708 167.009 47.9868 166.944C47.9028 166.869 47.8328 166.785 47.7768 166.692C47.7301 166.589 47.6975 166.482 47.6788 166.37C47.6601 166.249 47.6508 166.123 47.6508 165.992C47.2961 166.384 46.8901 166.683 46.4328 166.888C45.9755 167.093 45.4808 167.196 44.9488 167.196C44.6315 167.196 44.3235 167.154 44.0248 167.07C43.7355 166.986 43.4788 166.855 43.2548 166.678C43.0308 166.501 42.8535 166.286 42.7228 166.034C42.5921 165.773 42.5268 165.465 42.5268 165.11C42.5268 163.878 43.3715 163.15 45.0608 162.926L46.2228 162.772ZM50.7961 167V156.92H51.6361V167H50.7961ZM58.6876 159.748H59.5276V167H58.6876V165.992C58.5756 166.123 58.4496 166.258 58.3096 166.398C58.1696 166.538 58.0063 166.669 57.8196 166.79C57.6423 166.902 57.4323 166.995 57.1896 167.07C56.947 167.154 56.667 167.196 56.3496 167.196C55.8643 167.196 55.4583 167.131 55.1316 167C54.805 166.86 54.539 166.669 54.3336 166.426C54.1376 166.183 53.993 165.903 53.8996 165.586C53.8156 165.259 53.7736 164.905 53.7736 164.522V159.748H54.6136V164.508C54.6136 165.133 54.7583 165.614 55.0476 165.95C55.337 166.277 55.813 166.44 56.4756 166.44C56.821 166.44 57.129 166.375 57.3996 166.244C57.6796 166.104 57.913 165.913 58.0996 165.67C58.2863 165.427 58.431 165.138 58.5336 164.802C58.6363 164.466 58.6876 164.097 58.6876 163.696V159.748ZM67.9974 167.028C67.8947 167.047 67.7594 167.079 67.5914 167.126C67.4234 167.173 67.2367 167.196 67.0314 167.196C66.6114 167.196 66.2894 167.093 66.0654 166.888C65.8507 166.673 65.7434 166.295 65.7434 165.754V160.448H64.7214V159.748H65.7434V157.732H66.5834V159.748H67.9414V160.448H66.5834V165.418C66.5834 165.595 66.5881 165.749 66.5974 165.88C66.6067 166.011 66.6347 166.118 66.6814 166.202C66.7281 166.286 66.7981 166.347 66.8914 166.384C66.9941 166.421 67.1341 166.44 67.3114 166.44C67.4234 166.44 67.5354 166.431 67.6474 166.412C67.7687 166.393 67.8854 166.37 67.9974 166.342V167.028ZM74.5959 162.87C74.5959 162.515 74.5446 162.184 74.4419 161.876C74.3486 161.559 74.2039 161.288 74.0079 161.064C73.8212 160.831 73.5832 160.649 73.2939 160.518C73.0046 160.378 72.6732 160.308 72.2999 160.308C71.9266 160.308 71.5952 160.378 71.3059 160.518C71.0259 160.658 70.7832 160.845 70.5779 161.078C70.3819 161.311 70.2232 161.582 70.1019 161.89C69.9806 162.198 69.9012 162.525 69.8639 162.87H74.5959ZM69.8639 163.57C69.8639 163.962 69.9152 164.335 70.0179 164.69C70.1206 165.035 70.2699 165.339 70.4659 165.6C70.6712 165.852 70.9279 166.057 71.2359 166.216C71.5439 166.365 71.8986 166.44 72.2999 166.44C72.8506 166.44 73.3219 166.295 73.7139 166.006C74.1059 165.717 74.3672 165.306 74.4979 164.774H75.4359C75.3332 165.119 75.1979 165.441 75.0299 165.74C74.8619 166.029 74.6519 166.286 74.3999 166.51C74.1479 166.725 73.8492 166.893 73.5039 167.014C73.1586 167.135 72.7572 167.196 72.2999 167.196C71.7212 167.196 71.2219 167.098 70.8019 166.902C70.3819 166.706 70.0366 166.44 69.7659 166.104C69.4952 165.759 69.2946 165.357 69.1639 164.9C69.0332 164.433 68.9679 163.934 68.9679 163.402C68.9679 162.87 69.0426 162.371 69.1919 161.904C69.3506 161.437 69.5699 161.031 69.8499 160.686C70.1392 160.331 70.4892 160.056 70.8999 159.86C71.3106 159.655 71.7772 159.552 72.2999 159.552C73.2986 159.552 74.0826 159.897 74.6519 160.588C75.2212 161.269 75.5012 162.263 75.4919 163.57H69.8639ZM78.0632 163.402C78.0632 163.813 78.1192 164.205 78.2312 164.578C78.3432 164.942 78.5019 165.264 78.7072 165.544C78.9219 165.815 79.1785 166.034 79.4772 166.202C79.7852 166.361 80.1305 166.44 80.5132 166.44C80.9425 166.44 81.3159 166.356 81.6332 166.188C81.9599 166.011 82.2259 165.773 82.4312 165.474C82.6365 165.175 82.7859 164.83 82.8792 164.438C82.9725 164.037 83.0099 163.607 82.9912 163.15C82.9912 162.693 82.9259 162.291 82.7952 161.946C82.6739 161.591 82.5012 161.293 82.2772 161.05C82.0532 160.807 81.7919 160.625 81.4932 160.504C81.1945 160.373 80.8679 160.308 80.5132 160.308C80.1212 160.308 79.7712 160.387 79.4632 160.546C79.1552 160.705 78.8985 160.924 78.6932 161.204C78.4879 161.475 78.3292 161.801 78.2172 162.184C78.1145 162.557 78.0632 162.963 78.0632 163.402ZM78.0632 169.856H77.2232V159.748H78.0632V161.022H78.0912C78.2125 160.789 78.3665 160.579 78.5532 160.392C78.7492 160.205 78.9592 160.051 79.1832 159.93C79.4165 159.809 79.6545 159.715 79.8972 159.65C80.1399 159.585 80.3779 159.552 80.6112 159.552C81.1992 159.552 81.6985 159.65 82.1092 159.846C82.5199 160.042 82.8559 160.313 83.1172 160.658C83.3879 160.994 83.5839 161.395 83.7052 161.862C83.8265 162.329 83.8872 162.828 83.8872 163.36C83.8872 163.864 83.8219 164.349 83.6912 164.816C83.5605 165.283 83.3599 165.693 83.0892 166.048C82.8279 166.393 82.4919 166.673 82.0812 166.888C81.6799 167.093 81.2039 167.196 80.6532 167.196C80.1399 167.196 79.6452 167.084 79.1692 166.86C78.7025 166.627 78.3339 166.286 78.0632 165.838V169.856ZM90.4298 163.192C90.0751 163.341 89.7158 163.439 89.3518 163.486C88.9878 163.533 88.6238 163.57 88.2598 163.598C87.6158 163.645 87.1118 163.789 86.7478 164.032C86.3931 164.275 86.2158 164.643 86.2158 165.138C86.2158 165.362 86.2578 165.558 86.3418 165.726C86.4351 165.885 86.5518 166.02 86.6918 166.132C86.8411 166.235 87.0091 166.314 87.1958 166.37C87.3918 166.417 87.5878 166.44 87.7838 166.44C88.1198 166.44 88.4464 166.398 88.7638 166.314C89.0811 166.23 89.3611 166.104 89.6038 165.936C89.8558 165.759 90.0564 165.539 90.2058 165.278C90.3551 165.007 90.4298 164.69 90.4298 164.326V163.192ZM89.0158 162.772C89.1744 162.753 89.3611 162.725 89.5758 162.688C89.7998 162.651 89.9818 162.599 90.1218 162.534C90.2618 162.469 90.3458 162.361 90.3738 162.212C90.4111 162.053 90.4298 161.909 90.4298 161.778C90.4298 161.349 90.2898 160.999 90.0098 160.728C89.7391 160.448 89.2771 160.308 88.6238 160.308C88.3344 160.308 88.0684 160.336 87.8258 160.392C87.5831 160.439 87.3684 160.527 87.1818 160.658C87.0044 160.779 86.8551 160.947 86.7338 161.162C86.6218 161.367 86.5471 161.629 86.5098 161.946H85.6558C85.6838 161.517 85.7818 161.153 85.9498 160.854C86.1178 160.546 86.3324 160.299 86.5938 160.112C86.8644 159.916 87.1724 159.776 87.5178 159.692C87.8724 159.599 88.2458 159.552 88.6378 159.552C89.0018 159.552 89.3424 159.594 89.6598 159.678C89.9864 159.753 90.2664 159.879 90.4998 160.056C90.7424 160.224 90.9291 160.453 91.0598 160.742C91.1998 161.031 91.2698 161.386 91.2698 161.806V165.754C91.2698 166.081 91.3258 166.291 91.4378 166.384C91.5591 166.468 91.7971 166.445 92.1518 166.314V166.972C92.0864 166.991 91.9884 167.019 91.8578 167.056C91.7364 167.093 91.6151 167.112 91.4938 167.112C91.3631 167.112 91.2371 167.098 91.1158 167.07C90.9758 167.051 90.8638 167.009 90.7798 166.944C90.6958 166.869 90.6258 166.785 90.5698 166.692C90.5231 166.589 90.4904 166.482 90.4718 166.37C90.4531 166.249 90.4438 166.123 90.4438 165.992C90.0891 166.384 89.6831 166.683 89.2258 166.888C88.7684 167.093 88.2738 167.196 87.7418 167.196C87.4244 167.196 87.1164 167.154 86.8178 167.07C86.5284 166.986 86.2718 166.855 86.0478 166.678C85.8238 166.501 85.6464 166.286 85.5158 166.034C85.3851 165.773 85.3198 165.465 85.3198 165.11C85.3198 163.878 86.1644 163.15 87.8538 162.926L89.0158 162.772ZM96.0111 167.028C95.9084 167.047 95.7731 167.079 95.6051 167.126C95.4371 167.173 95.2504 167.196 95.0451 167.196C94.6251 167.196 94.3031 167.093 94.0791 166.888C93.8644 166.673 93.7571 166.295 93.7571 165.754V160.448H92.7351V159.748H93.7571V157.732H94.5971V159.748H95.9551V160.448H94.5971V165.418C94.5971 165.595 94.6017 165.749 94.6111 165.88C94.6204 166.011 94.6484 166.118 94.6951 166.202C94.7417 166.286 94.8117 166.347 94.9051 166.384C95.0077 166.421 95.1477 166.44 95.3251 166.44C95.4371 166.44 95.5491 166.431 95.6611 166.412C95.7824 166.393 95.8991 166.37 96.0111 166.342V167.028ZM107.388 165.88L109.292 159.748H110.146L107.794 167H106.898L105.316 160.91H105.288L103.678 167H102.67L100.458 159.748H101.298L103.174 165.936L104.854 159.748H105.792L107.388 165.88ZM116.106 163.192C115.751 163.341 115.392 163.439 115.028 163.486C114.664 163.533 114.3 163.57 113.936 163.598C113.292 163.645 112.788 163.789 112.424 164.032C112.069 164.275 111.892 164.643 111.892 165.138C111.892 165.362 111.934 165.558 112.018 165.726C112.111 165.885 112.228 166.02 112.368 166.132C112.517 166.235 112.685 166.314 112.872 166.37C113.068 166.417 113.264 166.44 113.46 166.44C113.796 166.44 114.122 166.398 114.44 166.314C114.757 166.23 115.037 166.104 115.28 165.936C115.532 165.759 115.732 165.539 115.882 165.278C116.031 165.007 116.106 164.69 116.106 164.326V163.192ZM114.692 162.772C114.85 162.753 115.037 162.725 115.252 162.688C115.476 162.651 115.658 162.599 115.798 162.534C115.938 162.469 116.022 162.361 116.05 162.212C116.087 162.053 116.106 161.909 116.106 161.778C116.106 161.349 115.966 160.999 115.686 160.728C115.415 160.448 114.953 160.308 114.3 160.308C114.01 160.308 113.744 160.336 113.502 160.392C113.259 160.439 113.044 160.527 112.858 160.658C112.68 160.779 112.531 160.947 112.41 161.162C112.298 161.367 112.223 161.629 112.186 161.946H111.332C111.36 161.517 111.458 161.153 111.626 160.854C111.794 160.546 112.008 160.299 112.27 160.112C112.54 159.916 112.848 159.776 113.194 159.692C113.548 159.599 113.922 159.552 114.314 159.552C114.678 159.552 115.018 159.594 115.336 159.678C115.662 159.753 115.942 159.879 116.176 160.056C116.418 160.224 116.605 160.453 116.736 160.742C116.876 161.031 116.946 161.386 116.946 161.806V165.754C116.946 166.081 117.002 166.291 117.114 166.384C117.235 166.468 117.473 166.445 117.828 166.314V166.972C117.762 166.991 117.664 167.019 117.534 167.056C117.412 167.093 117.291 167.112 117.17 167.112C117.039 167.112 116.913 167.098 116.792 167.07C116.652 167.051 116.54 167.009 116.456 166.944C116.372 166.869 116.302 166.785 116.246 166.692C116.199 166.589 116.166 166.482 116.148 166.37C116.129 166.249 116.12 166.123 116.12 165.992C115.765 166.384 115.359 166.683 114.902 166.888C114.444 167.093 113.95 167.196 113.418 167.196C113.1 167.196 112.792 167.154 112.494 167.07C112.204 166.986 111.948 166.855 111.724 166.678C111.5 166.501 111.322 166.286 111.192 166.034C111.061 165.773 110.996 165.465 110.996 165.11C110.996 163.878 111.84 163.15 113.53 162.926L114.692 162.772ZM119.083 167V156.92H119.923V163.192L123.479 159.748H124.627L121.911 162.366L124.949 167H124.011L121.295 162.954L119.923 164.256V167H119.083ZM128.687 167.028C128.584 167.047 128.449 167.079 128.281 167.126C128.113 167.173 127.926 167.196 127.721 167.196C127.301 167.196 126.979 167.093 126.755 166.888C126.54 166.673 126.433 166.295 126.433 165.754V160.448H125.411V159.748H126.433V157.732H127.273V159.748H128.631V160.448H127.273V165.418C127.273 165.595 127.278 165.749 127.287 165.88C127.296 166.011 127.324 166.118 127.371 166.202C127.418 166.286 127.488 166.347 127.581 166.384C127.684 166.421 127.824 166.44 128.001 166.44C128.113 166.44 128.225 166.431 128.337 166.412C128.458 166.393 128.575 166.37 128.687 166.342V167.028ZM134.949 159.748H135.789V167H134.949V165.992C134.837 166.123 134.711 166.258 134.571 166.398C134.431 166.538 134.268 166.669 134.081 166.79C133.904 166.902 133.694 166.995 133.451 167.07C133.209 167.154 132.929 167.196 132.611 167.196C132.126 167.196 131.72 167.131 131.393 167C131.067 166.86 130.801 166.669 130.595 166.426C130.399 166.183 130.255 165.903 130.161 165.586C130.077 165.259 130.035 164.905 130.035 164.522V159.748H130.875V164.508C130.875 165.133 131.02 165.614 131.309 165.95C131.599 166.277 132.075 166.44 132.737 166.44C133.083 166.44 133.391 166.375 133.661 166.244C133.941 166.104 134.175 165.913 134.361 165.67C134.548 165.427 134.693 165.138 134.795 164.802C134.898 164.466 134.949 164.097 134.949 163.696V159.748Z" fill="black"/>
<rect x="0.5" y="0.5" width="267" height="195" rx="7.5" stroke="#D0D0D0"/>
</svg>
